{"glyphs":{"0":{"ha":950,"x_min":67,"x_max":883,"o":"m 476 -17 q 257 47 349 -17 q 116 223 165 110 q 67 486 67 336 q 116 749 67 636 q 257 926 165 863 q 476 989 349 989 q 695 926 604 989 q 835 749 786 863 q 883 486 883 636 q 835 223 883 336 q 695 47 786 110 q 476 -17 604 -17 m 476 86 q 624 134 558 86 q 726 272 689 182 q 764 486 764 361 q 726 701 764 611 q 624 838 689 790 q 476 885 558 885 q 326 838 392 885 q 223 701 260 790 q 186 486 186 611 q 223 272 186 361 q 326 134 260 182 q 476 86 392 86 z "},"1":{"ha":433,"x_min":44,"x_max":329,"o":"m 211 0 l 211 842 l 44 800 l 44 883 l 250 972 l 329 972 l 329 0 l 211 0 z "},"2":{"ha":800,"x_min":89,"x_max":735,"o":"m 89 0 l 89 82 q 277 239 188 160 q 436 397 367 318 q 545 550 506 475 q 585 694 585 625 q 567 790 585 746 q 509 861 549 833 q 403 889 469 889 q 294 860 338 889 q 230 785 251 832 q 208 683 208 739 l 96 683 q 137 848 97 779 q 246 953 176 917 q 404 989 315 989 q 558 956 492 989 q 663 860 625 924 q 701 699 701 796 q 673 563 701 631 q 597 430 644 494 q 492 306 550 365 q 374 193 435 246 q 261 97 314 140 l 735 97 l 735 0 l 89 0 z "},"3":{"ha":821,"x_min":71,"x_max":732,"o":"m 407 -17 q 238 17 314 -17 q 118 119 163 51 q 71 289 74 188 l 189 289 q 216 187 190 233 q 290 113 242 140 q 407 85 339 85 q 521 111 475 85 q 590 181 567 138 q 614 279 614 225 q 581 390 614 347 q 494 453 549 432 q 374 474 439 474 l 301 474 l 301 572 l 374 572 q 524 616 469 572 q 578 738 578 660 q 535 844 578 801 q 407 888 493 888 q 276 840 325 888 q 221 719 228 793 l 103 719 q 146 860 107 799 q 251 955 185 921 q 408 989 318 989 q 567 956 503 989 q 663 867 631 922 q 696 744 696 811 q 678 651 696 696 q 624 574 660 607 q 532 528 588 540 q 634 483 589 515 q 706 400 679 451 q 732 279 732 349 q 695 133 732 200 q 586 24 658 65 q 407 -17 514 -17 z "},"4":{"ha":843,"x_min":51,"x_max":804,"o":"m 544 0 l 544 208 l 51 208 l 51 299 l 524 972 l 660 972 l 660 311 l 804 311 l 804 208 l 660 208 l 660 0 l 544 0 m 181 311 l 550 311 l 550 843 l 550 843 l 181 311 z "},"5":{"ha":849,"x_min":90,"x_max":768,"o":"m 432 -17 q 260 19 333 -17 q 144 118 186 56 q 90 258 101 181 l 204 258 q 281 132 221 181 q 433 83 340 83 q 552 116 503 83 q 628 203 601 149 q 656 326 656 258 q 628 452 656 399 q 552 536 601 506 q 439 567 503 567 q 303 532 358 567 q 219 442 247 497 l 107 442 l 189 972 l 701 972 l 701 871 l 279 871 l 224 574 q 317 639 258 613 q 451 665 375 665 q 581 640 522 665 q 681 568 639 614 q 745 461 722 522 q 768 328 768 400 q 746 196 768 258 q 680 85 724 133 q 574 10 636 38 q 432 -17 513 -17 z "},"6":{"ha":874,"x_min":76,"x_max":786,"o":"m 453 -17 q 275 23 347 -17 q 160 129 203 63 q 97 278 117 196 q 76 447 76 361 q 121 730 76 608 q 249 920 165 851 q 451 989 333 989 q 609 953 543 989 q 714 858 675 918 q 761 725 753 799 l 653 725 q 585 845 639 803 q 450 888 532 888 q 319 842 378 888 q 227 706 261 797 q 188 471 193 614 q 188 465 188 468 q 188 460 188 463 q 249 541 210 504 q 344 600 289 578 q 468 622 400 622 q 624 583 551 622 q 741 474 696 544 q 786 310 786 404 q 746 153 786 228 q 631 31 706 78 q 453 -17 556 -17 m 444 86 q 559 115 508 86 q 639 192 610 143 q 668 304 668 242 q 639 418 668 369 q 559 494 610 467 q 444 521 508 521 q 329 492 381 521 q 248 413 278 463 q 218 303 218 364 q 248 192 218 240 q 329 115 278 143 q 444 86 381 86 z "},"7":{"ha":742,"x_min":38,"x_max":690,"o":"m 192 0 l 571 872 l 38 872 l 38 972 l 690 972 l 690 885 l 315 0 l 192 0 z "},"8":{"ha":846,"x_min":89,"x_max":757,"o":"m 422 -17 q 253 19 328 -17 q 133 117 178 54 q 89 264 89 181 q 113 375 89 324 q 178 465 136 426 q 276 518 221 503 q 156 604 199 546 q 114 731 114 663 q 151 861 114 803 q 258 954 189 919 q 422 989 326 989 q 588 954 519 989 q 694 861 657 919 q 732 731 732 803 q 689 604 732 663 q 568 518 646 546 q 668 465 626 503 q 733 375 710 426 q 757 264 757 324 q 713 117 757 181 q 593 19 668 54 q 422 -17 518 -17 m 422 86 q 586 137 532 86 q 640 271 640 188 q 581 414 640 365 q 422 463 521 463 q 265 414 324 463 q 206 271 206 365 q 260 137 206 188 q 422 86 314 86 m 422 560 q 562 606 510 560 q 614 724 614 651 q 563 847 614 806 q 422 889 511 889 q 284 847 335 889 q 233 724 233 806 q 284 606 233 651 q 422 560 335 560 z "},"9":{"ha":874,"x_min":88,"x_max":797,"o":"m 421 -17 q 265 19 331 -17 q 160 116 199 56 q 114 247 122 176 l 222 247 q 289 127 236 169 q 422 85 342 85 q 553 129 496 85 q 646 265 611 174 q 685 496 681 356 q 686 504 686 500 q 686 513 686 508 q 624 432 664 469 q 530 372 585 394 q 406 350 475 350 q 251 389 324 350 q 133 498 178 428 q 88 663 88 568 q 128 819 88 744 q 243 942 168 894 q 421 989 318 989 q 598 949 526 989 q 713 844 669 910 q 777 694 757 778 q 797 525 797 611 q 753 243 797 365 q 624 52 708 121 q 421 -17 540 -17 m 429 451 q 544 481 493 451 q 626 560 596 511 q 657 669 657 610 q 626 782 657 733 q 544 858 596 831 q 429 886 493 886 q 315 858 365 886 q 235 781 264 829 q 206 668 206 732 q 235 554 206 603 q 315 478 264 506 q 429 451 365 451 z "},"A":{"ha":922,"x_min":42,"x_max":881,"o":"m 42 0 l 400 972 l 524 972 l 881 0 l 757 0 l 461 826 l 461 826 l 164 0 l 42 0 m 206 250 l 239 344 l 679 344 l 713 250 l 206 250 z "},"Á":{"ha":922,"x_min":42,"x_max":881,"o":"m 42 0 l 400 972 l 524 972 l 881 0 l 757 0 l 461 826 l 461 826 l 164 0 l 42 0 m 206 250 l 239 344 l 679 344 l 713 250 l 206 250 m 328 1032 l 315 1117 l 594 1293 l 594 1293 l 611 1193 l 328 1032 z "},"Ă":{"ha":922,"x_min":42,"x_max":881,"o":"m 42 0 l 400 972 l 524 972 l 881 0 l 757 0 l 461 826 l 461 826 l 164 0 l 42 0 m 206 250 l 239 344 l 679 344 l 713 250 l 206 250 m 463 1051 q 356 1076 399 1051 q 290 1141 313 1100 q 268 1232 268 1182 l 268 1251 l 338 1251 q 367 1172 338 1200 q 463 1143 396 1143 q 558 1172 529 1143 q 588 1251 588 1200 l 658 1251 l 658 1232 q 635 1141 658 1182 q 569 1076 613 1100 q 463 1051 526 1051 z "},"Â":{"ha":922,"x_min":42,"x_max":881,"o":"m 42 0 l 400 972 l 524 972 l 881 0 l 757 0 l 461 826 l 461 826 l 164 0 l 42 0 m 206 250 l 239 344 l 679 344 l 713 250 l 206 250 m 272 1049 l 272 1140 l 463 1253 l 653 1140 l 653 1049 l 463 1165 l 272 1049 z "},"Ä":{"ha":922,"x_min":42,"x_max":881,"o":"m 42 0 l 400 972 l 524 972 l 881 0 l 757 0 l 461 826 l 461 826 l 164 0 l 42 0 m 206 250 l 239 344 l 679 344 l 713 250 l 206 250 m 353 1076 q 303 1097 324 1076 q 283 1146 283 1117 q 303 1194 283 1174 q 353 1215 324 1215 q 401 1194 381 1215 q 422 1146 422 1174 q 401 1097 422 1117 q 353 1076 381 1076 m 575 1076 q 526 1097 546 1076 q 506 1146 506 1117 q 526 1194 506 1174 q 575 1215 546 1215 q 623 1194 603 1215 q 643 1146 643 1174 q 623 1097 643 1117 q 575 1076 603 1076 z "},"À":{"ha":922,"x_min":42,"x_max":881,"o":"m 42 0 l 400 972 l 524 972 l 881 0 l 757 0 l 461 826 l 461 826 l 164 0 l 42 0 m 206 250 l 239 344 l 679 344 l 713 250 l 206 250 m 599 1032 l 315 1193 l 332 1293 l 332 1293 l 611 1117 l 599 1032 z "},"Ā":{"ha":922,"x_min":42,"x_max":881,"o":"m 42 0 l 400 972 l 524 972 l 881 0 l 757 0 l 461 826 l 461 826 l 164 0 l 42 0 m 206 250 l 239 344 l 679 344 l 713 250 l 206 250 m 221 1106 l 221 1193 l 703 1193 l 703 1106 l 221 1106 z "},"Ą":{"ha":922,"x_min":42,"x_max":885,"o":"m 42 0 l 400 972 l 524 972 l 881 0 l 757 0 l 461 826 l 461 826 l 164 0 l 42 0 m 206 250 l 239 344 l 679 344 l 713 250 l 206 250 m 781 -282 q 701 -269 739 -282 q 640 -226 664 -256 q 617 -150 617 -197 q 632 -87 617 -117 q 683 -28 647 -57 q 778 28 718 1 l 851 60 l 881 0 l 800 -39 q 731 -87 751 -62 q 711 -139 711 -112 q 734 -189 711 -171 q 794 -207 757 -207 q 838 -201 814 -207 q 885 -186 863 -196 l 885 -264 q 835 -277 863 -272 q 781 -282 808 -282 z "},"Å":{"ha":922,"x_min":42,"x_max":881,"o":"m 42 0 l 400 972 l 524 972 l 881 0 l 757 0 l 461 826 l 461 826 l 164 0 l 42 0 m 206 250 l 239 344 l 679 344 l 713 250 l 206 250 m 463 1057 q 360 1095 403 1057 q 317 1200 317 1133 q 360 1305 317 1267 q 463 1343 403 1343 q 566 1305 524 1343 q 608 1200 608 1267 q 566 1095 608 1133 q 463 1057 524 1057 m 463 1117 q 519 1140 496 1117 q 542 1200 542 1163 q 519 1260 542 1239 q 463 1282 496 1282 q 407 1260 431 1282 q 383 1200 383 1239 q 407 1140 383 1163 q 463 1117 431 1117 z "},"Ã":{"ha":922,"x_min":42,"x_max":881,"o":"m 42 0 l 400 972 l 524 972 l 881 0 l 757 0 l 461 826 l 461 826 l 164 0 l 42 0 m 206 250 l 239 344 l 679 344 l 713 250 l 206 250 m 553 1050 q 490 1067 515 1050 q 444 1099 465 1083 q 393 1115 422 1115 q 355 1100 371 1115 q 335 1053 339 1085 l 267 1053 q 312 1158 276 1122 q 399 1193 347 1193 q 460 1177 436 1193 q 507 1144 485 1161 q 558 1128 529 1128 q 598 1144 582 1128 q 618 1190 614 1160 l 686 1190 q 642 1086 678 1122 q 553 1050 606 1050 z "},"Æ":{"ha":1267,"x_min":42,"x_max":1186,"o":"m 42 0 l 596 972 l 1186 972 l 1186 879 l 785 879 l 785 536 l 1144 536 l 1144 444 l 785 444 l 785 93 l 1186 93 l 1186 0 l 668 0 l 668 876 l 668 876 l 169 0 l 42 0 m 231 221 l 279 314 l 722 314 l 722 221 l 231 221 z "},"Ǽ":{"ha":1267,"x_min":42,"x_max":1186,"o":"m 42 0 l 596 972 l 1186 972 l 1186 879 l 785 879 l 785 536 l 1144 536 l 1144 444 l 785 444 l 785 93 l 1186 93 l 1186 0 l 668 0 l 668 876 l 668 876 l 169 0 l 42 0 m 231 221 l 279 314 l 722 314 l 722 221 l 231 221 m 643 1032 l 631 1117 l 910 1293 l 910 1293 l 926 1193 l 643 1032 z "},"B":{"ha":838,"x_min":104,"x_max":772,"o":"m 104 0 l 104 972 l 446 972 q 616 940 549 972 q 717 851 683 907 q 750 725 750 794 q 717 600 750 650 q 633 524 685 550 q 522 492 581 497 l 542 506 q 657 472 604 504 q 741 386 710 440 q 772 265 772 332 q 736 131 772 192 q 630 35 700 71 q 457 0 560 0 l 104 0 m 221 97 l 444 97 q 598 144 543 97 q 653 274 653 190 q 597 405 653 356 q 442 454 540 454 l 221 454 l 221 97 m 221 547 l 438 547 q 581 592 532 547 q 631 713 631 636 q 581 831 631 786 q 433 875 532 875 l 221 875 l 221 547 z "},"C":{"ha":996,"x_min":67,"x_max":931,"o":"m 526 -17 q 281 47 385 -17 q 122 223 178 110 q 67 486 67 336 q 122 749 67 636 q 281 926 178 863 q 526 989 385 989 q 797 910 693 989 q 931 686 901 831 l 801 686 q 711 831 779 776 q 526 886 643 886 q 347 838 424 886 q 228 701 269 790 q 186 486 186 611 q 228 272 186 361 q 347 134 269 182 q 526 86 424 86 q 711 140 643 86 q 801 282 779 193 l 931 282 q 797 63 901 142 q 526 -17 693 -17 z "},"Ć":{"ha":996,"x_min":67,"x_max":931,"o":"m 526 -17 q 281 47 385 -17 q 122 223 178 110 q 67 486 67 336 q 122 749 67 636 q 281 926 178 863 q 526 989 385 989 q 797 910 693 989 q 931 686 901 831 l 801 686 q 711 831 779 776 q 526 886 643 886 q 347 838 424 886 q 228 701 269 790 q 186 486 186 611 q 228 272 186 361 q 347 134 269 182 q 526 86 424 86 q 711 140 643 86 q 801 282 779 193 l 931 282 q 797 63 901 142 q 526 -17 693 -17 m 363 1032 l 350 1117 l 629 1293 l 629 1293 l 646 1193 l 363 1032 z "},"Č":{"ha":996,"x_min":67,"x_max":931,"o":"m 526 -17 q 281 47 385 -17 q 122 223 178 110 q 67 486 67 336 q 122 749 67 636 q 281 926 178 863 q 526 989 385 989 q 797 910 693 989 q 931 686 901 831 l 801 686 q 711 831 779 776 q 526 886 643 886 q 347 838 424 886 q 228 701 269 790 q 186 486 186 611 q 228 272 186 361 q 347 134 269 182 q 526 86 424 86 q 711 140 643 86 q 801 282 779 193 l 931 282 q 797 63 901 142 q 526 -17 693 -17 m 499 1047 l 308 1161 l 308 1251 l 499 1135 l 689 1251 l 689 1161 l 499 1047 z "},"Ç":{"ha":996,"x_min":67,"x_max":931,"o":"m 526 -17 q 281 47 385 -17 q 122 223 178 110 q 67 486 67 336 q 122 749 67 636 q 281 926 178 863 q 526 989 385 989 q 797 910 693 989 q 931 686 901 831 l 801 686 q 711 831 779 776 q 526 886 643 886 q 347 838 424 886 q 228 701 269 790 q 186 486 186 611 q 228 272 186 361 q 347 134 269 182 q 526 86 424 86 q 711 140 643 86 q 801 282 779 193 l 931 282 q 797 63 901 142 q 526 -17 693 -17 m 406 -361 l 406 -287 l 533 -287 q 605 -271 582 -287 q 628 -221 628 -254 q 605 -174 628 -190 q 533 -158 582 -158 l 465 -158 l 465 8 l 543 8 l 543 -89 q 636 -102 596 -87 q 699 -147 676 -117 q 722 -222 722 -178 q 701 -297 722 -265 q 641 -344 679 -328 q 554 -361 603 -361 l 406 -361 z "},"Ċ":{"ha":996,"x_min":67,"x_max":931,"o":"m 526 -17 q 281 47 385 -17 q 122 223 178 110 q 67 486 67 336 q 122 749 67 636 q 281 926 178 863 q 526 989 385 989 q 797 910 693 989 q 931 686 901 831 l 801 686 q 711 831 779 776 q 526 886 643 886 q 347 838 424 886 q 228 701 269 790 q 186 486 186 611 q 228 272 186 361 q 347 134 269 182 q 526 86 424 86 q 711 140 643 86 q 801 282 779 193 l 931 282 q 797 63 901 142 q 526 -17 693 -17 m 499 1064 q 450 1085 471 1064 q 429 1133 429 1106 q 450 1182 429 1161 q 499 1203 471 1203 q 547 1182 526 1203 q 568 1133 568 1161 q 547 1085 568 1106 q 499 1064 526 1064 z "},"D":{"ha":956,"x_min":104,"x_max":890,"o":"m 104 0 l 104 972 l 390 972 q 672 913 561 972 q 837 745 783 854 q 890 483 890 636 q 837 225 890 333 q 672 58 783 117 q 390 0 561 0 l 104 0 m 221 97 l 388 97 q 613 144 529 97 q 733 277 697 190 q 769 483 769 364 q 733 693 769 606 q 613 828 697 781 q 388 875 529 875 l 221 875 l 221 97 z "},"Ď":{"ha":956,"x_min":104,"x_max":890,"o":"m 104 0 l 104 972 l 390 972 q 672 913 561 972 q 837 745 783 854 q 890 483 890 636 q 837 225 890 333 q 672 58 783 117 q 390 0 561 0 l 104 0 m 221 97 l 388 97 q 613 144 529 97 q 733 277 697 190 q 769 483 769 364 q 733 693 769 606 q 613 828 697 781 q 388 875 529 875 l 221 875 l 221 97 m 386 1047 l 196 1161 l 196 1251 l 386 1135 l 576 1251 l 576 1161 l 386 1047 z "},"Đ":{"ha":985,"x_min":11,"x_max":919,"o":"m 11 432 l 11 538 l 529 538 l 529 432 l 11 432 m 133 0 l 133 972 l 419 972 q 701 913 590 972 q 866 745 813 854 q 919 483 919 636 q 866 225 919 333 q 701 58 813 117 q 419 0 590 0 l 133 0 m 250 97 l 417 97 q 642 144 558 97 q 763 277 726 190 q 799 483 799 364 q 763 693 799 606 q 642 828 726 781 q 417 875 558 875 l 250 875 l 250 97 z "},"Ð":{"ha":985,"x_min":11,"x_max":919,"o":"m 11 432 l 11 538 l 529 538 l 529 432 l 11 432 m 133 0 l 133 972 l 419 972 q 701 913 590 972 q 866 745 813 854 q 919 483 919 636 q 866 225 919 333 q 701 58 813 117 q 419 0 590 0 l 133 0 m 250 97 l 417 97 q 642 144 558 97 q 763 277 726 190 q 799 483 799 364 q 763 693 799 606 q 642 828 726 781 q 417 875 558 875 l 250 875 l 250 97 z "},"E":{"ha":785,"x_min":104,"x_max":706,"o":"m 104 0 l 104 972 l 706 972 l 706 876 l 221 876 l 221 538 l 664 538 l 664 443 l 221 443 l 221 96 l 706 96 l 706 0 l 104 0 z "},"É":{"ha":785,"x_min":104,"x_max":706,"o":"m 104 0 l 104 972 l 706 972 l 706 876 l 221 876 l 221 538 l 664 538 l 664 443 l 221 443 l 221 96 l 706 96 l 706 0 l 104 0 m 269 1032 l 257 1117 l 536 1293 l 536 1293 l 553 1193 l 269 1032 z "},"Ĕ":{"ha":785,"x_min":104,"x_max":706,"o":"m 104 0 l 104 972 l 706 972 l 706 876 l 221 876 l 221 538 l 664 538 l 664 443 l 221 443 l 221 96 l 706 96 l 706 0 l 104 0 m 406 1051 q 299 1076 342 1051 q 233 1141 256 1100 q 211 1232 211 1182 l 211 1251 l 281 1251 q 310 1172 281 1200 q 406 1143 339 1143 q 501 1172 472 1143 q 531 1251 531 1200 l 601 1251 l 601 1232 q 578 1141 601 1182 q 513 1076 556 1100 q 406 1051 469 1051 z "},"Ě":{"ha":785,"x_min":104,"x_max":706,"o":"m 104 0 l 104 972 l 706 972 l 706 876 l 221 876 l 221 538 l 664 538 l 664 443 l 221 443 l 221 96 l 706 96 l 706 0 l 104 0 m 406 1047 l 215 1161 l 215 1251 l 406 1135 l 596 1251 l 596 1161 l 406 1047 z "},"Ê":{"ha":785,"x_min":104,"x_max":706,"o":"m 104 0 l 104 972 l 706 972 l 706 876 l 221 876 l 221 538 l 664 538 l 664 443 l 221 443 l 221 96 l 706 96 l 706 0 l 104 0 m 215 1049 l 215 1140 l 406 1253 l 596 1140 l 596 1049 l 406 1165 l 215 1049 z "},"Ë":{"ha":785,"x_min":104,"x_max":706,"o":"m 104 0 l 104 972 l 706 972 l 706 876 l 221 876 l 221 538 l 664 538 l 664 443 l 221 443 l 221 96 l 706 96 l 706 0 l 104 0 m 296 1076 q 247 1097 267 1076 q 226 1146 226 1117 q 247 1194 226 1174 q 296 1215 267 1215 q 344 1194 324 1215 q 365 1146 365 1174 q 344 1097 365 1117 q 296 1076 324 1076 m 518 1076 q 469 1097 489 1076 q 449 1146 449 1117 q 469 1194 449 1174 q 518 1215 489 1215 q 566 1194 546 1215 q 586 1146 586 1174 q 566 1097 586 1117 q 518 1076 546 1076 z "},"Ė":{"ha":785,"x_min":104,"x_max":706,"o":"m 104 0 l 104 972 l 706 972 l 706 876 l 221 876 l 221 538 l 664 538 l 664 443 l 221 443 l 221 96 l 706 96 l 706 0 l 104 0 m 406 1064 q 357 1085 378 1064 q 336 1133 336 1106 q 357 1182 336 1161 q 406 1203 378 1203 q 454 1182 433 1203 q 475 1133 475 1161 q 454 1085 475 1106 q 406 1064 433 1064 z "},"È":{"ha":785,"x_min":104,"x_max":706,"o":"m 104 0 l 104 972 l 706 972 l 706 876 l 221 876 l 221 538 l 664 538 l 664 443 l 221 443 l 221 96 l 706 96 l 706 0 l 104 0 m 540 1032 l 257 1193 l 274 1293 l 274 1293 l 553 1117 l 540 1032 z "},"Ē":{"ha":785,"x_min":104,"x_max":706,"o":"m 104 0 l 104 972 l 706 972 l 706 876 l 221 876 l 221 538 l 664 538 l 664 443 l 221 443 l 221 96 l 706 96 l 706 0 l 104 0 m 164 1106 l 164 1193 l 646 1193 l 646 1106 l 164 1106 z "},"Ę":{"ha":785,"x_min":104,"x_max":710,"o":"m 104 0 l 104 972 l 706 972 l 706 876 l 221 876 l 221 538 l 664 538 l 664 443 l 221 443 l 221 96 l 706 96 l 706 0 l 104 0 m 606 -282 q 526 -269 564 -282 q 465 -226 489 -256 q 442 -150 442 -197 q 457 -87 442 -117 q 508 -28 472 -57 q 603 28 543 1 l 676 60 l 706 0 l 625 -39 q 556 -87 576 -62 q 536 -139 536 -112 q 559 -189 536 -171 q 619 -207 582 -207 q 663 -201 639 -207 q 710 -186 688 -196 l 710 -264 q 660 -277 688 -272 q 606 -282 633 -282 z "},"Ẽ":{"ha":785,"x_min":104,"x_max":706,"o":"m 104 0 l 104 972 l 706 972 l 706 876 l 221 876 l 221 538 l 664 538 l 664 443 l 221 443 l 221 96 l 706 96 l 706 0 l 104 0 m 496 1050 q 433 1067 458 1050 q 387 1099 408 1083 q 336 1115 365 1115 q 298 1100 314 1115 q 278 1053 282 1085 l 210 1053 q 255 1158 219 1122 q 342 1193 290 1193 q 403 1177 379 1193 q 450 1144 428 1161 q 501 1128 472 1128 q 541 1144 525 1128 q 561 1190 557 1160 l 629 1190 q 585 1086 621 1122 q 496 1050 549 1050 z "},"Ə":{"ha":1031,"x_min":67,"x_max":965,"o":"m 508 -17 q 326 15 407 -17 q 186 107 244 47 q 97 251 128 167 q 67 440 67 335 q 67 478 67 458 q 69 519 68 497 l 865 519 l 865 421 l 189 421 q 228 242 188 317 q 340 126 268 167 q 510 86 413 86 q 638 109 578 86 q 744 177 699 132 q 815 289 790 222 q 840 444 840 356 l 840 499 q 797 710 840 624 q 680 842 754 796 q 513 888 606 888 q 319 833 399 888 q 208 678 239 778 l 78 678 q 165 841 106 771 q 313 950 225 911 q 513 989 401 989 q 749 926 647 989 q 908 749 851 863 q 965 482 965 635 q 908 220 965 332 q 748 46 850 108 q 508 -17 646 -17 z "},"F":{"ha":743,"x_min":104,"x_max":696,"o":"m 104 0 l 104 972 l 696 972 l 696 876 l 221 876 l 221 535 l 625 535 l 625 440 l 221 440 l 221 0 l 104 0 z "},"G":{"ha":1053,"x_min":67,"x_max":971,"o":"m 522 -17 q 283 47 386 -17 q 124 222 181 110 q 67 485 67 335 q 124 747 67 633 q 288 925 182 861 q 539 989 394 989 q 813 910 703 989 q 953 692 922 832 l 818 692 q 726 831 799 779 q 539 882 654 882 q 352 834 432 882 q 229 697 272 786 q 186 485 186 608 q 229 272 186 361 q 349 135 272 182 q 526 88 426 88 q 761 179 682 88 q 851 428 840 271 l 571 428 l 571 519 l 971 519 l 971 0 l 864 0 l 854 160 l 854 160 q 774 63 819 103 q 668 3 729 24 q 522 -17 607 -17 z "},"Ğ":{"ha":1053,"x_min":67,"x_max":971,"o":"m 522 -17 q 283 47 386 -17 q 124 222 181 110 q 67 485 67 335 q 124 747 67 633 q 288 925 182 861 q 539 989 394 989 q 813 910 703 989 q 953 692 922 832 l 818 692 q 726 831 799 779 q 539 882 654 882 q 352 834 432 882 q 229 697 272 786 q 186 485 186 608 q 229 272 186 361 q 349 135 272 182 q 526 88 426 88 q 761 179 682 88 q 851 428 840 271 l 571 428 l 571 519 l 971 519 l 971 0 l 864 0 l 854 160 l 854 160 q 774 63 819 103 q 668 3 729 24 q 522 -17 607 -17 m 528 1051 q 421 1076 464 1051 q 356 1141 378 1100 q 333 1232 333 1182 l 333 1251 l 403 1251 q 432 1172 403 1200 q 528 1143 461 1143 q 624 1172 594 1143 q 653 1251 653 1200 l 724 1251 l 724 1232 q 701 1141 724 1182 q 635 1076 678 1100 q 528 1051 592 1051 z "},"Ģ":{"ha":1053,"x_min":67,"x_max":971,"o":"m 522 -17 q 283 47 386 -17 q 124 222 181 110 q 67 485 67 335 q 124 747 67 633 q 288 925 182 861 q 539 989 394 989 q 813 910 703 989 q 953 692 922 832 l 818 692 q 726 831 799 779 q 539 882 654 882 q 352 834 432 882 q 229 697 272 786 q 186 485 186 608 q 229 272 186 361 q 349 135 272 182 q 526 88 426 88 q 761 179 682 88 q 851 428 840 271 l 571 428 l 571 519 l 971 519 l 971 0 l 864 0 l 854 160 l 854 160 q 774 63 819 103 q 668 3 729 24 q 522 -17 607 -17 m 461 -331 l 461 -275 q 510 -255 496 -275 q 525 -196 525 -235 l 525 -176 l 463 -176 l 463 -69 l 582 -69 q 592 -124 589 -97 q 594 -172 594 -150 q 560 -293 594 -256 q 461 -331 525 -331 z "},"Ġ":{"ha":1053,"x_min":67,"x_max":971,"o":"m 522 -17 q 283 47 386 -17 q 124 222 181 110 q 67 485 67 335 q 124 747 67 633 q 288 925 182 861 q 539 989 394 989 q 813 910 703 989 q 953 692 922 832 l 818 692 q 726 831 799 779 q 539 882 654 882 q 352 834 432 882 q 229 697 272 786 q 186 485 186 608 q 229 272 186 361 q 349 135 272 182 q 526 88 426 88 q 761 179 682 88 q 851 428 840 271 l 571 428 l 571 519 l 971 519 l 971 0 l 864 0 l 854 160 l 854 160 q 774 63 819 103 q 668 3 729 24 q 522 -17 607 -17 m 528 1064 q 479 1085 500 1064 q 458 1133 458 1106 q 479 1182 458 1161 q 528 1203 500 1203 q 576 1182 556 1203 q 597 1133 597 1161 q 576 1085 597 1106 q 528 1064 556 1064 z "},"H":{"ha":946,"x_min":104,"x_max":842,"o":"m 725 0 l 725 972 l 842 972 l 842 0 l 725 0 m 104 0 l 104 972 l 221 972 l 221 0 l 104 0 m 199 447 l 199 543 l 754 543 l 754 447 l 199 447 z "},"Ħ":{"ha":1040,"x_min":56,"x_max":985,"o":"m 56 688 l 56 793 l 985 793 l 985 688 l 56 688 m 772 0 l 772 972 l 889 972 l 889 0 l 772 0 m 151 0 l 151 972 l 268 972 l 268 0 l 151 0 m 246 447 l 246 543 l 801 543 l 801 447 l 246 447 z "},"I":{"ha":325,"x_min":104,"x_max":221,"o":"m 104 0 l 104 972 l 221 972 l 221 0 l 104 0 z "},"Ĳ":{"ha":965,"x_min":104,"x_max":861,"o":"m 104 0 l 104 972 l 221 972 l 221 0 l 104 0 m 590 -17 q 440 17 503 -17 q 342 113 376 50 q 308 261 308 175 l 426 261 q 442 173 426 213 q 494 110 458 133 q 589 88 529 88 q 681 110 647 88 q 730 170 715 132 q 744 257 744 208 l 744 972 l 861 972 l 861 257 q 790 55 861 126 q 590 -17 718 -17 z "},"Í":{"ha":325,"x_min":14,"x_max":310,"o":"m 104 0 l 104 972 l 221 972 l 221 0 l 104 0 m 26 1032 l 14 1117 l 293 1293 l 293 1293 l 310 1193 l 26 1032 z "},"Ĭ":{"ha":325,"x_min":-32,"x_max":358,"o":"m 104 0 l 104 972 l 221 972 l 221 0 l 104 0 m 163 1051 q 56 1076 99 1051 q -10 1141 13 1100 q -32 1232 -32 1182 l -32 1251 l 38 1251 q 67 1172 38 1200 q 163 1143 96 1143 q 258 1172 229 1143 q 288 1251 288 1200 l 358 1251 l 358 1232 q 335 1141 358 1182 q 269 1076 313 1100 q 163 1051 226 1051 z "},"Î":{"ha":325,"x_min":-28,"x_max":353,"o":"m 104 0 l 104 972 l 221 972 l 221 0 l 104 0 m -28 1049 l -28 1140 l 163 1253 l 353 1140 l 353 1049 l 163 1165 l -28 1049 z "},"Ï":{"ha":325,"x_min":-17,"x_max":343,"o":"m 104 0 l 104 972 l 221 972 l 221 0 l 104 0 m 53 1076 q 3 1097 24 1076 q -17 1146 -17 1117 q 3 1194 -17 1174 q 53 1215 24 1215 q 101 1194 81 1215 q 122 1146 122 1174 q 101 1097 122 1117 q 53 1076 81 1076 m 275 1076 q 226 1097 246 1076 q 206 1146 206 1117 q 226 1194 206 1174 q 275 1215 246 1215 q 323 1194 303 1215 q 343 1146 343 1174 q 323 1097 343 1117 q 275 1076 303 1076 z "},"İ":{"ha":325,"x_min":93,"x_max":232,"o":"m 104 0 l 104 972 l 221 972 l 221 0 l 104 0 m 163 1064 q 114 1085 135 1064 q 93 1133 93 1106 q 114 1182 93 1161 q 163 1203 135 1203 q 211 1182 190 1203 q 232 1133 232 1161 q 211 1085 232 1106 q 163 1064 190 1064 z "},"Ì":{"ha":325,"x_min":14,"x_max":310,"o":"m 104 0 l 104 972 l 221 972 l 221 0 l 104 0 m 297 1032 l 14 1193 l 31 1293 l 31 1293 l 310 1117 l 297 1032 z "},"Ī":{"ha":325,"x_min":-79,"x_max":403,"o":"m 104 0 l 104 972 l 221 972 l 221 0 l 104 0 m -79 1106 l -79 1193 l 403 1193 l 403 1106 l -79 1106 z "},"Į":{"ha":325,"x_min":-43,"x_max":225,"o":"m 104 0 l 104 972 l 221 972 l 221 0 l 104 0 m 121 -281 q 42 -267 79 -281 q -19 -225 4 -254 q -43 -149 -43 -196 q -28 -85 -43 -115 q 23 -26 -12 -56 q 118 29 58 3 l 192 61 l 221 1 l 140 -37 q 72 -86 92 -61 q 51 -137 51 -111 q 74 -187 51 -169 q 135 -206 97 -206 q 178 -200 154 -206 q 225 -185 203 -194 l 225 -262 q 176 -276 203 -271 q 121 -281 149 -281 z "},"Ĩ":{"ha":325,"x_min":-33,"x_max":386,"o":"m 104 0 l 104 972 l 221 972 l 221 0 l 104 0 m 253 1050 q 190 1067 215 1050 q 144 1099 165 1083 q 93 1115 122 1115 q 55 1100 71 1115 q 35 1053 39 1085 l -33 1053 q 12 1158 -24 1122 q 99 1193 47 1193 q 160 1177 136 1193 q 207 1144 185 1161 q 258 1128 229 1128 q 298 1144 282 1128 q 318 1190 314 1160 l 386 1190 q 342 1086 378 1122 q 253 1050 306 1050 z "},"J":{"ha":696,"x_min":39,"x_max":592,"o":"m 321 -17 q 170 17 233 -17 q 73 113 107 50 q 39 261 39 175 l 157 261 q 173 173 157 213 q 224 110 189 133 q 319 88 260 88 q 412 110 378 88 q 460 170 446 132 q 475 257 475 208 l 475 972 l 592 972 l 592 257 q 520 55 592 126 q 321 -17 449 -17 z "},"K":{"ha":811,"x_min":104,"x_max":779,"o":"m 104 0 l 104 972 l 221 972 l 221 532 l 626 972 l 774 972 l 413 585 l 779 0 l 638 0 l 329 494 l 221 379 l 221 0 l 104 0 z "},"Ķ":{"ha":811,"x_min":104,"x_max":779,"o":"m 104 0 l 104 972 l 221 972 l 221 532 l 626 972 l 774 972 l 413 585 l 779 0 l 638 0 l 329 494 l 221 379 l 221 0 l 104 0 m 342 -331 l 342 -275 q 391 -255 376 -275 q 406 -196 406 -235 l 406 -176 l 343 -176 l 343 -69 l 463 -69 q 472 -124 469 -97 q 475 -172 475 -150 q 440 -293 475 -256 q 342 -331 406 -331 z "},"L":{"ha":732,"x_min":104,"x_max":674,"o":"m 104 0 l 104 972 l 221 972 l 221 93 l 674 93 l 674 0 l 104 0 z "},"Ĺ":{"ha":732,"x_min":22,"x_max":674,"o":"m 104 0 l 104 972 l 221 972 l 221 93 l 674 93 l 674 0 l 104 0 m 35 1032 l 22 1117 l 301 1293 l 301 1293 l 318 1193 l 35 1032 z "},"Ľ":{"ha":732,"x_min":104,"x_max":674,"o":"m 104 0 l 104 972 l 221 972 l 221 93 l 674 93 l 674 0 l 104 0 m 376 743 l 376 799 q 428 812 413 799 q 443 851 443 825 l 443 881 l 376 881 l 376 996 l 499 996 q 510 933 506 960 q 514 879 514 907 q 478 775 514 807 q 376 743 442 743 z "},"Ļ":{"ha":732,"x_min":104,"x_max":674,"o":"m 104 0 l 104 972 l 221 972 l 221 93 l 674 93 l 674 0 l 104 0 m 346 -331 l 346 -275 q 395 -255 381 -275 q 410 -196 410 -235 l 410 -176 l 347 -176 l 347 -69 l 467 -69 q 476 -124 474 -97 q 479 -172 479 -150 q 444 -293 479 -256 q 346 -331 410 -331 z "},"Ŀ":{"ha":732,"x_min":104,"x_max":674,"o":"m 104 0 l 104 972 l 221 972 l 221 93 l 674 93 l 674 0 l 104 0 m 499 407 q 441 430 464 407 q 418 486 418 453 q 441 543 418 521 q 499 565 464 565 q 556 543 533 565 q 578 486 578 521 q 556 430 578 453 q 499 407 533 407 z "},"Ł":{"ha":768,"x_min":28,"x_max":710,"o":"m 28 394 l 28 488 l 425 638 l 425 544 l 28 394 m 140 0 l 140 972 l 257 972 l 257 93 l 710 93 l 710 0 l 140 0 z "},"M":{"ha":1169,"x_min":104,"x_max":1065,"o":"m 104 0 l 104 972 l 240 972 l 585 293 l 585 293 l 928 972 l 1065 972 l 1065 0 l 949 0 l 949 764 l 949 764 l 628 136 l 540 136 l 221 761 l 221 761 l 221 0 l 104 0 z "},"N":{"ha":960,"x_min":104,"x_max":856,"o":"m 104 0 l 104 972 l 221 972 l 739 193 l 739 193 l 739 972 l 856 972 l 856 0 l 739 0 l 221 779 l 221 779 l 221 0 l 104 0 z "},"Ń":{"ha":960,"x_min":104,"x_max":856,"o":"m 104 0 l 104 972 l 221 972 l 739 193 l 739 193 l 739 972 l 856 972 l 856 0 l 739 0 l 221 779 l 221 779 l 221 0 l 104 0 m 344 1032 l 332 1117 l 611 1293 l 611 1293 l 628 1193 l 344 1032 z "},"Ň":{"ha":960,"x_min":104,"x_max":856,"o":"m 104 0 l 104 972 l 221 972 l 739 193 l 739 193 l 739 972 l 856 972 l 856 0 l 739 0 l 221 779 l 221 779 l 221 0 l 104 0 m 481 1047 l 290 1161 l 290 1251 l 481 1135 l 671 1251 l 671 1161 l 481 1047 z "},"Ņ":{"ha":960,"x_min":104,"x_max":856,"o":"m 104 0 l 104 972 l 221 972 l 739 193 l 739 193 l 739 972 l 856 972 l 856 0 l 739 0 l 221 779 l 221 779 l 221 0 l 104 0 m 414 -331 l 414 -275 q 463 -255 449 -275 q 478 -196 478 -235 l 478 -176 l 415 -176 l 415 -69 l 535 -69 q 544 -124 542 -97 q 547 -172 547 -150 q 513 -293 547 -256 q 414 -331 478 -331 z "},"Ñ":{"ha":960,"x_min":104,"x_max":856,"o":"m 104 0 l 104 972 l 221 972 l 739 193 l 739 193 l 739 972 l 856 972 l 856 0 l 739 0 l 221 779 l 221 779 l 221 0 l 104 0 m 571 1050 q 508 1067 533 1050 q 462 1099 483 1083 q 411 1115 440 1115 q 373 1100 389 1115 q 353 1053 357 1085 l 285 1053 q 330 1158 294 1122 q 417 1193 365 1193 q 478 1177 454 1193 q 525 1144 503 1161 q 576 1128 547 1128 q 616 1144 600 1128 q 636 1190 632 1160 l 704 1190 q 660 1086 696 1122 q 571 1050 624 1050 z "},"Ŋ":{"ha":960,"x_min":104,"x_max":856,"o":"m 104 0 l 104 972 l 221 972 l 739 193 l 739 193 l 739 972 l 856 972 l 856 -114 q 833 -223 856 -181 q 767 -285 811 -265 q 660 -306 724 -306 l 588 -306 l 588 -206 l 642 -206 q 717 -184 694 -206 q 739 -111 739 -162 l 739 0 l 221 779 l 221 779 l 221 0 l 104 0 z "},"O":{"ha":1076,"x_min":67,"x_max":1010,"o":"m 538 -17 q 291 47 397 -17 q 126 223 185 110 q 67 486 67 336 q 126 748 67 635 q 291 925 185 861 q 538 989 397 989 q 787 925 681 989 q 951 748 893 861 q 1010 486 1010 635 q 951 223 1010 336 q 787 47 893 110 q 538 -17 681 -17 m 538 86 q 723 134 643 86 q 847 272 803 182 q 890 486 890 361 q 847 701 890 611 q 723 838 803 790 q 538 885 643 885 q 353 838 433 885 q 230 701 274 790 q 186 486 186 611 q 230 272 186 361 q 353 134 274 182 q 538 86 433 86 z "},"Ó":{"ha":1076,"x_min":67,"x_max":1010,"o":"m 538 -17 q 291 47 397 -17 q 126 223 185 110 q 67 486 67 336 q 126 748 67 635 q 291 925 185 861 q 538 989 397 989 q 787 925 681 989 q 951 748 893 861 q 1010 486 1010 635 q 951 223 1010 336 q 787 47 893 110 q 538 -17 681 -17 m 538 86 q 723 134 643 86 q 847 272 803 182 q 890 486 890 361 q 847 701 890 611 q 723 838 803 790 q 538 885 643 885 q 353 838 433 885 q 230 701 274 790 q 186 486 186 611 q 230 272 186 361 q 353 134 274 182 q 538 86 433 86 m 403 1032 l 390 1117 l 669 1293 l 669 1293 l 686 1193 l 403 1032 z "},"Ŏ":{"ha":1076,"x_min":67,"x_max":1010,"o":"m 538 -17 q 291 47 397 -17 q 126 223 185 110 q 67 486 67 336 q 126 748 67 635 q 291 925 185 861 q 538 989 397 989 q 787 925 681 989 q 951 748 893 861 q 1010 486 1010 635 q 951 223 1010 336 q 787 47 893 110 q 538 -17 681 -17 m 538 86 q 723 134 643 86 q 847 272 803 182 q 890 486 890 361 q 847 701 890 611 q 723 838 803 790 q 538 885 643 885 q 353 838 433 885 q 230 701 274 790 q 186 486 186 611 q 230 272 186 361 q 353 134 274 182 q 538 86 433 86 m 538 1051 q 431 1076 474 1051 q 365 1141 388 1100 q 343 1232 343 1182 l 343 1251 l 413 1251 q 442 1172 413 1200 q 538 1143 471 1143 q 633 1172 604 1143 q 663 1251 663 1200 l 733 1251 l 733 1232 q 710 1141 733 1182 q 644 1076 688 1100 q 538 1051 601 1051 z "},"Ô":{"ha":1076,"x_min":67,"x_max":1010,"o":"m 538 -17 q 291 47 397 -17 q 126 223 185 110 q 67 486 67 336 q 126 748 67 635 q 291 925 185 861 q 538 989 397 989 q 787 925 681 989 q 951 748 893 861 q 1010 486 1010 635 q 951 223 1010 336 q 787 47 893 110 q 538 -17 681 -17 m 538 86 q 723 134 643 86 q 847 272 803 182 q 890 486 890 361 q 847 701 890 611 q 723 838 803 790 q 538 885 643 885 q 353 838 433 885 q 230 701 274 790 q 186 486 186 611 q 230 272 186 361 q 353 134 274 182 q 538 86 433 86 m 347 1049 l 347 1140 l 538 1253 l 728 1140 l 728 1049 l 538 1165 l 347 1049 z "},"Ö":{"ha":1076,"x_min":67,"x_max":1010,"o":"m 538 -17 q 291 47 397 -17 q 126 223 185 110 q 67 486 67 336 q 126 748 67 635 q 291 925 185 861 q 538 989 397 989 q 787 925 681 989 q 951 748 893 861 q 1010 486 1010 635 q 951 223 1010 336 q 787 47 893 110 q 538 -17 681 -17 m 538 86 q 723 134 643 86 q 847 272 803 182 q 890 486 890 361 q 847 701 890 611 q 723 838 803 790 q 538 885 643 885 q 353 838 433 885 q 230 701 274 790 q 186 486 186 611 q 230 272 186 361 q 353 134 274 182 q 538 86 433 86 m 428 1076 q 378 1097 399 1076 q 358 1146 358 1117 q 378 1194 358 1174 q 428 1215 399 1215 q 476 1194 456 1215 q 497 1146 497 1174 q 476 1097 497 1117 q 428 1076 456 1076 m 650 1076 q 601 1097 621 1076 q 581 1146 581 1117 q 601 1194 581 1174 q 650 1215 621 1215 q 698 1194 678 1215 q 718 1146 718 1174 q 698 1097 718 1117 q 650 1076 678 1076 z "},"Ò":{"ha":1076,"x_min":67,"x_max":1010,"o":"m 538 -17 q 291 47 397 -17 q 126 223 185 110 q 67 486 67 336 q 126 748 67 635 q 291 925 185 861 q 538 989 397 989 q 787 925 681 989 q 951 748 893 861 q 1010 486 1010 635 q 951 223 1010 336 q 787 47 893 110 q 538 -17 681 -17 m 538 86 q 723 134 643 86 q 847 272 803 182 q 890 486 890 361 q 847 701 890 611 q 723 838 803 790 q 538 885 643 885 q 353 838 433 885 q 230 701 274 790 q 186 486 186 611 q 230 272 186 361 q 353 134 274 182 q 538 86 433 86 m 674 1032 l 390 1193 l 407 1293 l 407 1293 l 686 1117 l 674 1032 z "},"Ő":{"ha":1076,"x_min":67,"x_max":1010,"o":"m 538 -17 q 291 47 397 -17 q 126 223 185 110 q 67 486 67 336 q 126 748 67 635 q 291 925 185 861 q 538 989 397 989 q 787 925 681 989 q 951 748 893 861 q 1010 486 1010 635 q 951 223 1010 336 q 787 47 893 110 q 538 -17 681 -17 m 538 86 q 723 134 643 86 q 847 272 803 182 q 890 486 890 361 q 847 701 890 611 q 723 838 803 790 q 538 885 643 885 q 353 838 433 885 q 230 701 274 790 q 186 486 186 611 q 230 272 186 361 q 353 134 274 182 q 538 86 433 86 m 588 1046 l 688 1253 l 789 1253 l 665 1046 l 588 1046 m 385 1046 l 476 1253 l 578 1253 l 464 1046 l 385 1046 z "},"Ō":{"ha":1076,"x_min":67,"x_max":1010,"o":"m 538 -17 q 291 47 397 -17 q 126 223 185 110 q 67 486 67 336 q 126 748 67 635 q 291 925 185 861 q 538 989 397 989 q 787 925 681 989 q 951 748 893 861 q 1010 486 1010 635 q 951 223 1010 336 q 787 47 893 110 q 538 -17 681 -17 m 538 86 q 723 134 643 86 q 847 272 803 182 q 890 486 890 361 q 847 701 890 611 q 723 838 803 790 q 538 885 643 885 q 353 838 433 885 q 230 701 274 790 q 186 486 186 611 q 230 272 186 361 q 353 134 274 182 q 538 86 433 86 m 296 1106 l 296 1193 l 778 1193 l 778 1106 l 296 1106 z "},"Ø":{"ha":1078,"x_min":47,"x_max":1031,"o":"m 47 0 l 907 972 l 1031 972 l 172 0 l 47 0 m 538 -17 q 291 47 397 -17 q 126 223 185 110 q 67 486 67 336 q 126 748 67 635 q 291 925 185 861 q 538 989 397 989 q 787 925 681 989 q 951 748 893 861 q 1010 486 1010 635 q 951 223 1010 336 q 787 47 893 110 q 538 -17 681 -17 m 538 86 q 723 134 643 86 q 847 272 803 182 q 890 486 890 361 q 847 701 890 611 q 723 838 803 790 q 538 885 643 885 q 353 838 433 885 q 230 701 274 790 q 186 486 186 611 q 230 272 186 361 q 353 134 274 182 q 538 86 433 86 z "},"Õ":{"ha":1076,"x_min":67,"x_max":1010,"o":"m 538 -17 q 291 47 397 -17 q 126 223 185 110 q 67 486 67 336 q 126 748 67 635 q 291 925 185 861 q 538 989 397 989 q 787 925 681 989 q 951 748 893 861 q 1010 486 1010 635 q 951 223 1010 336 q 787 47 893 110 q 538 -17 681 -17 m 538 86 q 723 134 643 86 q 847 272 803 182 q 890 486 890 361 q 847 701 890 611 q 723 838 803 790 q 538 885 643 885 q 353 838 433 885 q 230 701 274 790 q 186 486 186 611 q 230 272 186 361 q 353 134 274 182 q 538 86 433 86 m 628 1050 q 565 1067 590 1050 q 519 1099 540 1083 q 468 1115 497 1115 q 430 1100 446 1115 q 410 1053 414 1085 l 342 1053 q 387 1158 351 1122 q 474 1193 422 1193 q 535 1177 511 1193 q 582 1144 560 1161 q 633 1128 604 1128 q 673 1144 657 1128 q 693 1190 689 1160 l 761 1190 q 717 1086 753 1122 q 628 1050 681 1050 z "},"Œ":{"ha":1547,"x_min":67,"x_max":1468,"o":"m 539 -17 q 351 19 438 -17 q 201 123 265 56 q 101 282 136 190 q 67 486 67 374 q 101 690 67 597 q 201 849 136 782 q 351 952 265 915 q 539 989 438 989 q 744 943 650 989 q 899 810 838 897 l 899 972 l 1468 972 l 1468 876 l 1015 876 l 1015 538 l 1426 538 l 1426 443 l 1015 443 l 1015 96 l 1468 96 l 1468 0 l 899 0 l 899 161 q 802 65 858 104 q 680 4 746 25 q 539 -17 614 -17 m 542 86 q 722 134 642 86 q 850 272 803 182 q 897 486 897 361 q 850 701 897 611 q 722 838 803 790 q 542 885 642 885 q 361 838 442 885 q 233 701 281 790 q 186 486 186 611 q 233 272 186 361 q 361 134 281 182 q 542 86 442 86 z "},"P":{"ha":806,"x_min":104,"x_max":756,"o":"m 104 0 l 104 972 l 422 972 q 610 934 536 972 q 720 832 685 896 q 756 686 756 768 q 720 542 756 607 q 611 440 685 478 q 422 401 538 401 l 221 401 l 221 0 l 104 0 m 221 500 l 419 500 q 586 551 536 500 q 636 686 636 601 q 586 826 636 776 q 419 875 536 875 l 221 875 l 221 500 z "},"Þ":{"ha":806,"x_min":104,"x_max":756,"o":"m 104 0 l 104 972 l 221 972 l 221 769 l 424 769 q 611 733 538 769 q 720 632 685 696 q 756 486 756 568 q 721 343 756 407 q 613 242 686 279 q 424 204 539 204 l 221 204 l 221 0 l 104 0 m 221 301 l 421 301 q 586 351 536 301 q 636 486 636 401 q 586 624 636 575 q 421 672 536 672 l 221 672 l 221 301 z "},"Q":{"ha":1076,"x_min":67,"x_max":1010,"o":"m 796 -132 l 469 379 l 604 379 l 931 -132 l 796 -132 m 538 -17 q 291 47 397 -17 q 126 223 185 110 q 67 486 67 336 q 126 748 67 635 q 291 925 185 861 q 538 989 397 989 q 787 925 681 989 q 951 748 893 861 q 1010 486 1010 635 q 951 223 1010 336 q 787 47 893 110 q 538 -17 681 -17 m 538 86 q 723 134 643 86 q 847 272 803 182 q 890 486 890 361 q 847 701 890 611 q 723 838 803 790 q 538 885 643 885 q 353 838 433 885 q 230 701 274 790 q 186 486 186 611 q 230 272 186 361 q 353 134 274 182 q 538 86 433 86 z "},"R":{"ha":825,"x_min":104,"x_max":756,"o":"m 104 0 l 104 972 l 418 972 q 604 934 532 972 q 711 832 676 896 q 746 688 746 768 q 710 544 746 610 q 601 440 675 479 q 413 401 528 401 l 221 401 l 221 0 l 104 0 m 618 0 l 404 435 l 535 435 l 756 0 l 618 0 m 221 493 l 410 493 q 573 547 521 493 q 625 686 625 601 q 574 823 625 772 q 408 874 524 874 l 221 874 l 221 493 z "},"Ŕ":{"ha":825,"x_min":104,"x_max":756,"o":"m 104 0 l 104 972 l 418 972 q 604 934 532 972 q 711 832 676 896 q 746 688 746 768 q 710 544 746 610 q 601 440 675 479 q 413 401 528 401 l 221 401 l 221 0 l 104 0 m 618 0 l 404 435 l 535 435 l 756 0 l 618 0 m 221 493 l 410 493 q 573 547 521 493 q 625 686 625 601 q 574 823 625 772 q 408 874 524 874 l 221 874 l 221 493 m 268 1032 l 256 1117 l 535 1293 l 535 1293 l 551 1193 l 268 1032 z "},"Ř":{"ha":825,"x_min":104,"x_max":756,"o":"m 104 0 l 104 972 l 418 972 q 604 934 532 972 q 711 832 676 896 q 746 688 746 768 q 710 544 746 610 q 601 440 675 479 q 413 401 528 401 l 221 401 l 221 0 l 104 0 m 618 0 l 404 435 l 535 435 l 756 0 l 618 0 m 221 493 l 410 493 q 573 547 521 493 q 625 686 625 601 q 574 823 625 772 q 408 874 524 874 l 221 874 l 221 493 m 403 1047 l 213 1161 l 213 1251 l 403 1135 l 593 1251 l 593 1161 l 403 1047 z "},"Ŗ":{"ha":825,"x_min":104,"x_max":756,"o":"m 104 0 l 104 972 l 418 972 q 604 934 532 972 q 711 832 676 896 q 746 688 746 768 q 710 544 746 610 q 601 440 675 479 q 413 401 528 401 l 221 401 l 221 0 l 104 0 m 618 0 l 404 435 l 535 435 l 756 0 l 618 0 m 221 493 l 410 493 q 573 547 521 493 q 625 686 625 601 q 574 823 625 772 q 408 874 524 874 l 221 874 l 221 493 m 336 -331 l 336 -275 q 385 -255 371 -275 q 400 -196 400 -235 l 400 -176 l 338 -176 l 338 -69 l 457 -69 q 467 -124 464 -97 q 469 -172 469 -150 q 435 -293 469 -256 q 336 -331 400 -331 z "},"S":{"ha":806,"x_min":63,"x_max":742,"o":"m 414 -17 q 228 22 307 -17 q 106 131 149 61 q 63 292 63 200 l 185 292 q 211 187 185 235 q 288 110 238 139 q 414 82 339 82 q 526 103 479 82 q 597 163 572 125 q 621 247 621 200 q 597 340 621 304 q 531 397 572 375 q 434 437 489 419 q 319 475 379 454 q 150 572 204 514 q 96 722 96 629 q 133 861 96 801 q 238 955 169 921 q 401 989 307 989 q 563 954 494 989 q 671 859 632 919 q 710 719 710 799 l 588 719 q 567 799 588 760 q 503 863 546 838 q 397 889 461 889 q 303 872 344 890 q 240 818 263 853 q 217 733 217 783 q 237 657 217 686 q 295 608 257 628 q 385 571 333 588 q 499 533 436 554 q 624 476 569 510 q 710 389 679 442 q 742 254 742 336 q 705 123 742 185 q 596 22 668 61 q 414 -17 524 -17 z "},"Ś":{"ha":806,"x_min":63,"x_max":742,"o":"m 414 -17 q 228 22 307 -17 q 106 131 149 61 q 63 292 63 200 l 185 292 q 211 187 185 235 q 288 110 238 139 q 414 82 339 82 q 526 103 479 82 q 597 163 572 125 q 621 247 621 200 q 597 340 621 304 q 531 397 572 375 q 434 437 489 419 q 319 475 379 454 q 150 572 204 514 q 96 722 96 629 q 133 861 96 801 q 238 955 169 921 q 401 989 307 989 q 563 954 494 989 q 671 859 632 919 q 710 719 710 799 l 588 719 q 567 799 588 760 q 503 863 546 838 q 397 889 461 889 q 303 872 344 890 q 240 818 263 853 q 217 733 217 783 q 237 657 217 686 q 295 608 257 628 q 385 571 333 588 q 499 533 436 554 q 624 476 569 510 q 710 389 679 442 q 742 254 742 336 q 705 123 742 185 q 596 22 668 61 q 414 -17 524 -17 m 264 1032 l 251 1117 l 531 1293 l 531 1293 l 547 1193 l 264 1032 z "},"Š":{"ha":806,"x_min":63,"x_max":742,"o":"m 414 -17 q 228 22 307 -17 q 106 131 149 61 q 63 292 63 200 l 185 292 q 211 187 185 235 q 288 110 238 139 q 414 82 339 82 q 526 103 479 82 q 597 163 572 125 q 621 247 621 200 q 597 340 621 304 q 531 397 572 375 q 434 437 489 419 q 319 475 379 454 q 150 572 204 514 q 96 722 96 629 q 133 861 96 801 q 238 955 169 921 q 401 989 307 989 q 563 954 494 989 q 671 859 632 919 q 710 719 710 799 l 588 719 q 567 799 588 760 q 503 863 546 838 q 397 889 461 889 q 303 872 344 890 q 240 818 263 853 q 217 733 217 783 q 237 657 217 686 q 295 608 257 628 q 385 571 333 588 q 499 533 436 554 q 624 476 569 510 q 710 389 679 442 q 742 254 742 336 q 705 123 742 185 q 596 22 668 61 q 414 -17 524 -17 m 400 1047 l 210 1161 l 210 1251 l 400 1135 l 590 1251 l 590 1161 l 400 1047 z "},"Ş":{"ha":806,"x_min":63,"x_max":742,"o":"m 414 -17 q 228 22 307 -17 q 106 131 149 61 q 63 292 63 200 l 185 292 q 211 187 185 235 q 288 110 238 139 q 414 82 339 82 q 526 103 479 82 q 597 163 572 125 q 621 247 621 200 q 597 340 621 304 q 531 397 572 375 q 434 437 489 419 q 319 475 379 454 q 150 572 204 514 q 96 722 96 629 q 133 861 96 801 q 238 955 169 921 q 401 989 307 989 q 563 954 494 989 q 671 859 632 919 q 710 719 710 799 l 588 719 q 567 799 588 760 q 503 863 546 838 q 397 889 461 889 q 303 872 344 890 q 240 818 263 853 q 217 733 217 783 q 237 657 217 686 q 295 608 257 628 q 385 571 333 588 q 499 533 436 554 q 624 476 569 510 q 710 389 679 442 q 742 254 742 336 q 705 123 742 185 q 596 22 668 61 q 414 -17 524 -17 m 318 -361 l 318 -287 l 446 -287 q 517 -271 494 -287 q 540 -221 540 -254 q 517 -174 540 -190 q 446 -158 494 -158 l 378 -158 l 378 8 l 456 8 l 456 -89 q 549 -102 508 -87 q 612 -147 589 -117 q 635 -222 635 -178 q 613 -297 635 -265 q 553 -344 592 -328 q 467 -361 515 -361 l 318 -361 z "},"Ș":{"ha":806,"x_min":63,"x_max":742,"o":"m 414 -17 q 228 22 307 -17 q 106 131 149 61 q 63 292 63 200 l 185 292 q 211 187 185 235 q 288 110 238 139 q 414 82 339 82 q 526 103 479 82 q 597 163 572 125 q 621 247 621 200 q 597 340 621 304 q 531 397 572 375 q 434 437 489 419 q 319 475 379 454 q 150 572 204 514 q 96 722 96 629 q 133 861 96 801 q 238 955 169 921 q 401 989 307 989 q 563 954 494 989 q 671 859 632 919 q 710 719 710 799 l 588 719 q 567 799 588 760 q 503 863 546 838 q 397 889 461 889 q 303 872 344 890 q 240 818 263 853 q 217 733 217 783 q 237 657 217 686 q 295 608 257 628 q 385 571 333 588 q 499 533 436 554 q 624 476 569 510 q 710 389 679 442 q 742 254 742 336 q 705 123 742 185 q 596 22 668 61 q 414 -17 524 -17 m 344 -331 l 344 -275 q 394 -255 379 -275 q 408 -196 408 -235 l 408 -176 l 346 -176 l 346 -69 l 465 -69 q 475 -124 472 -97 q 478 -172 478 -150 q 443 -293 478 -256 q 344 -331 408 -331 z "},"ẞ":{"ha":942,"x_min":104,"x_max":878,"o":"m 589 -7 q 375 68 449 -7 q 301 289 301 143 l 417 289 q 456 147 417 204 q 589 90 496 90 q 692 118 654 90 q 747 192 731 146 q 764 290 764 238 q 706 455 764 397 q 547 513 649 513 l 388 513 l 388 594 l 668 874 l 319 874 q 244 851 267 874 q 221 776 221 829 l 221 0 l 104 0 l 104 781 q 126 890 104 847 q 192 952 149 932 q 300 972 236 972 l 813 972 l 813 883 l 526 601 l 553 601 q 727 566 654 601 q 839 463 800 531 q 878 299 878 394 q 843 137 878 206 q 744 31 808 68 q 589 -7 679 -7 z "},"T":{"ha":779,"x_min":42,"x_max":739,"o":"m 332 0 l 332 876 l 42 876 l 42 972 l 739 972 l 739 876 l 449 876 l 449 0 l 332 0 z "},"Ť":{"ha":779,"x_min":42,"x_max":739,"o":"m 332 0 l 332 876 l 42 876 l 42 972 l 739 972 l 739 876 l 449 876 l 449 0 l 332 0 m 390 1047 l 200 1161 l 200 1251 l 390 1135 l 581 1251 l 581 1161 l 390 1047 z "},"Ţ":{"ha":779,"x_min":42,"x_max":739,"o":"m 332 0 l 332 876 l 42 876 l 42 972 l 739 972 l 739 876 l 449 876 l 449 0 l 332 0 m 294 -361 l 294 -287 l 422 -287 q 494 -271 471 -287 q 517 -221 517 -254 q 494 -174 517 -190 q 422 -158 471 -158 l 354 -158 l 354 8 l 432 8 l 432 -89 q 525 -102 485 -87 q 588 -147 565 -117 q 611 -222 611 -178 q 590 -297 611 -265 q 531 -344 568 -328 q 444 -361 493 -361 l 294 -361 z "},"Ț":{"ha":779,"x_min":42,"x_max":739,"o":"m 332 0 l 332 876 l 42 876 l 42 972 l 739 972 l 739 876 l 449 876 l 449 0 l 332 0 m 321 -331 l 321 -275 q 370 -255 356 -275 q 385 -196 385 -235 l 385 -176 l 322 -176 l 322 -69 l 442 -69 q 451 -124 449 -97 q 454 -172 454 -150 q 419 -293 454 -256 q 321 -331 385 -331 z "},"U":{"ha":911,"x_min":94,"x_max":817,"o":"m 454 -17 q 273 24 354 -17 q 143 147 192 64 q 94 358 94 229 l 94 972 l 211 972 l 211 357 q 242 203 211 263 q 329 115 274 143 q 457 88 385 88 q 585 115 531 88 q 669 203 639 143 q 700 357 700 263 l 700 972 l 817 972 l 817 358 q 768 147 817 229 q 638 24 719 64 q 454 -17 556 -17 z "},"Ú":{"ha":911,"x_min":94,"x_max":817,"o":"m 454 -17 q 273 24 354 -17 q 143 147 192 64 q 94 358 94 229 l 94 972 l 211 972 l 211 357 q 242 203 211 263 q 329 115 274 143 q 457 88 385 88 q 585 115 531 88 q 669 203 639 143 q 700 357 700 263 l 700 972 l 817 972 l 817 358 q 768 147 817 229 q 638 24 719 64 q 454 -17 556 -17 m 318 1032 l 306 1117 l 585 1293 l 585 1293 l 601 1193 l 318 1032 z "},"Ŭ":{"ha":911,"x_min":94,"x_max":817,"o":"m 454 -17 q 273 24 354 -17 q 143 147 192 64 q 94 358 94 229 l 94 972 l 211 972 l 211 357 q 242 203 211 263 q 329 115 274 143 q 457 88 385 88 q 585 115 531 88 q 669 203 639 143 q 700 357 700 263 l 700 972 l 817 972 l 817 358 q 768 147 817 229 q 638 24 719 64 q 454 -17 556 -17 m 454 1051 q 347 1076 390 1051 q 282 1141 304 1100 q 260 1232 260 1182 l 260 1251 l 329 1251 q 358 1172 329 1200 q 454 1143 388 1143 q 550 1172 521 1143 q 579 1251 579 1200 l 650 1251 l 650 1232 q 627 1141 650 1182 q 561 1076 604 1100 q 454 1051 518 1051 z "},"Û":{"ha":911,"x_min":94,"x_max":817,"o":"m 454 -17 q 273 24 354 -17 q 143 147 192 64 q 94 358 94 229 l 94 972 l 211 972 l 211 357 q 242 203 211 263 q 329 115 274 143 q 457 88 385 88 q 585 115 531 88 q 669 203 639 143 q 700 357 700 263 l 700 972 l 817 972 l 817 358 q 768 147 817 229 q 638 24 719 64 q 454 -17 556 -17 m 264 1049 l 264 1140 l 454 1253 l 644 1140 l 644 1049 l 454 1165 l 264 1049 z "},"Ü":{"ha":911,"x_min":94,"x_max":817,"o":"m 454 -17 q 273 24 354 -17 q 143 147 192 64 q 94 358 94 229 l 94 972 l 211 972 l 211 357 q 242 203 211 263 q 329 115 274 143 q 457 88 385 88 q 585 115 531 88 q 669 203 639 143 q 700 357 700 263 l 700 972 l 817 972 l 817 358 q 768 147 817 229 q 638 24 719 64 q 454 -17 556 -17 m 344 1076 q 295 1097 315 1076 q 275 1146 275 1117 q 295 1194 275 1174 q 344 1215 315 1215 q 393 1194 372 1215 q 414 1146 414 1174 q 393 1097 414 1117 q 344 1076 372 1076 m 567 1076 q 517 1097 538 1076 q 497 1146 497 1117 q 517 1194 497 1174 q 567 1215 538 1215 q 615 1194 594 1215 q 635 1146 635 1174 q 615 1097 635 1117 q 567 1076 594 1076 z "},"Ù":{"ha":911,"x_min":94,"x_max":817,"o":"m 454 -17 q 273 24 354 -17 q 143 147 192 64 q 94 358 94 229 l 94 972 l 211 972 l 211 357 q 242 203 211 263 q 329 115 274 143 q 457 88 385 88 q 585 115 531 88 q 669 203 639 143 q 700 357 700 263 l 700 972 l 817 972 l 817 358 q 768 147 817 229 q 638 24 719 64 q 454 -17 556 -17 m 589 1032 l 306 1193 l 322 1293 l 322 1293 l 601 1117 l 589 1032 z "},"Ű":{"ha":911,"x_min":94,"x_max":817,"o":"m 454 -17 q 273 24 354 -17 q 143 147 192 64 q 94 358 94 229 l 94 972 l 211 972 l 211 357 q 242 203 211 263 q 329 115 274 143 q 457 88 385 88 q 585 115 531 88 q 669 203 639 143 q 700 357 700 263 l 700 972 l 817 972 l 817 358 q 768 147 817 229 q 638 24 719 64 q 454 -17 556 -17 m 504 1046 l 604 1253 l 706 1253 l 582 1046 l 504 1046 m 301 1046 l 393 1253 l 494 1253 l 381 1046 l 301 1046 z "},"Ū":{"ha":911,"x_min":94,"x_max":817,"o":"m 454 -17 q 273 24 354 -17 q 143 147 192 64 q 94 358 94 229 l 94 972 l 211 972 l 211 357 q 242 203 211 263 q 329 115 274 143 q 457 88 385 88 q 585 115 531 88 q 669 203 639 143 q 700 357 700 263 l 700 972 l 817 972 l 817 358 q 768 147 817 229 q 638 24 719 64 q 454 -17 556 -17 m 213 1106 l 213 1193 l 694 1193 l 694 1106 l 213 1106 z "},"Ų":{"ha":911,"x_min":94,"x_max":817,"o":"m 454 -17 q 273 24 354 -17 q 143 147 192 64 q 94 358 94 229 l 94 972 l 211 972 l 211 357 q 242 203 211 263 q 329 115 274 143 q 457 88 385 88 q 585 115 531 88 q 669 203 639 143 q 700 357 700 263 l 700 972 l 817 972 l 817 358 q 768 147 817 229 q 638 24 719 64 q 454 -17 556 -17 m 454 -282 q 375 -269 413 -282 q 314 -226 338 -256 q 290 -150 290 -197 q 306 -87 290 -117 q 356 -28 321 -57 q 451 28 392 1 l 524 60 l 554 0 l 474 -39 q 404 -87 424 -62 q 385 -139 385 -112 q 408 -189 385 -171 q 468 -207 431 -207 q 512 -201 488 -207 q 558 -186 536 -196 l 558 -264 q 508 -277 536 -272 q 454 -282 481 -282 z "},"Ů":{"ha":911,"x_min":94,"x_max":817,"o":"m 454 -17 q 273 24 354 -17 q 143 147 192 64 q 94 358 94 229 l 94 972 l 211 972 l 211 357 q 242 203 211 263 q 329 115 274 143 q 457 88 385 88 q 585 115 531 88 q 669 203 639 143 q 700 357 700 263 l 700 972 l 817 972 l 817 358 q 768 147 817 229 q 638 24 719 64 q 454 -17 556 -17 m 454 1057 q 351 1095 394 1057 q 308 1200 308 1133 q 351 1305 308 1267 q 454 1343 394 1343 q 558 1305 515 1343 q 600 1200 600 1267 q 558 1095 600 1133 q 454 1057 515 1057 m 454 1117 q 510 1140 488 1117 q 533 1200 533 1163 q 510 1260 533 1239 q 454 1282 488 1282 q 399 1260 422 1282 q 375 1200 375 1239 q 399 1140 375 1163 q 454 1117 422 1117 z "},"Ũ":{"ha":911,"x_min":94,"x_max":817,"o":"m 454 -17 q 273 24 354 -17 q 143 147 192 64 q 94 358 94 229 l 94 972 l 211 972 l 211 357 q 242 203 211 263 q 329 115 274 143 q 457 88 385 88 q 585 115 531 88 q 669 203 639 143 q 700 357 700 263 l 700 972 l 817 972 l 817 358 q 768 147 817 229 q 638 24 719 64 q 454 -17 556 -17 m 544 1050 q 482 1067 507 1050 q 435 1099 457 1083 q 385 1115 414 1115 q 347 1100 363 1115 q 326 1053 331 1085 l 258 1053 q 303 1158 268 1122 q 390 1193 339 1193 q 452 1177 428 1193 q 499 1144 476 1161 q 550 1128 521 1128 q 590 1144 574 1128 q 610 1190 606 1160 l 678 1190 q 633 1086 669 1122 q 544 1050 597 1050 z "},"V":{"ha":929,"x_min":31,"x_max":897,"o":"m 396 0 l 31 972 l 157 972 l 464 124 l 464 124 l 774 972 l 897 972 l 532 0 l 396 0 z "},"W":{"ha":1344,"x_min":38,"x_max":1310,"o":"m 304 0 l 38 972 l 163 972 l 372 139 l 372 139 l 610 972 l 740 972 l 972 136 l 972 136 l 1185 972 l 1310 972 l 1038 0 l 904 0 l 672 804 l 672 804 l 435 0 l 304 0 z "},"Ẃ":{"ha":1344,"x_min":38,"x_max":1310,"o":"m 304 0 l 38 972 l 163 972 l 372 139 l 372 139 l 610 972 l 740 972 l 972 136 l 972 136 l 1185 972 l 1310 972 l 1038 0 l 904 0 l 672 804 l 672 804 l 435 0 l 304 0 m 539 1032 l 526 1117 l 806 1293 l 806 1293 l 822 1193 l 539 1032 z "},"Ŵ":{"ha":1344,"x_min":38,"x_max":1310,"o":"m 304 0 l 38 972 l 163 972 l 372 139 l 372 139 l 610 972 l 740 972 l 972 136 l 972 136 l 1185 972 l 1310 972 l 1038 0 l 904 0 l 672 804 l 672 804 l 435 0 l 304 0 m 485 1049 l 485 1140 l 675 1253 l 865 1140 l 865 1049 l 675 1165 l 485 1049 z "},"Ẅ":{"ha":1344,"x_min":38,"x_max":1310,"o":"m 304 0 l 38 972 l 163 972 l 372 139 l 372 139 l 610 972 l 740 972 l 972 136 l 972 136 l 1185 972 l 1310 972 l 1038 0 l 904 0 l 672 804 l 672 804 l 435 0 l 304 0 m 565 1076 q 516 1097 536 1076 q 496 1146 496 1117 q 516 1194 496 1174 q 565 1215 536 1215 q 614 1194 593 1215 q 635 1146 635 1174 q 614 1097 635 1117 q 565 1076 593 1076 m 788 1076 q 738 1097 758 1076 q 718 1146 718 1117 q 738 1194 718 1174 q 788 1215 758 1215 q 835 1194 815 1215 q 856 1146 856 1174 q 835 1097 856 1117 q 788 1076 815 1076 z "},"Ẁ":{"ha":1344,"x_min":38,"x_max":1310,"o":"m 304 0 l 38 972 l 163 972 l 372 139 l 372 139 l 610 972 l 740 972 l 972 136 l 972 136 l 1185 972 l 1310 972 l 1038 0 l 904 0 l 672 804 l 672 804 l 435 0 l 304 0 m 810 1032 l 526 1193 l 543 1293 l 543 1293 l 822 1117 l 810 1032 z "},"X":{"ha":838,"x_min":53,"x_max":783,"o":"m 53 0 l 350 490 l 53 972 l 185 972 l 424 585 l 424 585 l 651 972 l 782 972 l 485 486 l 783 0 l 651 0 l 411 392 l 411 392 l 185 0 l 53 0 z "},"Y":{"ha":806,"x_min":28,"x_max":776,"o":"m 344 0 l 344 369 l 28 972 l 160 972 l 421 446 l 386 446 l 646 972 l 776 972 l 461 369 l 461 0 l 344 0 z "},"Ý":{"ha":806,"x_min":28,"x_max":776,"o":"m 344 0 l 344 369 l 28 972 l 160 972 l 421 446 l 386 446 l 646 972 l 776 972 l 461 369 l 461 0 l 344 0 m 268 1032 l 256 1117 l 535 1293 l 535 1293 l 551 1193 l 268 1032 z "},"Ŷ":{"ha":806,"x_min":28,"x_max":776,"o":"m 344 0 l 344 369 l 28 972 l 160 972 l 421 446 l 386 446 l 646 972 l 776 972 l 461 369 l 461 0 l 344 0 m 213 1049 l 213 1140 l 403 1253 l 593 1140 l 593 1049 l 403 1165 l 213 1049 z "},"Ÿ":{"ha":806,"x_min":28,"x_max":776,"o":"m 344 0 l 344 369 l 28 972 l 160 972 l 421 446 l 386 446 l 646 972 l 776 972 l 461 369 l 461 0 l 344 0 m 293 1076 q 244 1097 264 1076 q 224 1146 224 1117 q 244 1194 224 1174 q 293 1215 264 1215 q 342 1194 321 1215 q 363 1146 363 1174 q 342 1097 363 1117 q 293 1076 321 1076 m 515 1076 q 466 1097 486 1076 q 446 1146 446 1117 q 466 1194 446 1174 q 515 1215 486 1215 q 563 1194 543 1215 q 583 1146 583 1174 q 563 1097 583 1117 q 515 1076 543 1076 z "},"Ỳ":{"ha":806,"x_min":28,"x_max":776,"o":"m 344 0 l 344 369 l 28 972 l 160 972 l 421 446 l 386 446 l 646 972 l 776 972 l 461 369 l 461 0 l 344 0 m 539 1032 l 256 1193 l 272 1293 l 272 1293 l 551 1117 l 539 1032 z "},"Ỹ":{"ha":806,"x_min":28,"x_max":776,"o":"m 344 0 l 344 369 l 28 972 l 160 972 l 421 446 l 386 446 l 646 972 l 776 972 l 461 369 l 461 0 l 344 0 m 493 1050 q 431 1067 456 1050 q 384 1099 406 1083 q 333 1115 363 1115 q 295 1100 311 1115 q 275 1053 279 1085 l 207 1053 q 252 1158 217 1122 q 339 1193 288 1193 q 401 1177 376 1193 q 447 1144 425 1161 q 499 1128 469 1128 q 538 1144 522 1128 q 558 1190 554 1160 l 626 1190 q 582 1086 618 1122 q 493 1050 546 1050 z "},"Z":{"ha":751,"x_min":63,"x_max":689,"o":"m 63 0 l 63 92 l 547 871 l 69 871 l 69 972 l 683 972 l 683 881 l 197 101 l 689 101 l 689 0 l 63 0 z "},"Ź":{"ha":751,"x_min":63,"x_max":689,"o":"m 63 0 l 63 92 l 547 871 l 69 871 l 69 972 l 683 972 l 683 881 l 197 101 l 689 101 l 689 0 l 63 0 m 240 1032 l 228 1117 l 507 1293 l 507 1293 l 524 1193 l 240 1032 z "},"Ž":{"ha":751,"x_min":63,"x_max":689,"o":"m 63 0 l 63 92 l 547 871 l 69 871 l 69 972 l 683 972 l 683 881 l 197 101 l 689 101 l 689 0 l 63 0 m 376 1047 l 186 1161 l 186 1251 l 376 1135 l 567 1251 l 567 1161 l 376 1047 z "},"Ż":{"ha":751,"x_min":63,"x_max":689,"o":"m 63 0 l 63 92 l 547 871 l 69 871 l 69 972 l 683 972 l 683 881 l 197 101 l 689 101 l 689 0 l 63 0 m 376 1064 q 328 1085 349 1064 q 307 1133 307 1106 q 328 1182 307 1161 q 376 1203 349 1203 q 425 1182 404 1203 q 446 1133 446 1161 q 425 1085 446 1106 q 376 1064 404 1064 z "},"a":{"ha":756,"x_min":71,"x_max":672,"o":"m 325 -17 q 183 13 240 -17 q 99 92 126 43 q 71 200 71 142 q 108 320 71 271 q 212 395 144 369 q 371 421 279 421 l 556 421 q 535 530 556 486 q 477 596 515 574 q 382 618 439 618 q 267 585 315 618 q 207 486 218 551 l 88 486 q 138 612 96 561 q 246 690 181 663 q 382 717 311 717 q 544 681 479 717 q 640 583 608 646 q 672 433 672 519 l 672 0 l 568 0 l 561 124 l 561 124 q 526 69 547 94 q 476 24 504 43 q 410 -6 447 6 q 325 -17 372 -17 m 343 82 q 431 102 392 82 q 499 158 471 122 q 541 236 526 193 q 556 326 556 279 l 556 331 l 381 331 q 271 315 313 331 q 211 270 229 299 q 193 206 193 242 q 210 140 193 168 q 262 97 228 113 q 343 82 296 82 z "},"á":{"ha":756,"x_min":71,"x_max":672,"o":"m 325 -17 q 183 13 240 -17 q 99 92 126 43 q 71 200 71 142 q 108 320 71 271 q 212 395 144 369 q 371 421 279 421 l 556 421 q 535 530 556 486 q 477 596 515 574 q 382 618 439 618 q 267 585 315 618 q 207 486 218 551 l 88 486 q 138 612 96 561 q 246 690 181 663 q 382 717 311 717 q 544 681 479 717 q 640 583 608 646 q 672 433 672 519 l 672 0 l 568 0 l 561 124 l 561 124 q 526 69 547 94 q 476 24 504 43 q 410 -6 447 6 q 325 -17 372 -17 m 343 82 q 431 102 392 82 q 499 158 471 122 q 541 236 526 193 q 556 326 556 279 l 556 331 l 381 331 q 271 315 313 331 q 211 270 229 299 q 193 206 193 242 q 210 140 193 168 q 262 97 228 113 q 343 82 296 82 m 238 760 l 225 843 l 504 1021 l 504 1021 l 521 921 l 238 760 z "},"ă":{"ha":756,"x_min":71,"x_max":672,"o":"m 325 -17 q 183 13 240 -17 q 99 92 126 43 q 71 200 71 142 q 108 320 71 271 q 212 395 144 369 q 371 421 279 421 l 556 421 q 535 530 556 486 q 477 596 515 574 q 382 618 439 618 q 267 585 315 618 q 207 486 218 551 l 88 486 q 138 612 96 561 q 246 690 181 663 q 382 717 311 717 q 544 681 479 717 q 640 583 608 646 q 672 433 672 519 l 672 0 l 568 0 l 561 124 l 561 124 q 526 69 547 94 q 476 24 504 43 q 410 -6 447 6 q 325 -17 372 -17 m 343 82 q 431 102 392 82 q 499 158 471 122 q 541 236 526 193 q 556 326 556 279 l 556 331 l 381 331 q 271 315 313 331 q 211 270 229 299 q 193 206 193 242 q 210 140 193 168 q 262 97 228 113 q 343 82 296 82 m 374 782 q 267 806 310 782 q 201 872 224 831 q 179 963 179 913 l 179 982 l 249 982 q 278 902 249 931 q 374 874 307 874 q 469 902 440 874 q 499 982 499 931 l 569 982 l 569 963 q 547 872 569 913 q 481 806 524 831 q 374 782 438 782 z "},"â":{"ha":756,"x_min":71,"x_max":672,"o":"m 325 -17 q 183 13 240 -17 q 99 92 126 43 q 71 200 71 142 q 108 320 71 271 q 212 395 144 369 q 371 421 279 421 l 556 421 q 535 530 556 486 q 477 596 515 574 q 382 618 439 618 q 267 585 315 618 q 207 486 218 551 l 88 486 q 138 612 96 561 q 246 690 181 663 q 382 717 311 717 q 544 681 479 717 q 640 583 608 646 q 672 433 672 519 l 672 0 l 568 0 l 561 124 l 561 124 q 526 69 547 94 q 476 24 504 43 q 410 -6 447 6 q 325 -17 372 -17 m 343 82 q 431 102 392 82 q 499 158 471 122 q 541 236 526 193 q 556 326 556 279 l 556 331 l 381 331 q 271 315 313 331 q 211 270 229 299 q 193 206 193 242 q 210 140 193 168 q 262 97 228 113 q 343 82 296 82 m 183 764 l 183 856 l 374 968 l 564 856 l 564 764 l 374 881 l 183 764 z "},"ä":{"ha":756,"x_min":71,"x_max":672,"o":"m 325 -17 q 183 13 240 -17 q 99 92 126 43 q 71 200 71 142 q 108 320 71 271 q 212 395 144 369 q 371 421 279 421 l 556 421 q 535 530 556 486 q 477 596 515 574 q 382 618 439 618 q 267 585 315 618 q 207 486 218 551 l 88 486 q 138 612 96 561 q 246 690 181 663 q 382 717 311 717 q 544 681 479 717 q 640 583 608 646 q 672 433 672 519 l 672 0 l 568 0 l 561 124 l 561 124 q 526 69 547 94 q 476 24 504 43 q 410 -6 447 6 q 325 -17 372 -17 m 343 82 q 431 102 392 82 q 499 158 471 122 q 541 236 526 193 q 556 326 556 279 l 556 331 l 381 331 q 271 315 313 331 q 211 270 229 299 q 193 206 193 242 q 210 140 193 168 q 262 97 228 113 q 343 82 296 82 m 264 792 q 215 812 235 792 q 194 861 194 832 q 215 910 194 889 q 264 931 235 931 q 313 910 292 931 q 333 861 333 889 q 313 812 333 832 q 264 792 292 792 m 486 792 q 437 812 457 792 q 417 861 417 832 q 437 910 417 889 q 486 931 457 931 q 534 910 514 931 q 554 861 554 889 q 534 812 554 832 q 486 792 514 792 z "},"à":{"ha":756,"x_min":71,"x_max":672,"o":"m 325 -17 q 183 13 240 -17 q 99 92 126 43 q 71 200 71 142 q 108 320 71 271 q 212 395 144 369 q 371 421 279 421 l 556 421 q 535 530 556 486 q 477 596 515 574 q 382 618 439 618 q 267 585 315 618 q 207 486 218 551 l 88 486 q 138 612 96 561 q 246 690 181 663 q 382 717 311 717 q 544 681 479 717 q 640 583 608 646 q 672 433 672 519 l 672 0 l 568 0 l 561 124 l 561 124 q 526 69 547 94 q 476 24 504 43 q 410 -6 447 6 q 325 -17 372 -17 m 343 82 q 431 102 392 82 q 499 158 471 122 q 541 236 526 193 q 556 326 556 279 l 556 331 l 381 331 q 271 315 313 331 q 211 270 229 299 q 193 206 193 242 q 210 140 193 168 q 262 97 228 113 q 343 82 296 82 m 508 760 l 225 921 l 242 1021 l 242 1021 l 521 843 l 508 760 z "},"ā":{"ha":756,"x_min":71,"x_max":672,"o":"m 325 -17 q 183 13 240 -17 q 99 92 126 43 q 71 200 71 142 q 108 320 71 271 q 212 395 144 369 q 371 421 279 421 l 556 421 q 535 530 556 486 q 477 596 515 574 q 382 618 439 618 q 267 585 315 618 q 207 486 218 551 l 88 486 q 138 612 96 561 q 246 690 181 663 q 382 717 311 717 q 544 681 479 717 q 640 583 608 646 q 672 433 672 519 l 672 0 l 568 0 l 561 124 l 561 124 q 526 69 547 94 q 476 24 504 43 q 410 -6 447 6 q 325 -17 372 -17 m 343 82 q 431 102 392 82 q 499 158 471 122 q 541 236 526 193 q 556 326 556 279 l 556 331 l 381 331 q 271 315 313 331 q 211 270 229 299 q 193 206 193 242 q 210 140 193 168 q 262 97 228 113 q 343 82 296 82 m 132 825 l 132 913 l 614 913 l 614 825 l 132 825 z "},"ą":{"ha":756,"x_min":71,"x_max":676,"o":"m 325 -17 q 183 13 240 -17 q 99 92 126 43 q 71 200 71 142 q 108 320 71 271 q 212 395 144 369 q 371 421 279 421 l 556 421 q 535 530 556 486 q 477 596 515 574 q 382 618 439 618 q 267 585 315 618 q 207 486 218 551 l 88 486 q 138 612 96 561 q 246 690 181 663 q 382 717 311 717 q 544 681 479 717 q 640 583 608 646 q 672 433 672 519 l 672 0 l 568 0 l 561 124 l 561 124 q 526 69 547 94 q 476 24 504 43 q 410 -6 447 6 q 325 -17 372 -17 m 343 82 q 431 102 392 82 q 499 158 471 122 q 541 236 526 193 q 556 326 556 279 l 556 331 l 381 331 q 271 315 313 331 q 211 270 229 299 q 193 206 193 242 q 210 140 193 168 q 262 97 228 113 q 343 82 296 82 m 572 -282 q 493 -269 531 -282 q 432 -226 456 -256 q 408 -150 408 -197 q 424 -87 408 -117 q 474 -28 439 -57 q 569 28 510 1 l 643 60 l 672 0 l 592 -39 q 523 -87 543 -62 q 503 -139 503 -112 q 526 -189 503 -171 q 586 -207 549 -207 q 630 -201 606 -207 q 676 -186 654 -196 l 676 -264 q 627 -277 654 -272 q 572 -282 600 -282 z "},"å":{"ha":756,"x_min":71,"x_max":672,"o":"m 325 -17 q 183 13 240 -17 q 99 92 126 43 q 71 200 71 142 q 108 320 71 271 q 212 395 144 369 q 371 421 279 421 l 556 421 q 535 530 556 486 q 477 596 515 574 q 382 618 439 618 q 267 585 315 618 q 207 486 218 551 l 88 486 q 138 612 96 561 q 246 690 181 663 q 382 717 311 717 q 544 681 479 717 q 640 583 608 646 q 672 433 672 519 l 672 0 l 568 0 l 561 124 l 561 124 q 526 69 547 94 q 476 24 504 43 q 410 -6 447 6 q 325 -17 372 -17 m 343 82 q 431 102 392 82 q 499 158 471 122 q 541 236 526 193 q 556 326 556 279 l 556 331 l 381 331 q 271 315 313 331 q 211 270 229 299 q 193 206 193 242 q 210 140 193 168 q 262 97 228 113 q 343 82 296 82 m 374 792 q 271 830 314 792 q 228 935 228 868 q 271 1040 228 1001 q 374 1078 314 1078 q 477 1040 435 1078 q 519 935 519 1001 q 477 830 519 868 q 374 792 435 792 m 374 851 q 430 874 407 851 q 453 935 453 897 q 430 995 453 974 q 374 1017 407 1017 q 318 995 342 1017 q 294 935 294 974 q 318 874 294 897 q 374 851 342 851 z "},"ã":{"ha":756,"x_min":71,"x_max":672,"o":"m 325 -17 q 183 13 240 -17 q 99 92 126 43 q 71 200 71 142 q 108 320 71 271 q 212 395 144 369 q 371 421 279 421 l 556 421 q 535 530 556 486 q 477 596 515 574 q 382 618 439 618 q 267 585 315 618 q 207 486 218 551 l 88 486 q 138 612 96 561 q 246 690 181 663 q 382 717 311 717 q 544 681 479 717 q 640 583 608 646 q 672 433 672 519 l 672 0 l 568 0 l 561 124 l 561 124 q 526 69 547 94 q 476 24 504 43 q 410 -6 447 6 q 325 -17 372 -17 m 343 82 q 431 102 392 82 q 499 158 471 122 q 541 236 526 193 q 556 326 556 279 l 556 331 l 381 331 q 271 315 313 331 q 211 270 229 299 q 193 206 193 242 q 210 140 193 168 q 262 97 228 113 q 343 82 296 82 m 450 792 q 388 808 413 792 q 341 841 363 825 q 290 857 319 857 q 252 842 268 857 q 232 794 236 826 l 164 794 q 209 899 174 864 q 296 935 244 935 q 358 919 333 935 q 404 886 382 903 q 456 869 426 869 q 495 885 479 869 q 515 932 511 901 l 583 932 q 539 828 575 864 q 450 792 503 792 z "},"æ":{"ha":1269,"x_min":71,"x_max":1210,"o":"m 329 -17 q 185 13 242 -17 q 99 92 128 43 q 71 200 71 142 q 108 320 71 271 q 210 394 144 369 q 365 418 276 418 l 554 418 q 535 529 554 485 q 478 596 515 574 q 385 618 440 618 q 275 585 322 618 q 217 486 228 551 l 96 486 q 147 612 104 561 q 252 690 189 663 q 385 717 315 717 q 538 683 475 717 q 633 590 600 650 q 744 684 678 651 q 892 717 811 717 q 1063 671 992 717 q 1172 551 1133 625 q 1210 390 1210 476 q 1210 361 1210 376 q 1208 326 1210 346 l 672 326 q 707 190 675 244 q 788 109 739 136 q 889 82 836 82 q 1015 119 967 82 q 1083 219 1063 156 l 1197 219 q 1139 99 1181 151 q 1035 15 1097 46 q 890 -17 972 -17 q 724 27 799 -17 q 607 147 650 71 q 539 63 579 100 q 447 5 499 26 q 329 -17 394 -17 m 339 82 q 445 113 399 82 q 520 196 492 144 q 553 307 549 247 l 553 328 l 376 328 q 270 313 311 328 q 211 270 229 297 q 193 206 193 243 q 210 142 193 169 q 260 98 228 114 q 339 82 293 82 m 674 417 l 1096 417 q 1033 565 1090 513 q 892 618 975 618 q 790 595 838 618 q 712 528 743 572 q 674 417 681 483 z "},"ǽ":{"ha":1269,"x_min":71,"x_max":1210,"o":"m 329 -17 q 185 13 242 -17 q 99 92 128 43 q 71 200 71 142 q 108 320 71 271 q 210 394 144 369 q 365 418 276 418 l 554 418 q 535 529 554 485 q 478 596 515 574 q 385 618 440 618 q 275 585 322 618 q 217 486 228 551 l 96 486 q 147 612 104 561 q 252 690 189 663 q 385 717 315 717 q 538 683 475 717 q 633 590 600 650 q 744 684 678 651 q 892 717 811 717 q 1063 671 992 717 q 1172 551 1133 625 q 1210 390 1210 476 q 1210 361 1210 376 q 1208 326 1210 346 l 672 326 q 707 190 675 244 q 788 109 739 136 q 889 82 836 82 q 1015 119 967 82 q 1083 219 1063 156 l 1197 219 q 1139 99 1181 151 q 1035 15 1097 46 q 890 -17 972 -17 q 724 27 799 -17 q 607 147 650 71 q 539 63 579 100 q 447 5 499 26 q 329 -17 394 -17 m 339 82 q 445 113 399 82 q 520 196 492 144 q 553 307 549 247 l 553 328 l 376 328 q 270 313 311 328 q 211 270 229 297 q 193 206 193 243 q 210 142 193 169 q 260 98 228 114 q 339 82 293 82 m 674 417 l 1096 417 q 1033 565 1090 513 q 892 618 975 618 q 790 595 838 618 q 712 528 743 572 q 674 417 681 483 m 500 760 l 488 843 l 767 1021 l 767 1021 l 783 921 l 500 760 z "},"b":{"ha":871,"x_min":97,"x_max":803,"o":"m 464 -17 q 356 1 404 -17 q 272 47 308 18 q 213 115 236 76 l 213 115 l 203 0 l 97 0 l 97 1000 l 214 1000 l 214 585 q 310 678 247 639 q 464 717 372 717 q 642 669 567 717 q 760 538 718 621 q 803 350 803 456 q 760 161 803 244 q 642 31 718 78 q 464 -17 565 -17 m 450 85 q 572 118 519 85 q 655 210 625 151 q 685 350 685 269 q 655 489 685 429 q 572 582 625 549 q 450 615 519 615 q 328 582 381 615 q 246 489 275 549 q 217 350 217 429 q 246 210 217 269 q 328 118 275 151 q 450 85 381 85 z "},"c":{"ha":794,"x_min":68,"x_max":726,"o":"m 413 -17 q 235 29 314 -17 q 113 158 157 75 q 68 349 68 240 q 113 542 68 460 q 235 670 157 624 q 413 717 314 717 q 621 652 538 717 q 726 479 704 588 l 607 479 q 539 581 593 544 q 411 617 485 617 q 301 587 351 617 q 219 497 250 557 q 188 350 188 438 q 206 234 188 285 q 254 150 224 183 q 326 99 285 117 q 411 82 367 82 q 501 98 461 82 q 569 146 542 114 q 607 221 597 178 l 726 221 q 620 49 704 115 q 413 -17 536 -17 z "},"ć":{"ha":794,"x_min":68,"x_max":726,"o":"m 413 -17 q 235 29 314 -17 q 113 158 157 75 q 68 349 68 240 q 113 542 68 460 q 235 670 157 624 q 413 717 314 717 q 621 652 538 717 q 726 479 704 588 l 607 479 q 539 581 593 544 q 411 617 485 617 q 301 587 351 617 q 219 497 250 557 q 188 350 188 438 q 206 234 188 285 q 254 150 224 183 q 326 99 285 117 q 411 82 367 82 q 501 98 461 82 q 569 146 542 114 q 607 221 597 178 l 726 221 q 620 49 704 115 q 413 -17 536 -17 m 261 760 l 249 843 l 528 1021 l 528 1021 l 544 921 l 261 760 z "},"č":{"ha":794,"x_min":68,"x_max":726,"o":"m 413 -17 q 235 29 314 -17 q 113 158 157 75 q 68 349 68 240 q 113 542 68 460 q 235 670 157 624 q 413 717 314 717 q 621 652 538 717 q 726 479 704 588 l 607 479 q 539 581 593 544 q 411 617 485 617 q 301 587 351 617 q 219 497 250 557 q 188 350 188 438 q 206 234 188 285 q 254 150 224 183 q 326 99 285 117 q 411 82 367 82 q 501 98 461 82 q 569 146 542 114 q 607 221 597 178 l 726 221 q 620 49 704 115 q 413 -17 536 -17 m 397 782 l 207 896 l 207 986 l 397 869 l 588 986 l 588 896 l 397 782 z "},"ç":{"ha":794,"x_min":68,"x_max":726,"o":"m 413 -17 q 235 29 314 -17 q 113 158 157 75 q 68 349 68 240 q 113 542 68 460 q 235 670 157 624 q 413 717 314 717 q 621 652 538 717 q 726 479 704 588 l 607 479 q 539 581 593 544 q 411 617 485 617 q 301 587 351 617 q 219 497 250 557 q 188 350 188 438 q 206 234 188 285 q 254 150 224 183 q 326 99 285 117 q 411 82 367 82 q 501 98 461 82 q 569 146 542 114 q 607 221 597 178 l 726 221 q 620 49 704 115 q 413 -17 536 -17 m 304 -361 l 304 -287 l 432 -287 q 503 -271 481 -287 q 526 -221 526 -254 q 503 -174 526 -190 q 432 -158 481 -158 l 364 -158 l 364 8 l 442 8 l 442 -89 q 535 -102 494 -87 q 598 -147 575 -117 q 621 -222 621 -178 q 599 -297 621 -265 q 540 -344 578 -328 q 453 -361 501 -361 l 304 -361 z "},"ċ":{"ha":794,"x_min":68,"x_max":726,"o":"m 413 -17 q 235 29 314 -17 q 113 158 157 75 q 68 349 68 240 q 113 542 68 460 q 235 670 157 624 q 413 717 314 717 q 621 652 538 717 q 726 479 704 588 l 607 479 q 539 581 593 544 q 411 617 485 617 q 301 587 351 617 q 219 497 250 557 q 188 350 188 438 q 206 234 188 285 q 254 150 224 183 q 326 99 285 117 q 411 82 367 82 q 501 98 461 82 q 569 146 542 114 q 607 221 597 178 l 726 221 q 620 49 704 115 q 413 -17 536 -17 m 397 793 q 349 814 369 793 q 328 863 328 835 q 349 911 328 890 q 397 932 369 932 q 446 911 425 932 q 467 863 467 890 q 446 814 467 835 q 397 793 425 793 z "},"d":{"ha":871,"x_min":68,"x_max":775,"o":"m 407 -17 q 228 31 306 -17 q 110 163 151 79 q 68 351 68 246 q 110 540 68 457 q 228 669 151 622 q 408 717 306 717 q 558 682 493 717 q 658 585 622 647 l 658 1000 l 775 1000 l 775 0 l 669 0 l 658 115 l 658 115 q 601 51 636 81 q 519 2 567 21 q 407 -17 471 -17 m 419 85 q 542 118 489 85 q 624 210 594 151 q 654 350 654 269 q 624 489 654 429 q 542 582 594 549 q 419 615 489 615 q 299 582 353 615 q 217 489 246 549 q 188 350 188 429 q 217 210 188 269 q 299 118 246 151 q 419 85 353 85 z "},"ď":{"ha":986,"x_min":68,"x_max":972,"o":"m 407 -17 q 228 31 306 -17 q 110 163 151 79 q 68 351 68 246 q 110 540 68 457 q 228 669 151 622 q 408 717 306 717 q 558 682 493 717 q 658 585 622 647 l 658 1000 l 775 1000 l 775 0 l 669 0 l 658 115 l 658 115 q 601 51 636 81 q 519 2 567 21 q 407 -17 471 -17 m 419 85 q 542 118 489 85 q 624 210 594 151 q 654 350 654 269 q 624 489 654 429 q 542 582 594 549 q 419 615 489 615 q 299 582 353 615 q 217 489 246 549 q 188 350 188 429 q 217 210 188 269 q 299 118 246 151 q 419 85 353 85 m 835 771 l 835 826 q 886 840 871 826 q 901 879 901 853 l 901 908 l 835 908 l 835 1024 l 957 1024 q 968 961 964 988 q 972 907 972 935 q 936 803 972 835 q 835 771 900 771 z "},"đ":{"ha":938,"x_min":68,"x_max":882,"o":"m 460 792 l 460 882 l 882 882 l 882 792 l 460 792 m 407 -17 q 228 31 306 -17 q 110 163 151 79 q 68 351 68 246 q 110 540 68 457 q 228 669 151 622 q 408 717 306 717 q 558 682 493 717 q 658 585 622 647 l 658 1000 l 775 1000 l 775 0 l 669 0 l 658 115 l 658 115 q 601 51 636 81 q 519 2 567 21 q 407 -17 471 -17 m 419 85 q 542 118 489 85 q 624 210 594 151 q 654 350 654 269 q 624 489 654 429 q 542 582 594 549 q 419 615 489 615 q 299 582 353 615 q 217 489 246 549 q 188 350 188 429 q 217 210 188 269 q 299 118 246 151 q 419 85 353 85 z "},"ð":{"ha":860,"x_min":68,"x_max":792,"o":"m 428 -17 q 241 32 322 -17 q 114 163 160 81 q 68 349 68 244 q 114 537 68 456 q 240 665 160 618 q 422 711 321 711 q 545 690 485 711 q 651 619 606 668 q 607 711 632 665 q 549 801 582 757 q 474 888 515 846 q 382 972 433 931 l 499 972 q 634 833 578 907 q 725 683 690 760 q 776 529 760 607 q 792 375 792 451 q 744 170 792 258 q 613 33 696 82 q 428 -17 531 -17 m 429 82 q 550 114 494 82 q 639 206 606 146 q 672 350 672 267 q 639 491 672 432 q 551 581 606 550 q 431 613 496 613 q 309 581 364 613 q 221 490 254 549 q 188 350 188 432 q 221 206 188 267 q 310 114 254 146 q 429 82 365 82 m 339 765 l 339 844 l 738 983 l 738 904 l 339 765 z "},"e":{"ha":789,"x_min":68,"x_max":731,"o":"m 404 -17 q 231 29 307 -17 q 111 158 154 75 q 68 350 68 240 q 110 543 68 461 q 230 671 153 625 q 407 717 307 717 q 582 671 510 717 q 692 551 654 625 q 731 388 731 476 q 731 358 731 374 q 729 324 731 343 l 156 324 l 156 414 l 615 414 q 552 564 611 510 q 404 618 493 618 q 294 591 346 618 q 213 512 243 564 q 182 382 182 460 l 182 343 q 213 199 182 257 q 295 111 244 140 q 404 82 346 82 q 526 115 478 82 q 596 204 574 147 l 711 204 q 651 91 693 140 q 548 13 610 42 q 404 -17 486 -17 z "},"é":{"ha":789,"x_min":68,"x_max":731,"o":"m 404 -17 q 231 29 307 -17 q 111 158 154 75 q 68 350 68 240 q 110 543 68 461 q 230 671 153 625 q 407 717 307 717 q 582 671 510 717 q 692 551 654 625 q 731 388 731 476 q 731 358 731 374 q 729 324 731 343 l 156 324 l 156 414 l 615 414 q 552 564 611 510 q 404 618 493 618 q 294 591 346 618 q 213 512 243 564 q 182 382 182 460 l 182 343 q 213 199 182 257 q 295 111 244 140 q 404 82 346 82 q 526 115 478 82 q 596 204 574 147 l 711 204 q 651 91 693 140 q 548 13 610 42 q 404 -17 486 -17 m 265 760 l 253 843 l 532 1021 l 532 1021 l 549 921 l 265 760 z "},"ĕ":{"ha":789,"x_min":68,"x_max":731,"o":"m 404 -17 q 231 29 307 -17 q 111 158 154 75 q 68 350 68 240 q 110 543 68 461 q 230 671 153 625 q 407 717 307 717 q 582 671 510 717 q 692 551 654 625 q 731 388 731 476 q 731 358 731 374 q 729 324 731 343 l 156 324 l 156 414 l 615 414 q 552 564 611 510 q 404 618 493 618 q 294 591 346 618 q 213 512 243 564 q 182 382 182 460 l 182 343 q 213 199 182 257 q 295 111 244 140 q 404 82 346 82 q 526 115 478 82 q 596 204 574 147 l 711 204 q 651 91 693 140 q 548 13 610 42 q 404 -17 486 -17 m 401 782 q 294 806 338 782 q 229 872 251 831 q 207 963 207 913 l 207 982 l 276 982 q 306 902 276 931 q 401 874 335 874 q 497 902 468 874 q 526 982 526 931 l 597 982 l 597 963 q 574 872 597 913 q 508 806 551 831 q 401 782 465 782 z "},"ě":{"ha":789,"x_min":68,"x_max":731,"o":"m 404 -17 q 231 29 307 -17 q 111 158 154 75 q 68 350 68 240 q 110 543 68 461 q 230 671 153 625 q 407 717 307 717 q 582 671 510 717 q 692 551 654 625 q 731 388 731 476 q 731 358 731 374 q 729 324 731 343 l 156 324 l 156 414 l 615 414 q 552 564 611 510 q 404 618 493 618 q 294 591 346 618 q 213 512 243 564 q 182 382 182 460 l 182 343 q 213 199 182 257 q 295 111 244 140 q 404 82 346 82 q 526 115 478 82 q 596 204 574 147 l 711 204 q 651 91 693 140 q 548 13 610 42 q 404 -17 486 -17 m 401 782 l 211 896 l 211 986 l 401 869 l 592 986 l 592 896 l 401 782 z "},"ê":{"ha":789,"x_min":68,"x_max":731,"o":"m 404 -17 q 231 29 307 -17 q 111 158 154 75 q 68 350 68 240 q 110 543 68 461 q 230 671 153 625 q 407 717 307 717 q 582 671 510 717 q 692 551 654 625 q 731 388 731 476 q 731 358 731 374 q 729 324 731 343 l 156 324 l 156 414 l 615 414 q 552 564 611 510 q 404 618 493 618 q 294 591 346 618 q 213 512 243 564 q 182 382 182 460 l 182 343 q 213 199 182 257 q 295 111 244 140 q 404 82 346 82 q 526 115 478 82 q 596 204 574 147 l 711 204 q 651 91 693 140 q 548 13 610 42 q 404 -17 486 -17 m 211 764 l 211 856 l 401 968 l 592 856 l 592 764 l 401 881 l 211 764 z "},"ë":{"ha":789,"x_min":68,"x_max":731,"o":"m 404 -17 q 231 29 307 -17 q 111 158 154 75 q 68 350 68 240 q 110 543 68 461 q 230 671 153 625 q 407 717 307 717 q 582 671 510 717 q 692 551 654 625 q 731 388 731 476 q 731 358 731 374 q 729 324 731 343 l 156 324 l 156 414 l 615 414 q 552 564 611 510 q 404 618 493 618 q 294 591 346 618 q 213 512 243 564 q 182 382 182 460 l 182 343 q 213 199 182 257 q 295 111 244 140 q 404 82 346 82 q 526 115 478 82 q 596 204 574 147 l 711 204 q 651 91 693 140 q 548 13 610 42 q 404 -17 486 -17 m 292 792 q 242 812 263 792 q 222 861 222 832 q 242 910 222 889 q 292 931 263 931 q 340 910 319 931 q 361 861 361 889 q 340 812 361 832 q 292 792 319 792 m 514 792 q 465 812 485 792 q 444 861 444 832 q 465 910 444 889 q 514 931 485 931 q 562 910 542 931 q 582 861 582 889 q 562 812 582 832 q 514 792 542 792 z "},"ė":{"ha":789,"x_min":68,"x_max":731,"o":"m 404 -17 q 231 29 307 -17 q 111 158 154 75 q 68 350 68 240 q 110 543 68 461 q 230 671 153 625 q 407 717 307 717 q 582 671 510 717 q 692 551 654 625 q 731 388 731 476 q 731 358 731 374 q 729 324 731 343 l 156 324 l 156 414 l 615 414 q 552 564 611 510 q 404 618 493 618 q 294 591 346 618 q 213 512 243 564 q 182 382 182 460 l 182 343 q 213 199 182 257 q 295 111 244 140 q 404 82 346 82 q 526 115 478 82 q 596 204 574 147 l 711 204 q 651 91 693 140 q 548 13 610 42 q 404 -17 486 -17 m 401 793 q 353 814 374 793 q 332 863 332 835 q 353 911 332 890 q 401 932 374 932 q 450 911 429 932 q 471 863 471 890 q 450 814 471 835 q 401 793 429 793 z "},"è":{"ha":789,"x_min":68,"x_max":731,"o":"m 404 -17 q 231 29 307 -17 q 111 158 154 75 q 68 350 68 240 q 110 543 68 461 q 230 671 153 625 q 407 717 307 717 q 582 671 510 717 q 692 551 654 625 q 731 388 731 476 q 731 358 731 374 q 729 324 731 343 l 156 324 l 156 414 l 615 414 q 552 564 611 510 q 404 618 493 618 q 294 591 346 618 q 213 512 243 564 q 182 382 182 460 l 182 343 q 213 199 182 257 q 295 111 244 140 q 404 82 346 82 q 526 115 478 82 q 596 204 574 147 l 711 204 q 651 91 693 140 q 548 13 610 42 q 404 -17 486 -17 m 536 760 l 253 921 l 269 1021 l 269 1021 l 549 843 l 536 760 z "},"ē":{"ha":789,"x_min":68,"x_max":731,"o":"m 404 -17 q 231 29 307 -17 q 111 158 154 75 q 68 350 68 240 q 110 543 68 461 q 230 671 153 625 q 407 717 307 717 q 582 671 510 717 q 692 551 654 625 q 731 388 731 476 q 731 358 731 374 q 729 324 731 343 l 156 324 l 156 414 l 615 414 q 552 564 611 510 q 404 618 493 618 q 294 591 346 618 q 213 512 243 564 q 182 382 182 460 l 182 343 q 213 199 182 257 q 295 111 244 140 q 404 82 346 82 q 526 115 478 82 q 596 204 574 147 l 711 204 q 651 91 693 140 q 548 13 610 42 q 404 -17 486 -17 m 160 825 l 160 913 l 642 913 l 642 825 l 160 825 z "},"ę":{"ha":789,"x_min":68,"x_max":731,"o":"m 404 -17 q 231 29 307 -17 q 111 158 154 75 q 68 350 68 240 q 110 543 68 461 q 230 671 153 625 q 407 717 307 717 q 582 671 510 717 q 692 551 654 625 q 731 388 731 476 q 731 358 731 374 q 729 324 731 343 l 156 324 l 156 414 l 615 414 q 552 564 611 510 q 404 618 493 618 q 294 591 346 618 q 213 512 243 564 q 182 382 182 460 l 182 343 q 213 199 182 257 q 295 111 244 140 q 404 82 346 82 q 526 115 478 82 q 596 204 574 147 l 711 204 q 651 91 693 140 q 548 13 610 42 q 404 -17 486 -17 m 449 -265 q 369 -252 407 -265 q 308 -210 332 -239 q 285 -133 285 -181 q 300 -70 285 -100 q 351 -11 315 -40 q 446 44 386 18 l 519 76 l 549 17 l 468 -22 q 399 -71 419 -46 q 379 -122 379 -96 q 402 -172 379 -154 q 463 -190 425 -190 q 506 -185 482 -190 q 553 -169 531 -179 l 553 -247 q 503 -260 531 -256 q 449 -265 476 -265 z "},"ẽ":{"ha":789,"x_min":68,"x_max":731,"o":"m 404 -17 q 231 29 307 -17 q 111 158 154 75 q 68 350 68 240 q 110 543 68 461 q 230 671 153 625 q 407 717 307 717 q 582 671 510 717 q 692 551 654 625 q 731 388 731 476 q 731 358 731 374 q 729 324 731 343 l 156 324 l 156 414 l 615 414 q 552 564 611 510 q 404 618 493 618 q 294 591 346 618 q 213 512 243 564 q 182 382 182 460 l 182 343 q 213 199 182 257 q 295 111 244 140 q 404 82 346 82 q 526 115 478 82 q 596 204 574 147 l 711 204 q 651 91 693 140 q 548 13 610 42 q 404 -17 486 -17 m 478 792 q 415 808 440 792 q 369 841 390 825 q 318 857 347 857 q 280 842 296 857 q 260 794 264 826 l 192 794 q 237 899 201 864 q 324 935 272 935 q 385 919 361 935 q 432 886 410 903 q 483 869 454 869 q 523 885 507 869 q 543 932 539 901 l 611 932 q 567 828 603 864 q 478 792 531 792 z "},"ə":{"ha":789,"x_min":60,"x_max":722,"o":"m 385 717 q 559 671 483 717 q 678 543 635 625 q 722 350 722 461 q 679 158 722 240 q 560 29 636 75 q 382 -17 483 -17 q 208 29 281 -17 q 98 150 136 75 q 60 313 60 225 q 60 342 60 326 q 61 376 60 357 l 635 376 l 635 286 l 175 286 q 237 135 178 189 q 385 82 296 82 q 496 109 446 82 q 577 189 546 136 q 608 318 608 242 l 608 357 q 576 502 608 444 q 494 589 544 560 q 385 618 443 618 q 264 585 311 618 q 194 496 217 553 l 79 496 q 138 609 97 560 q 242 688 179 658 q 385 717 304 717 z "},"f":{"ha":472,"x_min":29,"x_max":429,"o":"m 136 0 l 136 808 q 158 917 136 875 q 224 980 181 960 q 332 1000 268 1000 l 411 1000 l 411 900 l 350 900 q 276 879 299 900 q 253 806 253 858 l 253 0 l 136 0 m 29 601 l 29 700 l 429 700 l 429 601 l 29 601 z "},"g":{"ha":775,"x_min":53,"x_max":738,"o":"m 374 -322 q 206 -298 279 -322 q 93 -224 133 -274 q 53 -100 53 -174 q 66 -32 53 -68 q 112 39 79 4 q 204 101 144 74 l 285 54 q 189 -16 211 24 q 167 -89 167 -56 q 193 -165 167 -135 q 267 -211 219 -196 q 374 -226 314 -226 q 476 -209 433 -226 q 543 -162 519 -192 q 567 -90 567 -132 q 531 -9 567 -42 q 393 29 494 24 q 256 44 311 35 q 164 67 200 54 q 103 97 128 81 q 60 132 79 114 l 60 164 l 194 297 l 296 261 l 157 136 l 175 185 q 204 164 190 174 q 242 147 218 154 q 308 135 265 140 q 419 124 350 129 q 573 90 515 117 q 656 19 631 64 q 682 -86 682 -25 q 649 -199 682 -146 q 549 -287 617 -253 q 374 -322 481 -322 m 372 219 q 223 253 285 219 q 129 342 161 286 q 97 468 97 399 q 130 593 97 538 q 224 683 163 649 q 372 717 285 717 q 521 683 460 717 q 614 593 582 649 q 646 468 646 538 q 614 342 646 399 q 521 253 582 286 q 372 219 460 219 m 372 315 q 490 354 447 315 q 533 468 533 393 q 490 581 533 542 q 372 619 447 619 q 253 581 299 619 q 208 468 208 542 q 253 354 208 393 q 372 315 297 315 m 486 601 l 451 700 l 738 700 l 738 613 l 486 601 z "},"ğ":{"ha":775,"x_min":53,"x_max":738,"o":"m 374 -322 q 206 -298 279 -322 q 93 -224 133 -274 q 53 -100 53 -174 q 66 -32 53 -68 q 112 39 79 4 q 204 101 144 74 l 285 54 q 189 -16 211 24 q 167 -89 167 -56 q 193 -165 167 -135 q 267 -211 219 -196 q 374 -226 314 -226 q 476 -209 433 -226 q 543 -162 519 -192 q 567 -90 567 -132 q 531 -9 567 -42 q 393 29 494 24 q 256 44 311 35 q 164 67 200 54 q 103 97 128 81 q 60 132 79 114 l 60 164 l 194 297 l 296 261 l 157 136 l 175 185 q 204 164 190 174 q 242 147 218 154 q 308 135 265 140 q 419 124 350 129 q 573 90 515 117 q 656 19 631 64 q 682 -86 682 -25 q 649 -199 682 -146 q 549 -287 617 -253 q 374 -322 481 -322 m 372 219 q 223 253 285 219 q 129 342 161 286 q 97 468 97 399 q 130 593 97 538 q 224 683 163 649 q 372 717 285 717 q 521 683 460 717 q 614 593 582 649 q 646 468 646 538 q 614 342 646 399 q 521 253 582 286 q 372 219 460 219 m 372 315 q 490 354 447 315 q 533 468 533 393 q 490 581 533 542 q 372 619 447 619 q 253 581 299 619 q 208 468 208 542 q 253 354 208 393 q 372 315 297 315 m 486 601 l 451 700 l 738 700 l 738 613 l 486 601 m 372 782 q 265 806 308 782 q 200 872 222 831 q 178 963 178 913 l 178 982 l 247 982 q 276 902 247 931 q 372 874 306 874 q 468 902 439 874 q 497 982 497 931 l 568 982 l 568 963 q 545 872 568 913 q 479 806 522 831 q 372 782 436 782 z "},"ģ":{"ha":775,"x_min":53,"x_max":738,"o":"m 374 -322 q 206 -298 279 -322 q 93 -224 133 -274 q 53 -100 53 -174 q 66 -32 53 -68 q 112 39 79 4 q 204 101 144 74 l 285 54 q 189 -16 211 24 q 167 -89 167 -56 q 193 -165 167 -135 q 267 -211 219 -196 q 374 -226 314 -226 q 476 -209 433 -226 q 543 -162 519 -192 q 567 -90 567 -132 q 531 -9 567 -42 q 393 29 494 24 q 256 44 311 35 q 164 67 200 54 q 103 97 128 81 q 60 132 79 114 l 60 164 l 194 297 l 296 261 l 157 136 l 175 185 q 204 164 190 174 q 242 147 218 154 q 308 135 265 140 q 419 124 350 129 q 573 90 515 117 q 656 19 631 64 q 682 -86 682 -25 q 649 -199 682 -146 q 549 -287 617 -253 q 374 -322 481 -322 m 372 219 q 223 253 285 219 q 129 342 161 286 q 97 468 97 399 q 130 593 97 538 q 224 683 163 649 q 372 717 285 717 q 521 683 460 717 q 614 593 582 649 q 646 468 646 538 q 614 342 646 399 q 521 253 582 286 q 372 219 460 219 m 372 315 q 490 354 447 315 q 533 468 533 393 q 490 581 533 542 q 372 619 447 619 q 253 581 299 619 q 208 468 208 542 q 253 354 208 393 q 372 315 297 315 m 486 601 l 451 700 l 738 700 l 738 613 l 486 601 m 442 1039 l 442 983 q 391 970 407 983 q 375 931 375 957 l 375 901 l 442 901 l 442 786 l 319 786 q 308 849 313 822 q 304 903 304 876 q 340 1007 304 975 q 442 1039 376 1039 z "},"ġ":{"ha":775,"x_min":53,"x_max":738,"o":"m 374 -322 q 206 -298 279 -322 q 93 -224 133 -274 q 53 -100 53 -174 q 66 -32 53 -68 q 112 39 79 4 q 204 101 144 74 l 285 54 q 189 -16 211 24 q 167 -89 167 -56 q 193 -165 167 -135 q 267 -211 219 -196 q 374 -226 314 -226 q 476 -209 433 -226 q 543 -162 519 -192 q 567 -90 567 -132 q 531 -9 567 -42 q 393 29 494 24 q 256 44 311 35 q 164 67 200 54 q 103 97 128 81 q 60 132 79 114 l 60 164 l 194 297 l 296 261 l 157 136 l 175 185 q 204 164 190 174 q 242 147 218 154 q 308 135 265 140 q 419 124 350 129 q 573 90 515 117 q 656 19 631 64 q 682 -86 682 -25 q 649 -199 682 -146 q 549 -287 617 -253 q 374 -322 481 -322 m 372 219 q 223 253 285 219 q 129 342 161 286 q 97 468 97 399 q 130 593 97 538 q 224 683 163 649 q 372 717 285 717 q 521 683 460 717 q 614 593 582 649 q 646 468 646 538 q 614 342 646 399 q 521 253 582 286 q 372 219 460 219 m 372 315 q 490 354 447 315 q 533 468 533 393 q 490 581 533 542 q 372 619 447 619 q 253 581 299 619 q 208 468 208 542 q 253 354 208 393 q 372 315 297 315 m 486 601 l 451 700 l 738 700 l 738 613 l 486 601 m 372 793 q 324 814 344 793 q 303 863 303 835 q 324 911 303 890 q 372 932 344 932 q 421 911 400 932 q 442 863 442 890 q 421 814 442 835 q 372 793 400 793 z "},"h":{"ha":799,"x_min":97,"x_max":714,"o":"m 97 0 l 97 1000 l 214 1000 l 214 582 l 214 582 q 312 681 249 644 q 450 717 375 717 q 590 684 531 717 q 682 585 650 651 q 714 417 714 518 l 714 0 l 599 0 l 599 404 q 554 563 599 510 q 425 617 510 617 q 317 588 365 617 q 242 504 269 558 q 214 371 214 450 l 214 0 l 97 0 z "},"ħ":{"ha":864,"x_min":56,"x_max":779,"o":"m 56 792 l 56 882 l 478 882 l 478 792 l 56 792 m 163 0 l 163 1000 l 279 1000 l 279 582 l 279 582 q 377 681 314 644 q 515 717 440 717 q 656 684 596 717 q 747 585 715 651 q 779 417 779 518 l 779 0 l 664 0 l 664 404 q 619 563 664 510 q 490 617 575 617 q 383 588 432 617 q 307 504 335 558 q 279 371 279 450 l 279 0 l 163 0 z "},"i":{"ha":333,"x_min":86,"x_max":247,"o":"m 108 0 l 108 700 l 225 700 l 225 0 l 108 0 m 167 849 q 109 872 132 849 q 86 929 86 894 q 109 985 86 964 q 167 1007 132 1007 q 224 985 200 1007 q 247 929 247 964 q 224 872 247 894 q 167 849 200 849 z "},"ı":{"ha":310,"x_min":97,"x_max":214,"o":"m 97 0 l 97 700 l 214 700 l 214 0 l 97 0 z "},"í":{"ha":310,"x_min":7,"x_max":303,"o":"m 97 0 l 97 700 l 214 700 l 214 0 l 97 0 m 19 760 l 7 843 l 286 1021 l 286 1021 l 303 921 l 19 760 z "},"ĭ":{"ha":310,"x_min":-39,"x_max":351,"o":"m 97 0 l 97 700 l 214 700 l 214 0 l 97 0 m 156 782 q 49 806 92 782 q -17 872 6 831 q -39 963 -39 913 l -39 982 l 31 982 q 60 902 31 931 q 156 874 89 874 q 251 902 222 874 q 281 982 281 931 l 351 982 l 351 963 q 328 872 351 913 q 263 806 306 831 q 156 782 219 782 z "},"î":{"ha":310,"x_min":-35,"x_max":346,"o":"m 97 0 l 97 700 l 214 700 l 214 0 l 97 0 m -35 764 l -35 856 l 156 968 l 346 856 l 346 764 l 156 881 l -35 764 z "},"ï":{"ha":310,"x_min":-24,"x_max":336,"o":"m 97 0 l 97 700 l 214 700 l 214 0 l 97 0 m 46 792 q -3 812 17 792 q -24 861 -24 832 q -3 910 -24 889 q 46 931 17 931 q 94 910 74 931 q 115 861 115 889 q 94 812 115 832 q 46 792 74 792 m 268 792 q 219 812 239 792 q 199 861 199 832 q 219 910 199 889 q 268 931 239 931 q 316 910 296 931 q 336 861 336 889 q 316 812 336 832 q 268 792 296 792 z "},"ì":{"ha":310,"x_min":7,"x_max":303,"o":"m 97 0 l 97 700 l 214 700 l 214 0 l 97 0 m 290 760 l 7 921 l 24 1021 l 24 1021 l 303 843 l 290 760 z "},"ī":{"ha":310,"x_min":-86,"x_max":396,"o":"m 97 0 l 97 700 l 214 700 l 214 0 l 97 0 m -86 825 l -86 913 l 396 913 l 396 825 l -86 825 z "},"į":{"ha":310,"x_min":-50,"x_max":225,"o":"m 97 0 l 97 700 l 214 700 l 214 0 l 97 0 m 156 793 q 107 814 128 793 q 86 863 86 835 q 107 911 86 890 q 156 932 128 932 q 204 911 183 932 q 225 863 225 890 q 204 814 225 835 q 156 793 183 793 m 114 -282 q 35 -269 72 -282 q -26 -226 -3 -256 q -50 -150 -50 -197 q -35 -87 -50 -117 q 16 -28 -19 -57 q 111 28 51 1 l 185 60 l 214 0 l 133 -39 q 65 -87 85 -62 q 44 -139 44 -112 q 67 -189 44 -171 q 128 -207 90 -207 q 172 -201 147 -207 q 218 -186 196 -196 l 218 -264 q 169 -277 196 -272 q 114 -282 142 -282 z "},"ĩ":{"ha":310,"x_min":-54,"x_max":365,"o":"m 97 0 l 97 700 l 214 700 l 214 0 l 97 0 m 232 792 q 169 808 194 792 q 123 841 144 825 q 72 857 101 857 q 34 842 50 857 q 14 794 18 826 l -54 794 q -9 899 -44 864 q 78 935 26 935 q 140 919 115 935 q 186 886 164 903 q 238 869 208 869 q 277 885 261 869 q 297 932 293 901 l 365 932 q 321 828 357 864 q 232 792 285 792 z "},"ĳ":{"ha":621,"x_min":86,"x_max":536,"o":"m 108 0 l 108 700 l 225 700 l 225 0 l 108 0 m 167 849 q 109 872 132 849 q 86 929 86 894 q 109 985 86 964 q 167 1007 132 1007 q 224 985 200 1007 q 247 929 247 964 q 224 872 247 894 q 167 849 200 849 m 247 -306 l 247 -206 l 301 -206 q 376 -184 354 -206 q 399 -111 399 -162 l 399 700 l 515 700 l 515 -114 q 493 -223 515 -181 q 427 -285 471 -265 q 319 -306 383 -306 l 247 -306 m 458 849 q 401 872 424 849 q 378 929 378 894 q 401 985 378 964 q 458 1007 424 1007 q 515 985 492 1007 q 538 929 538 964 q 515 872 538 894 q 458 849 492 849 z "},"j":{"ha":338,"x_min":-37,"x_max":253,"o":"m -37 -306 l -37 -206 l 17 -206 q 92 -184 69 -206 q 114 -111 114 -162 l 114 700 l 231 700 l 231 -114 q 208 -223 231 -181 q 142 -285 186 -265 q 35 -306 99 -306 l -37 -306 m 174 849 q 116 872 139 849 q 93 929 93 894 q 116 985 93 964 q 174 1007 139 1007 q 230 985 207 1007 q 253 929 253 964 q 230 872 253 894 q 174 849 207 849 z "},"ȷ":{"ha":315,"x_min":-37,"x_max":231,"o":"m -37 -306 l -37 -206 l 17 -206 q 92 -184 69 -206 q 114 -111 114 -162 l 114 700 l 231 700 l 231 -114 q 208 -223 231 -181 q 142 -285 186 -265 q 35 -306 99 -306 l -37 -306 z "},"k":{"ha":700,"x_min":97,"x_max":676,"o":"m 528 0 l 194 383 l 499 700 l 642 700 l 293 342 l 294 425 l 676 0 l 528 0 m 97 0 l 97 1000 l 214 1000 l 214 0 l 97 0 z "},"ķ":{"ha":700,"x_min":97,"x_max":676,"o":"m 528 0 l 194 383 l 499 700 l 642 700 l 293 342 l 294 425 l 676 0 l 528 0 m 97 0 l 97 1000 l 214 1000 l 214 0 l 97 0 m 283 -331 l 283 -275 q 333 -255 318 -275 q 347 -196 347 -235 l 347 -176 l 285 -176 l 285 -69 l 404 -69 q 414 -124 411 -97 q 417 -172 417 -150 q 382 -293 417 -256 q 283 -331 347 -331 z "},"l":{"ha":310,"x_min":97,"x_max":214,"o":"m 97 0 l 97 1000 l 214 1000 l 214 0 l 97 0 z "},"ĺ":{"ha":310,"x_min":7,"x_max":303,"o":"m 97 0 l 97 1000 l 214 1000 l 214 0 l 97 0 m 19 1061 l 7 1144 l 286 1322 l 286 1322 l 303 1222 l 19 1061 z "},"ľ":{"ha":425,"x_min":97,"x_max":411,"o":"m 97 0 l 97 1000 l 214 1000 l 214 0 l 97 0 m 274 771 l 274 826 q 325 840 310 826 q 340 879 340 853 l 340 908 l 274 908 l 274 1024 l 396 1024 q 407 961 403 988 q 411 907 411 935 q 375 803 411 835 q 274 771 339 771 z "},"ļ":{"ha":310,"x_min":89,"x_max":222,"o":"m 97 0 l 97 1000 l 214 1000 l 214 0 l 97 0 m 89 -331 l 89 -275 q 138 -255 124 -275 q 153 -196 153 -235 l 153 -176 l 90 -176 l 90 -69 l 210 -69 q 219 -124 217 -97 q 222 -172 222 -150 q 188 -293 222 -256 q 89 -331 153 -331 z "},"ŀ":{"ha":497,"x_min":97,"x_max":456,"o":"m 97 0 l 97 1000 l 214 1000 l 214 0 l 97 0 m 378 396 q 320 419 343 396 q 297 475 297 442 q 320 532 297 510 q 378 554 343 554 q 435 532 413 554 q 457 475 457 510 q 435 419 457 442 q 378 396 413 396 z "},"ł":{"ha":349,"x_min":13,"x_max":336,"o":"m 13 460 l 13 553 l 336 686 l 336 592 l 13 460 m 115 0 l 115 1000 l 232 1000 l 232 0 l 115 0 z "},"m":{"ha":1238,"x_min":97,"x_max":1154,"o":"m 97 0 l 97 700 l 203 700 l 210 600 l 210 600 q 299 685 243 654 q 422 717 356 717 q 520 702 476 717 q 598 658 564 688 q 651 582 632 628 l 651 582 q 751 681 688 646 q 886 717 815 717 q 1028 684 968 717 q 1121 585 1088 651 q 1154 418 1154 519 l 1154 0 l 1039 0 l 1039 406 q 996 564 1039 511 q 874 617 953 617 q 776 588 819 617 q 708 506 733 560 q 683 372 683 451 l 683 0 l 567 0 l 567 406 q 524 564 567 511 q 403 617 481 617 q 307 588 350 617 q 239 506 264 560 q 214 372 214 451 l 214 0 l 97 0 z "},"n":{"ha":797,"x_min":97,"x_max":713,"o":"m 97 0 l 97 700 l 203 700 l 208 578 l 208 578 q 303 680 242 643 q 444 717 365 717 q 586 684 526 717 q 679 585 646 651 q 713 418 713 519 l 713 0 l 596 0 l 596 406 q 549 564 596 511 q 418 617 503 617 q 314 588 360 617 q 241 506 268 560 q 214 374 214 453 l 214 0 l 97 0 z "},"ń":{"ha":797,"x_min":97,"x_max":713,"o":"m 97 0 l 97 700 l 203 700 l 208 578 l 208 578 q 303 680 242 643 q 444 717 365 717 q 586 684 526 717 q 679 585 646 651 q 713 418 713 519 l 713 0 l 596 0 l 596 406 q 549 564 596 511 q 418 617 503 617 q 314 588 360 617 q 241 506 268 560 q 214 374 214 453 l 214 0 l 97 0 m 285 760 l 272 843 l 551 1021 l 551 1021 l 568 921 l 285 760 z "},"ň":{"ha":797,"x_min":97,"x_max":713,"o":"m 97 0 l 97 700 l 203 700 l 208 578 l 208 578 q 303 680 242 643 q 444 717 365 717 q 586 684 526 717 q 679 585 646 651 q 713 418 713 519 l 713 0 l 596 0 l 596 406 q 549 564 596 511 q 418 617 503 617 q 314 588 360 617 q 241 506 268 560 q 214 374 214 453 l 214 0 l 97 0 m 421 782 l 231 896 l 231 986 l 421 869 l 611 986 l 611 896 l 421 782 z "},"ņ":{"ha":797,"x_min":97,"x_max":713,"o":"m 97 0 l 97 700 l 203 700 l 208 578 l 208 578 q 303 680 242 643 q 444 717 365 717 q 586 684 526 717 q 679 585 646 651 q 713 418 713 519 l 713 0 l 596 0 l 596 406 q 549 564 596 511 q 418 617 503 617 q 314 588 360 617 q 241 506 268 560 q 214 374 214 453 l 214 0 l 97 0 m 331 -331 l 331 -275 q 380 -255 365 -275 q 394 -196 394 -235 l 394 -176 l 332 -176 l 332 -69 l 451 -69 q 461 -124 458 -97 q 464 -172 464 -150 q 429 -293 464 -256 q 331 -331 394 -331 z "},"ñ":{"ha":797,"x_min":97,"x_max":713,"o":"m 97 0 l 97 700 l 203 700 l 208 578 l 208 578 q 303 680 242 643 q 444 717 365 717 q 586 684 526 717 q 679 585 646 651 q 713 418 713 519 l 713 0 l 596 0 l 596 406 q 549 564 596 511 q 418 617 503 617 q 314 588 360 617 q 241 506 268 560 q 214 374 214 453 l 214 0 l 97 0 m 497 792 q 435 808 460 792 q 388 841 410 825 q 338 857 367 857 q 299 842 315 857 q 279 794 283 826 l 211 794 q 256 899 221 864 q 343 935 292 935 q 405 919 381 935 q 451 886 429 903 q 503 869 474 869 q 542 885 526 869 q 563 932 558 901 l 631 932 q 586 828 622 864 q 497 792 550 792 z "},"ŋ":{"ha":797,"x_min":97,"x_max":713,"o":"m 97 0 l 97 700 l 203 700 l 208 578 l 208 578 q 303 680 242 643 q 444 717 365 717 q 586 684 526 717 q 679 585 646 651 q 713 418 713 519 l 713 -114 q 690 -223 713 -181 q 624 -285 668 -265 q 517 -306 581 -306 l 444 -306 l 444 -206 l 499 -206 q 574 -184 551 -206 q 596 -111 596 -162 l 596 406 q 549 564 596 511 q 418 617 503 617 q 314 588 360 617 q 241 506 268 560 q 214 374 214 453 l 214 0 l 97 0 z "},"o":{"ha":824,"x_min":68,"x_max":757,"o":"m 410 -17 q 235 28 313 -17 q 113 156 157 74 q 68 349 68 239 q 113 544 68 461 q 237 672 158 626 q 413 717 315 717 q 590 672 513 717 q 712 544 667 626 q 757 350 757 461 q 711 156 757 239 q 588 28 665 74 q 410 -17 510 -17 m 411 83 q 522 113 471 83 q 606 203 574 143 q 638 350 638 263 q 606 498 638 439 q 524 587 575 557 q 413 617 474 617 q 302 587 354 617 q 219 498 250 557 q 188 350 188 439 q 219 203 188 263 q 301 113 250 143 q 411 83 351 83 z "},"ó":{"ha":824,"x_min":68,"x_max":757,"o":"m 410 -17 q 235 28 313 -17 q 113 156 157 74 q 68 349 68 239 q 113 544 68 461 q 237 672 158 626 q 413 717 315 717 q 590 672 513 717 q 712 544 667 626 q 757 350 757 461 q 711 156 757 239 q 588 28 665 74 q 410 -17 510 -17 m 411 83 q 522 113 471 83 q 606 203 574 143 q 638 350 638 263 q 606 498 638 439 q 524 587 575 557 q 413 617 474 617 q 302 587 354 617 q 219 498 250 557 q 188 350 188 439 q 219 203 188 263 q 301 113 250 143 q 411 83 351 83 m 278 760 l 265 843 l 544 1021 l 544 1021 l 561 921 l 278 760 z "},"ŏ":{"ha":824,"x_min":68,"x_max":757,"o":"m 410 -17 q 235 28 313 -17 q 113 156 157 74 q 68 349 68 239 q 113 544 68 461 q 237 672 158 626 q 413 717 315 717 q 590 672 513 717 q 712 544 667 626 q 757 350 757 461 q 711 156 757 239 q 588 28 665 74 q 410 -17 510 -17 m 411 83 q 522 113 471 83 q 606 203 574 143 q 638 350 638 263 q 606 498 638 439 q 524 587 575 557 q 413 617 474 617 q 302 587 354 617 q 219 498 250 557 q 188 350 188 439 q 219 203 188 263 q 301 113 250 143 q 411 83 351 83 m 414 782 q 307 806 350 782 q 242 872 264 831 q 219 963 219 913 l 219 982 l 289 982 q 318 902 289 931 q 414 874 347 874 q 510 902 481 874 q 539 982 539 931 l 610 982 l 610 963 q 587 872 610 913 q 521 806 564 831 q 414 782 478 782 z "},"ô":{"ha":824,"x_min":68,"x_max":757,"o":"m 410 -17 q 235 28 313 -17 q 113 156 157 74 q 68 349 68 239 q 113 544 68 461 q 237 672 158 626 q 413 717 315 717 q 590 672 513 717 q 712 544 667 626 q 757 350 757 461 q 711 156 757 239 q 588 28 665 74 q 410 -17 510 -17 m 411 83 q 522 113 471 83 q 606 203 574 143 q 638 350 638 263 q 606 498 638 439 q 524 587 575 557 q 413 617 474 617 q 302 587 354 617 q 219 498 250 557 q 188 350 188 439 q 219 203 188 263 q 301 113 250 143 q 411 83 351 83 m 224 764 l 224 856 l 414 968 l 604 856 l 604 764 l 414 881 l 224 764 z "},"ö":{"ha":824,"x_min":68,"x_max":757,"o":"m 410 -17 q 235 28 313 -17 q 113 156 157 74 q 68 349 68 239 q 113 544 68 461 q 237 672 158 626 q 413 717 315 717 q 590 672 513 717 q 712 544 667 626 q 757 350 757 461 q 711 156 757 239 q 588 28 665 74 q 410 -17 510 -17 m 411 83 q 522 113 471 83 q 606 203 574 143 q 638 350 638 263 q 606 498 638 439 q 524 587 575 557 q 413 617 474 617 q 302 587 354 617 q 219 498 250 557 q 188 350 188 439 q 219 203 188 263 q 301 113 250 143 q 411 83 351 83 m 304 792 q 255 812 275 792 q 235 861 235 832 q 255 910 235 889 q 304 931 275 931 q 353 910 332 931 q 374 861 374 889 q 353 812 374 832 q 304 792 332 792 m 526 792 q 477 812 497 792 q 457 861 457 832 q 477 910 457 889 q 526 931 497 931 q 574 910 554 931 q 594 861 594 889 q 574 812 594 832 q 526 792 554 792 z "},"ò":{"ha":824,"x_min":68,"x_max":757,"o":"m 410 -17 q 235 28 313 -17 q 113 156 157 74 q 68 349 68 239 q 113 544 68 461 q 237 672 158 626 q 413 717 315 717 q 590 672 513 717 q 712 544 667 626 q 757 350 757 461 q 711 156 757 239 q 588 28 665 74 q 410 -17 510 -17 m 411 83 q 522 113 471 83 q 606 203 574 143 q 638 350 638 263 q 606 498 638 439 q 524 587 575 557 q 413 617 474 617 q 302 587 354 617 q 219 498 250 557 q 188 350 188 439 q 219 203 188 263 q 301 113 250 143 q 411 83 351 83 m 549 760 l 265 921 l 282 1021 l 282 1021 l 561 843 l 549 760 z "},"ő":{"ha":824,"x_min":68,"x_max":757,"o":"m 410 -17 q 235 28 313 -17 q 113 156 157 74 q 68 349 68 239 q 113 544 68 461 q 237 672 158 626 q 413 717 315 717 q 590 672 513 717 q 712 544 667 626 q 757 350 757 461 q 711 156 757 239 q 588 28 665 74 q 410 -17 510 -17 m 411 83 q 522 113 471 83 q 606 203 574 143 q 638 350 638 263 q 606 498 638 439 q 524 587 575 557 q 413 617 474 617 q 302 587 354 617 q 219 498 250 557 q 188 350 188 439 q 219 203 188 263 q 301 113 250 143 q 411 83 351 83 m 464 774 l 564 981 l 665 981 l 542 774 l 464 774 m 261 774 l 353 981 l 454 981 l 340 774 l 261 774 z "},"ō":{"ha":824,"x_min":68,"x_max":757,"o":"m 410 -17 q 235 28 313 -17 q 113 156 157 74 q 68 349 68 239 q 113 544 68 461 q 237 672 158 626 q 413 717 315 717 q 590 672 513 717 q 712 544 667 626 q 757 350 757 461 q 711 156 757 239 q 588 28 665 74 q 410 -17 510 -17 m 411 83 q 522 113 471 83 q 606 203 574 143 q 638 350 638 263 q 606 498 638 439 q 524 587 575 557 q 413 617 474 617 q 302 587 354 617 q 219 498 250 557 q 188 350 188 439 q 219 203 188 263 q 301 113 250 143 q 411 83 351 83 m 172 825 l 172 913 l 654 913 l 654 825 l 172 825 z "},"ø":{"ha":829,"x_min":56,"x_max":772,"o":"m 56 0 l 663 700 l 772 700 l 167 0 l 56 0 m 413 -17 q 238 28 315 -17 q 115 156 160 74 q 69 349 69 239 q 115 544 69 461 q 240 672 161 626 q 415 717 318 717 q 592 672 514 717 q 714 544 669 626 q 758 350 758 461 q 713 156 758 239 q 590 28 668 74 q 413 -17 511 -17 m 413 83 q 525 113 474 83 q 608 203 576 143 q 639 350 639 263 q 608 498 639 439 q 526 587 578 557 q 415 617 475 617 q 305 587 357 617 q 221 498 253 557 q 189 350 189 439 q 221 203 189 263 q 303 113 253 143 q 413 83 354 83 z "},"õ":{"ha":824,"x_min":68,"x_max":757,"o":"m 410 -17 q 235 28 313 -17 q 113 156 157 74 q 68 349 68 239 q 113 544 68 461 q 237 672 158 626 q 413 717 315 717 q 590 672 513 717 q 712 544 667 626 q 757 350 757 461 q 711 156 757 239 q 588 28 665 74 q 410 -17 510 -17 m 411 83 q 522 113 471 83 q 606 203 574 143 q 638 350 638 263 q 606 498 638 439 q 524 587 575 557 q 413 617 474 617 q 302 587 354 617 q 219 498 250 557 q 188 350 188 439 q 219 203 188 263 q 301 113 250 143 q 411 83 351 83 m 490 792 q 428 808 453 792 q 381 841 403 825 q 331 857 360 857 q 292 842 308 857 q 272 794 276 826 l 204 794 q 249 899 214 864 q 336 935 285 935 q 398 919 374 935 q 444 886 422 903 q 496 869 467 869 q 535 885 519 869 q 556 932 551 901 l 624 932 q 579 828 615 864 q 490 792 543 792 z "},"œ":{"ha":1360,"x_min":68,"x_max":1301,"o":"m 411 -17 q 235 28 313 -17 q 113 156 157 74 q 68 350 68 239 q 113 544 68 461 q 237 672 158 626 q 414 717 315 717 q 579 676 507 717 q 692 558 651 635 q 808 675 735 633 q 978 717 882 717 q 1152 671 1079 717 q 1263 551 1225 625 q 1301 388 1301 476 q 1301 358 1301 374 q 1299 324 1300 343 l 753 324 q 789 189 757 243 q 870 108 821 135 q 975 82 919 82 q 1103 119 1053 82 q 1175 219 1153 156 l 1288 219 q 1229 99 1271 151 q 1124 15 1188 46 q 975 -17 1060 -17 q 809 25 882 -17 q 693 142 736 67 q 578 25 651 67 q 411 -17 506 -17 m 411 83 q 522 113 471 83 q 606 203 574 143 q 638 350 638 263 q 606 498 638 439 q 524 587 575 557 q 414 617 474 617 q 302 587 354 617 q 219 498 250 557 q 188 350 188 439 q 219 203 188 263 q 301 113 250 143 q 411 83 351 83 m 754 414 l 1186 414 q 1122 564 1182 510 q 975 618 1063 618 q 872 595 919 618 q 792 526 824 572 q 754 414 761 481 z "},"p":{"ha":871,"x_min":97,"x_max":803,"o":"m 97 -306 l 97 700 l 203 700 l 213 586 l 213 586 q 269 649 235 619 q 353 698 304 679 q 465 717 401 717 q 642 668 567 717 q 760 537 718 619 q 803 349 803 454 q 760 160 803 243 q 642 31 718 78 q 464 -17 565 -17 q 314 18 379 -17 q 214 115 249 53 l 214 -306 l 97 -306 m 450 85 q 572 118 518 85 q 655 210 625 151 q 685 350 685 269 q 655 489 685 429 q 572 582 625 549 q 450 615 518 615 q 328 582 381 615 q 246 489 275 549 q 217 350 217 429 q 246 210 217 269 q 328 118 275 151 q 450 85 381 85 z "},"þ":{"ha":871,"x_min":97,"x_max":803,"o":"m 97 -306 l 97 1000 l 213 1000 l 213 586 q 269 649 235 619 q 353 698 304 679 q 465 717 401 717 q 642 669 567 717 q 760 538 718 621 q 803 349 803 454 q 760 160 803 243 q 642 31 718 78 q 464 -17 565 -17 q 314 18 379 -17 q 214 115 249 53 l 214 -306 l 97 -306 m 450 85 q 572 118 519 85 q 655 210 625 151 q 685 350 685 269 q 655 489 685 429 q 572 582 625 549 q 450 615 519 615 q 328 582 381 615 q 246 489 275 549 q 217 350 217 429 q 246 210 217 269 q 328 118 275 151 q 450 85 381 85 z "},"q":{"ha":871,"x_min":68,"x_max":775,"o":"m 658 -306 l 658 114 q 560 22 624 60 q 407 -17 497 -17 q 228 31 306 -17 q 110 162 151 79 q 68 350 68 244 q 110 538 68 456 q 228 669 151 621 q 407 717 306 717 q 515 700 467 717 q 599 653 563 683 q 658 585 635 624 l 658 585 l 669 700 l 775 700 l 775 -306 l 658 -306 m 419 85 q 542 118 489 85 q 624 210 594 151 q 654 350 654 269 q 624 489 654 429 q 542 582 594 549 q 419 615 489 615 q 299 582 353 615 q 217 489 246 549 q 188 350 188 429 q 217 210 188 269 q 299 118 246 151 q 419 85 353 85 z "},"r":{"ha":514,"x_min":97,"x_max":479,"o":"m 97 0 l 97 700 l 203 700 l 211 567 l 211 567 q 272 647 235 614 q 360 699 308 681 q 479 717 413 717 l 479 594 l 436 594 q 351 583 392 594 q 280 544 311 571 q 231 473 249 518 q 214 361 214 428 l 214 0 l 97 0 z "},"ŕ":{"ha":514,"x_min":97,"x_max":479,"o":"m 97 0 l 97 700 l 203 700 l 211 567 l 211 567 q 272 647 235 614 q 360 699 308 681 q 479 717 413 717 l 479 594 l 436 594 q 351 583 392 594 q 280 544 311 571 q 231 473 249 518 q 214 361 214 428 l 214 0 l 97 0 m 169 760 l 157 843 l 436 1021 l 436 1021 l 453 921 l 169 760 z "},"ř":{"ha":514,"x_min":97,"x_max":496,"o":"m 97 0 l 97 700 l 203 700 l 211 567 l 211 567 q 272 647 235 614 q 360 699 308 681 q 479 717 413 717 l 479 594 l 436 594 q 351 583 392 594 q 280 544 311 571 q 231 473 249 518 q 214 361 214 428 l 214 0 l 97 0 m 306 782 l 115 896 l 115 986 l 306 869 l 496 986 l 496 896 l 306 782 z "},"ŗ":{"ha":514,"x_min":90,"x_max":479,"o":"m 97 0 l 97 700 l 203 700 l 211 567 l 211 567 q 272 647 235 614 q 360 699 308 681 q 479 717 413 717 l 479 594 l 436 594 q 351 583 392 594 q 280 544 311 571 q 231 473 249 518 q 214 361 214 428 l 214 0 l 97 0 m 90 -331 l 90 -275 q 140 -255 125 -275 q 154 -196 154 -235 l 154 -176 l 92 -176 l 92 -69 l 211 -69 q 221 -124 218 -97 q 224 -172 224 -150 q 189 -293 224 -256 q 90 -331 154 -331 z "},"s":{"ha":697,"x_min":60,"x_max":626,"o":"m 361 -17 q 210 13 275 -17 q 106 94 144 42 q 60 217 68 146 l 179 217 q 208 150 186 181 q 269 101 231 119 q 363 82 307 82 q 443 97 411 82 q 491 136 475 111 q 507 190 507 161 q 487 256 507 233 q 428 291 467 278 q 333 314 389 304 q 243 336 288 322 q 164 373 199 350 q 109 429 129 396 q 89 511 89 463 q 120 617 89 571 q 208 690 151 664 q 342 717 265 717 q 524 663 454 717 q 606 506 593 608 l 490 506 q 445 588 483 558 q 340 618 407 618 q 241 592 275 618 q 207 522 207 565 q 226 473 207 494 q 282 436 244 451 q 372 411 319 421 q 499 378 442 399 q 591 316 556 357 q 626 200 626 275 q 594 86 626 135 q 501 10 561 38 q 361 -17 442 -17 z "},"ś":{"ha":697,"x_min":60,"x_max":626,"o":"m 361 -17 q 210 13 275 -17 q 106 94 144 42 q 60 217 68 146 l 179 217 q 208 150 186 181 q 269 101 231 119 q 363 82 307 82 q 443 97 411 82 q 491 136 475 111 q 507 190 507 161 q 487 256 507 233 q 428 291 467 278 q 333 314 389 304 q 243 336 288 322 q 164 373 199 350 q 109 429 129 396 q 89 511 89 463 q 120 617 89 571 q 208 690 151 664 q 342 717 265 717 q 524 663 454 717 q 606 506 593 608 l 490 506 q 445 588 483 558 q 340 618 407 618 q 241 592 275 618 q 207 522 207 565 q 226 473 207 494 q 282 436 244 451 q 372 411 319 421 q 499 378 442 399 q 591 316 556 357 q 626 200 626 275 q 594 86 626 135 q 501 10 561 38 q 361 -17 442 -17 m 210 760 l 197 843 l 476 1021 l 476 1021 l 493 921 l 210 760 z "},"š":{"ha":697,"x_min":60,"x_max":626,"o":"m 361 -17 q 210 13 275 -17 q 106 94 144 42 q 60 217 68 146 l 179 217 q 208 150 186 181 q 269 101 231 119 q 363 82 307 82 q 443 97 411 82 q 491 136 475 111 q 507 190 507 161 q 487 256 507 233 q 428 291 467 278 q 333 314 389 304 q 243 336 288 322 q 164 373 199 350 q 109 429 129 396 q 89 511 89 463 q 120 617 89 571 q 208 690 151 664 q 342 717 265 717 q 524 663 454 717 q 606 506 593 608 l 490 506 q 445 588 483 558 q 340 618 407 618 q 241 592 275 618 q 207 522 207 565 q 226 473 207 494 q 282 436 244 451 q 372 411 319 421 q 499 378 442 399 q 591 316 556 357 q 626 200 626 275 q 594 86 626 135 q 501 10 561 38 q 361 -17 442 -17 m 346 782 l 156 896 l 156 986 l 346 869 l 536 986 l 536 896 l 346 782 z "},"ş":{"ha":697,"x_min":60,"x_max":626,"o":"m 361 -17 q 210 13 275 -17 q 106 94 144 42 q 60 217 68 146 l 179 217 q 208 150 186 181 q 269 101 231 119 q 363 82 307 82 q 443 97 411 82 q 491 136 475 111 q 507 190 507 161 q 487 256 507 233 q 428 291 467 278 q 333 314 389 304 q 243 336 288 322 q 164 373 199 350 q 109 429 129 396 q 89 511 89 463 q 120 617 89 571 q 208 690 151 664 q 342 717 265 717 q 524 663 454 717 q 606 506 593 608 l 490 506 q 445 588 483 558 q 340 618 407 618 q 241 592 275 618 q 207 522 207 565 q 226 473 207 494 q 282 436 244 451 q 372 411 319 421 q 499 378 442 399 q 591 316 556 357 q 626 200 626 275 q 594 86 626 135 q 501 10 561 38 q 361 -17 442 -17 m 254 -361 l 254 -287 l 382 -287 q 453 -271 431 -287 q 476 -221 476 -254 q 453 -174 476 -190 q 382 -158 431 -158 l 314 -158 l 314 8 l 392 8 l 392 -89 q 485 -102 444 -87 q 548 -147 525 -117 q 571 -222 571 -178 q 549 -297 571 -265 q 490 -344 528 -328 q 403 -361 451 -361 l 254 -361 z "},"ș":{"ha":697,"x_min":60,"x_max":626,"o":"m 361 -17 q 210 13 275 -17 q 106 94 144 42 q 60 217 68 146 l 179 217 q 208 150 186 181 q 269 101 231 119 q 363 82 307 82 q 443 97 411 82 q 491 136 475 111 q 507 190 507 161 q 487 256 507 233 q 428 291 467 278 q 333 314 389 304 q 243 336 288 322 q 164 373 199 350 q 109 429 129 396 q 89 511 89 463 q 120 617 89 571 q 208 690 151 664 q 342 717 265 717 q 524 663 454 717 q 606 506 593 608 l 490 506 q 445 588 483 558 q 340 618 407 618 q 241 592 275 618 q 207 522 207 565 q 226 473 207 494 q 282 436 244 451 q 372 411 319 421 q 499 378 442 399 q 591 316 556 357 q 626 200 626 275 q 594 86 626 135 q 501 10 561 38 q 361 -17 442 -17 m 281 -331 l 281 -275 q 330 -255 315 -275 q 344 -196 344 -235 l 344 -176 l 282 -176 l 282 -69 l 401 -69 q 411 -124 408 -97 q 414 -172 414 -150 q 379 -293 414 -256 q 281 -331 344 -331 z "},"ß":{"ha":917,"x_min":99,"x_max":863,"o":"m 606 -14 q 413 52 488 -14 q 326 235 338 118 l 442 235 q 491 121 449 164 q 604 78 533 78 q 708 110 671 78 q 744 200 744 143 q 713 284 744 253 q 603 342 682 315 q 447 418 494 379 q 400 521 400 457 q 420 590 400 563 q 469 636 440 617 q 528 675 499 656 q 577 719 557 694 q 597 781 597 743 q 549 881 597 844 q 414 918 500 918 q 263 862 313 918 q 214 710 214 806 l 214 0 l 99 0 l 99 721 q 135 874 99 807 q 242 978 171 940 q 417 1017 313 1017 q 580 986 514 1017 q 680 904 646 956 q 714 790 714 853 q 694 709 714 742 q 646 655 675 676 q 587 617 617 633 q 538 581 557 600 q 518 536 518 563 q 531 498 518 515 q 578 464 544 481 q 674 426 613 447 q 819 340 775 392 q 863 208 863 288 q 831 92 863 143 q 743 14 800 42 q 606 -14 686 -14 z "},"t":{"ha":544,"x_min":47,"x_max":489,"o":"m 372 0 q 264 19 310 0 q 194 85 218 39 q 169 211 169 132 l 169 601 l 47 601 l 47 700 l 169 700 l 185 869 l 286 869 l 286 700 l 489 700 l 489 601 l 286 601 l 286 211 q 313 123 286 146 q 406 100 339 100 l 481 100 l 481 0 l 372 0 z "},"ť":{"ha":544,"x_min":47,"x_max":507,"o":"m 372 0 q 264 19 310 0 q 194 85 218 39 q 169 211 169 132 l 169 601 l 47 601 l 47 700 l 169 700 l 185 869 l 286 869 l 286 700 l 489 700 l 489 601 l 286 601 l 286 211 q 313 123 286 146 q 406 100 339 100 l 481 100 l 481 0 l 372 0 m 369 765 l 369 821 q 421 834 406 821 q 436 874 436 847 l 436 903 l 369 903 l 369 1018 l 492 1018 q 503 956 499 982 q 507 901 507 929 q 471 797 507 829 q 369 765 435 765 z "},"ţ":{"ha":544,"x_min":47,"x_max":564,"o":"m 372 0 q 264 19 310 0 q 194 85 218 39 q 169 211 169 132 l 169 601 l 47 601 l 47 700 l 169 700 l 185 869 l 286 869 l 286 700 l 489 700 l 489 601 l 286 601 l 286 211 q 313 123 286 146 q 406 100 339 100 l 481 100 l 481 0 l 372 0 m 247 -361 l 247 -287 l 375 -287 q 447 -271 424 -287 q 469 -221 469 -254 q 447 -174 469 -190 q 375 -158 424 -158 l 307 -158 l 307 8 l 385 8 l 385 -89 q 478 -102 438 -87 q 541 -147 518 -117 q 564 -222 564 -178 q 542 -297 564 -265 q 483 -344 521 -328 q 396 -361 444 -361 l 247 -361 z "},"ț":{"ha":544,"x_min":47,"x_max":489,"o":"m 372 0 q 264 19 310 0 q 194 85 218 39 q 169 211 169 132 l 169 601 l 47 601 l 47 700 l 169 700 l 185 869 l 286 869 l 286 700 l 489 700 l 489 601 l 286 601 l 286 211 q 313 123 286 146 q 406 100 339 100 l 481 100 l 481 0 l 372 0 m 274 -331 l 274 -275 q 323 -255 308 -275 q 338 -196 338 -235 l 338 -176 l 275 -176 l 275 -69 l 394 -69 q 404 -124 401 -97 q 407 -172 407 -150 q 372 -293 407 -256 q 274 -331 338 -331 z "},"u":{"ha":796,"x_min":85,"x_max":700,"o":"m 351 -17 q 210 15 271 -17 q 117 114 150 47 q 85 281 85 181 l 85 700 l 201 700 l 201 293 q 247 136 201 189 q 376 83 293 83 q 482 112 435 83 q 556 194 529 140 q 583 326 583 247 l 583 700 l 700 700 l 700 0 l 594 0 l 588 122 l 588 122 q 493 20 556 57 q 351 -17 431 -17 z "},"ú":{"ha":796,"x_min":85,"x_max":700,"o":"m 351 -17 q 210 15 271 -17 q 117 114 150 47 q 85 281 85 181 l 85 700 l 201 700 l 201 293 q 247 136 201 189 q 376 83 293 83 q 482 112 435 83 q 556 194 529 140 q 583 326 583 247 l 583 700 l 700 700 l 700 0 l 594 0 l 588 122 l 588 122 q 493 20 556 57 q 351 -17 431 -17 m 253 760 l 240 843 l 519 1021 l 519 1021 l 536 921 l 253 760 z "},"ŭ":{"ha":796,"x_min":85,"x_max":700,"o":"m 351 -17 q 210 15 271 -17 q 117 114 150 47 q 85 281 85 181 l 85 700 l 201 700 l 201 293 q 247 136 201 189 q 376 83 293 83 q 482 112 435 83 q 556 194 529 140 q 583 326 583 247 l 583 700 l 700 700 l 700 0 l 594 0 l 588 122 l 588 122 q 493 20 556 57 q 351 -17 431 -17 m 389 782 q 282 806 325 782 q 217 872 239 831 q 194 963 194 913 l 194 982 l 264 982 q 293 902 264 931 q 389 874 322 874 q 485 902 456 874 q 514 982 514 931 l 585 982 l 585 963 q 562 872 585 913 q 496 806 539 831 q 389 782 453 782 z "},"û":{"ha":796,"x_min":85,"x_max":700,"o":"m 351 -17 q 210 15 271 -17 q 117 114 150 47 q 85 281 85 181 l 85 700 l 201 700 l 201 293 q 247 136 201 189 q 376 83 293 83 q 482 112 435 83 q 556 194 529 140 q 583 326 583 247 l 583 700 l 700 700 l 700 0 l 594 0 l 588 122 l 588 122 q 493 20 556 57 q 351 -17 431 -17 m 199 764 l 199 856 l 389 968 l 579 856 l 579 764 l 389 881 l 199 764 z "},"ü":{"ha":796,"x_min":85,"x_max":700,"o":"m 351 -17 q 210 15 271 -17 q 117 114 150 47 q 85 281 85 181 l 85 700 l 201 700 l 201 293 q 247 136 201 189 q 376 83 293 83 q 482 112 435 83 q 556 194 529 140 q 583 326 583 247 l 583 700 l 700 700 l 700 0 l 594 0 l 588 122 l 588 122 q 493 20 556 57 q 351 -17 431 -17 m 279 792 q 230 812 250 792 q 210 861 210 832 q 230 910 210 889 q 279 931 250 931 q 328 910 307 931 q 349 861 349 889 q 328 812 349 832 q 279 792 307 792 m 501 792 q 452 812 472 792 q 432 861 432 832 q 452 910 432 889 q 501 931 472 931 q 549 910 529 931 q 569 861 569 889 q 549 812 569 832 q 501 792 529 792 z "},"ù":{"ha":796,"x_min":85,"x_max":700,"o":"m 351 -17 q 210 15 271 -17 q 117 114 150 47 q 85 281 85 181 l 85 700 l 201 700 l 201 293 q 247 136 201 189 q 376 83 293 83 q 482 112 435 83 q 556 194 529 140 q 583 326 583 247 l 583 700 l 700 700 l 700 0 l 594 0 l 588 122 l 588 122 q 493 20 556 57 q 351 -17 431 -17 m 524 760 l 240 921 l 257 1021 l 257 1021 l 536 843 l 524 760 z "},"ű":{"ha":796,"x_min":85,"x_max":700,"o":"m 351 -17 q 210 15 271 -17 q 117 114 150 47 q 85 281 85 181 l 85 700 l 201 700 l 201 293 q 247 136 201 189 q 376 83 293 83 q 482 112 435 83 q 556 194 529 140 q 583 326 583 247 l 583 700 l 700 700 l 700 0 l 594 0 l 588 122 l 588 122 q 493 20 556 57 q 351 -17 431 -17 m 439 774 l 539 981 l 640 981 l 517 774 l 439 774 m 236 774 l 328 981 l 429 981 l 315 774 l 236 774 z "},"ū":{"ha":796,"x_min":85,"x_max":700,"o":"m 351 -17 q 210 15 271 -17 q 117 114 150 47 q 85 281 85 181 l 85 700 l 201 700 l 201 293 q 247 136 201 189 q 376 83 293 83 q 482 112 435 83 q 556 194 529 140 q 583 326 583 247 l 583 700 l 700 700 l 700 0 l 594 0 l 588 122 l 588 122 q 493 20 556 57 q 351 -17 431 -17 m 147 825 l 147 913 l 629 913 l 629 825 l 147 825 z "},"ų":{"ha":796,"x_min":85,"x_max":704,"o":"m 351 -17 q 210 15 271 -17 q 117 114 150 47 q 85 281 85 181 l 85 700 l 201 700 l 201 293 q 247 136 201 189 q 376 83 293 83 q 482 112 435 83 q 556 194 529 140 q 583 326 583 247 l 583 700 l 700 700 l 700 0 l 594 0 l 588 122 l 588 122 q 493 20 556 57 q 351 -17 431 -17 m 600 -282 q 521 -269 558 -282 q 460 -226 483 -256 q 436 -150 436 -197 q 451 -87 436 -117 q 502 -28 467 -57 q 597 28 538 1 l 671 60 l 700 0 l 619 -39 q 551 -87 571 -62 q 531 -139 531 -112 q 553 -189 531 -171 q 614 -207 576 -207 q 658 -201 633 -207 q 704 -186 682 -196 l 704 -264 q 655 -277 682 -272 q 600 -282 628 -282 z "},"ů":{"ha":796,"x_min":85,"x_max":700,"o":"m 351 -17 q 210 15 271 -17 q 117 114 150 47 q 85 281 85 181 l 85 700 l 201 700 l 201 293 q 247 136 201 189 q 376 83 293 83 q 482 112 435 83 q 556 194 529 140 q 583 326 583 247 l 583 700 l 700 700 l 700 0 l 594 0 l 588 122 l 588 122 q 493 20 556 57 q 351 -17 431 -17 m 389 792 q 286 830 329 792 q 243 935 243 868 q 286 1040 243 1001 q 389 1078 329 1078 q 492 1040 450 1078 q 535 935 535 1001 q 492 830 535 868 q 389 792 450 792 m 389 851 q 445 874 422 851 q 468 935 468 897 q 445 995 468 974 q 389 1017 422 1017 q 333 995 357 1017 q 310 935 310 974 q 333 874 310 897 q 389 851 357 851 z "},"ũ":{"ha":796,"x_min":85,"x_max":700,"o":"m 351 -17 q 210 15 271 -17 q 117 114 150 47 q 85 281 85 181 l 85 700 l 201 700 l 201 293 q 247 136 201 189 q 376 83 293 83 q 482 112 435 83 q 556 194 529 140 q 583 326 583 247 l 583 700 l 700 700 l 700 0 l 594 0 l 588 122 l 588 122 q 493 20 556 57 q 351 -17 431 -17 m 465 792 q 403 808 428 792 q 356 841 378 825 q 306 857 335 857 q 267 842 283 857 q 247 794 251 826 l 179 794 q 224 899 189 864 q 311 935 260 935 q 373 919 349 935 q 419 886 397 903 q 471 869 442 869 q 510 885 494 869 q 531 932 526 901 l 599 932 q 554 828 590 864 q 465 792 518 792 z "},"v":{"ha":732,"x_min":33,"x_max":699,"o":"m 299 0 l 33 700 l 156 700 l 367 113 l 367 113 l 579 700 l 699 700 l 433 0 l 299 0 z "},"w":{"ha":1060,"x_min":33,"x_max":1025,"o":"m 239 0 l 33 700 l 150 700 l 310 110 l 289 110 l 463 700 l 594 700 l 771 111 l 749 110 l 907 700 l 1025 700 l 821 0 l 701 0 l 518 617 l 542 617 l 358 0 l 239 0 z "},"ẃ":{"ha":1060,"x_min":33,"x_max":1025,"o":"m 239 0 l 33 700 l 150 700 l 310 110 l 289 110 l 463 700 l 594 700 l 771 111 l 749 110 l 907 700 l 1025 700 l 821 0 l 701 0 l 518 617 l 542 617 l 358 0 l 239 0 m 394 760 l 382 843 l 661 1021 l 661 1021 l 678 921 l 394 760 z "},"ŵ":{"ha":1060,"x_min":33,"x_max":1025,"o":"m 239 0 l 33 700 l 150 700 l 310 110 l 289 110 l 463 700 l 594 700 l 771 111 l 749 110 l 907 700 l 1025 700 l 821 0 l 701 0 l 518 617 l 542 617 l 358 0 l 239 0 m 339 764 l 339 856 l 529 968 l 719 856 l 719 764 l 529 881 l 339 764 z "},"ẅ":{"ha":1060,"x_min":33,"x_max":1025,"o":"m 239 0 l 33 700 l 150 700 l 310 110 l 289 110 l 463 700 l 594 700 l 771 111 l 749 110 l 907 700 l 1025 700 l 821 0 l 701 0 l 518 617 l 542 617 l 358 0 l 239 0 m 419 792 q 370 812 390 792 q 350 861 350 832 q 370 910 350 889 q 419 931 390 931 q 468 910 447 931 q 489 861 489 889 q 468 812 489 832 q 419 792 447 792 m 642 792 q 592 812 613 792 q 572 861 572 832 q 592 910 572 889 q 642 931 613 931 q 690 910 669 931 q 710 861 710 889 q 690 812 710 832 q 642 792 669 792 z "},"ẁ":{"ha":1060,"x_min":33,"x_max":1025,"o":"m 239 0 l 33 700 l 150 700 l 310 110 l 289 110 l 463 700 l 594 700 l 771 111 l 749 110 l 907 700 l 1025 700 l 821 0 l 701 0 l 518 617 l 542 617 l 358 0 l 239 0 m 665 760 l 382 921 l 399 1021 l 399 1021 l 678 843 l 665 760 z "},"x":{"ha":689,"x_min":28,"x_max":661,"o":"m 28 0 l 265 350 l 28 700 l 156 700 l 344 414 l 344 414 l 536 700 l 661 700 l 424 350 l 661 0 l 536 0 l 344 288 l 344 288 l 156 0 l 28 0 z "},"y":{"ha":772,"x_min":29,"x_max":744,"o":"m 174 -306 l 344 78 l 304 78 l 29 700 l 156 700 l 383 165 l 383 165 l 624 700 l 744 700 l 296 -306 l 174 -306 z "},"ý":{"ha":772,"x_min":29,"x_max":744,"o":"m 174 -306 l 344 78 l 304 78 l 29 700 l 156 700 l 383 165 l 383 165 l 624 700 l 744 700 l 296 -306 l 174 -306 m 251 760 l 239 843 l 518 1021 l 518 1021 l 535 921 l 251 760 z "},"ŷ":{"ha":772,"x_min":29,"x_max":744,"o":"m 174 -306 l 344 78 l 304 78 l 29 700 l 156 700 l 383 165 l 383 165 l 624 700 l 744 700 l 296 -306 l 174 -306 m 196 764 l 196 856 l 386 968 l 576 856 l 576 764 l 386 881 l 196 764 z "},"ÿ":{"ha":772,"x_min":29,"x_max":744,"o":"m 174 -306 l 344 78 l 304 78 l 29 700 l 156 700 l 383 165 l 383 165 l 624 700 l 744 700 l 296 -306 l 174 -306 m 276 792 q 227 812 247 792 q 207 861 207 832 q 227 910 207 889 q 276 931 247 931 q 325 910 304 931 q 346 861 346 889 q 325 812 346 832 q 276 792 304 792 m 499 792 q 449 812 469 792 q 429 861 429 832 q 449 910 429 889 q 499 931 469 931 q 547 910 526 931 q 567 861 567 889 q 547 812 567 832 q 499 792 526 792 z "},"ỳ":{"ha":772,"x_min":29,"x_max":744,"o":"m 174 -306 l 344 78 l 304 78 l 29 700 l 156 700 l 383 165 l 383 165 l 624 700 l 744 700 l 296 -306 l 174 -306 m 522 760 l 239 921 l 256 1021 l 256 1021 l 535 843 l 522 760 z "},"ỹ":{"ha":772,"x_min":29,"x_max":744,"o":"m 174 -306 l 344 78 l 304 78 l 29 700 l 156 700 l 383 165 l 383 165 l 624 700 l 744 700 l 296 -306 l 174 -306 m 463 792 q 400 808 425 792 q 353 841 375 825 q 303 857 332 857 q 265 842 281 857 q 244 794 249 826 l 176 794 q 222 899 186 864 q 308 935 257 935 q 370 919 346 935 q 417 886 394 903 q 468 869 439 869 q 508 885 492 869 q 528 932 524 901 l 596 932 q 551 828 588 864 q 463 792 515 792 z "},"z":{"ha":636,"x_min":50,"x_max":578,"o":"m 50 0 l 50 96 l 438 603 l 57 603 l 57 700 l 571 700 l 571 604 l 182 97 l 578 97 l 578 0 l 50 0 z "},"ź":{"ha":636,"x_min":50,"x_max":578,"o":"m 50 0 l 50 96 l 438 603 l 57 603 l 57 700 l 571 700 l 571 604 l 182 97 l 578 97 l 578 0 l 50 0 m 181 760 l 168 843 l 447 1021 l 447 1021 l 464 921 l 181 760 z "},"ž":{"ha":636,"x_min":50,"x_max":578,"o":"m 50 0 l 50 96 l 438 603 l 57 603 l 57 700 l 571 700 l 571 604 l 182 97 l 578 97 l 578 0 l 50 0 m 317 782 l 126 896 l 126 986 l 317 869 l 507 986 l 507 896 l 317 782 z "},"ż":{"ha":636,"x_min":50,"x_max":578,"o":"m 50 0 l 50 96 l 438 603 l 57 603 l 57 700 l 571 700 l 571 604 l 182 97 l 578 97 l 578 0 l 50 0 m 317 793 q 268 814 289 793 q 247 863 247 835 q 268 911 247 890 q 317 932 289 932 q 365 911 344 932 q 386 863 386 890 q 365 814 386 835 q 317 793 344 793 z "},"ﬁ":{"ha":782,"x_min":29,"x_max":697,"o":"m 136 0 l 136 601 l 29 601 l 29 700 l 136 700 l 136 808 q 158 917 136 875 q 224 980 181 960 q 332 1000 268 1000 l 401 1000 l 401 900 l 350 900 q 276 879 299 900 q 253 806 253 858 l 253 700 l 674 700 l 674 0 l 557 0 l 557 601 l 253 601 l 253 0 l 136 0 m 617 833 q 560 856 583 833 q 536 914 536 879 q 560 970 536 949 q 617 992 583 992 q 674 970 651 992 q 697 914 697 949 q 674 856 697 879 q 617 833 651 833 z "},"ﬂ":{"ha":782,"x_min":29,"x_max":686,"o":"m 136 0 l 136 808 q 158 917 136 875 q 224 980 181 960 q 332 1000 268 1000 l 411 1000 l 411 900 l 350 900 q 276 879 299 900 q 253 806 253 858 l 253 0 l 136 0 m 29 601 l 29 700 l 429 700 l 429 601 l 29 601 m 569 0 l 569 1000 l 686 1000 l 686 0 l 569 0 z "},"ª":{"ha":664,"x_min":71,"x_max":579,"o":"m 303 482 q 183 514 236 482 q 101 603 131 546 q 71 735 71 661 q 101 866 71 810 q 183 953 131 922 q 300 985 235 985 q 418 955 371 985 q 486 881 465 925 l 496 976 l 579 976 l 579 490 l 496 490 l 486 586 l 486 586 q 419 511 467 540 q 303 482 372 482 m 325 556 q 407 577 371 556 q 465 638 443 599 q 486 733 486 678 q 440 865 486 818 q 325 911 393 911 q 213 865 260 911 q 167 735 167 818 q 213 603 167 650 q 325 556 260 556 z "},"º":{"ha":638,"x_min":68,"x_max":569,"o":"m 317 483 q 187 515 243 483 q 99 604 131 547 q 68 736 68 661 q 100 869 68 813 q 189 958 132 926 q 318 989 246 989 q 449 958 393 989 q 538 869 506 926 q 569 736 569 813 q 537 604 569 661 q 448 515 504 547 q 317 483 392 483 m 317 560 q 396 580 361 560 q 452 640 431 600 q 474 736 474 679 q 452 835 474 796 q 396 895 431 875 q 317 915 361 915 q 240 895 275 915 q 184 835 204 875 q 164 736 164 796 q 184 640 164 679 q 239 580 204 600 q 317 560 274 560 z "},"π":{"ha":897,"x_min":64,"x_max":833,"o":"m 174 0 l 174 608 l 64 608 l 64 700 l 833 700 l 833 608 l 724 608 l 724 0 l 607 0 l 607 608 l 290 608 l 290 0 l 174 0 z "},"⁄":{"ha":599,"x_min":-33,"x_max":650,"o":"m -33 0 l 532 972 l 650 972 l 83 0 l -33 0 z "},"½":{"ha":1035,"x_min":39,"x_max":979,"o":"m 132 489 l 132 886 l 39 861 l 39 919 l 164 978 l 225 978 l 225 489 l 132 489 m 111 0 l 676 972 l 794 972 l 228 0 l 111 0 m 625 0 l 625 67 l 781 194 q 848 263 821 228 q 875 344 875 297 q 853 406 875 385 q 799 426 831 426 q 742 405 763 426 q 715 344 721 383 l 622 344 q 672 453 626 408 q 804 497 718 497 q 895 477 857 497 q 953 424 933 457 q 974 349 974 390 q 940 249 974 292 q 840 158 906 207 l 728 75 l 979 75 l 979 0 l 625 0 z "},"¼":{"ha":981,"x_min":39,"x_max":958,"o":"m 132 489 l 132 886 l 39 861 l 39 919 l 164 978 l 225 978 l 225 489 l 132 489 m 111 0 l 676 972 l 794 972 l 228 0 l 111 0 m 803 0 l 803 92 l 564 92 l 564 161 l 792 483 l 894 483 l 894 167 l 958 167 l 958 92 l 894 92 l 894 0 l 803 0 m 661 167 l 810 167 l 810 383 l 810 383 l 661 167 z "},"¾":{"ha":1128,"x_min":36,"x_max":1106,"o":"m 224 482 q 91 520 139 482 q 36 631 43 558 l 129 631 q 146 584 133 601 q 178 560 158 567 q 222 553 199 553 q 288 573 264 553 q 313 628 313 593 q 285 685 313 665 q 218 706 258 706 l 154 706 l 154 763 l 217 763 q 283 782 257 763 q 308 839 308 801 q 285 894 308 874 q 221 914 261 914 q 159 897 182 914 q 129 849 136 879 l 42 849 q 69 919 46 888 q 132 968 92 950 q 229 986 172 986 q 356 946 304 986 q 407 844 407 906 q 383 774 407 801 q 317 735 358 746 l 317 732 q 384 691 357 719 q 411 617 411 663 q 361 522 411 561 q 224 482 311 482 m 258 0 l 824 972 l 942 972 l 375 0 l 258 0 m 950 0 l 950 92 l 711 92 l 711 161 l 939 483 l 1042 483 l 1042 167 l 1106 167 l 1106 92 l 1042 92 l 1042 0 l 950 0 m 808 167 l 957 167 l 957 383 l 957 383 l 808 167 z "},"¹":{"ha":283,"x_min":39,"x_max":225,"o":"m 132 489 l 132 886 l 39 861 l 39 919 l 164 978 l 225 978 l 225 489 l 132 489 z "},"²":{"ha":458,"x_min":46,"x_max":403,"o":"m 49 489 l 49 556 l 204 683 q 272 751 244 717 q 299 833 299 786 q 276 894 299 874 q 222 915 254 915 q 165 894 186 915 q 139 833 144 872 l 46 833 q 96 942 50 897 q 228 986 142 986 q 319 966 281 986 q 377 913 357 946 q 397 838 397 879 q 363 738 397 781 q 264 647 329 696 l 151 564 l 403 564 l 403 489 l 49 489 z "},"³":{"ha":458,"x_min":36,"x_max":411,"o":"m 224 482 q 91 520 139 482 q 36 631 43 558 l 129 631 q 146 584 133 601 q 178 560 158 567 q 222 553 199 553 q 288 573 264 553 q 313 628 313 593 q 285 685 313 665 q 218 706 258 706 l 154 706 l 154 763 l 217 763 q 283 782 257 763 q 308 839 308 801 q 285 894 308 874 q 221 914 261 914 q 159 897 182 914 q 129 849 136 879 l 42 849 q 69 919 46 888 q 132 968 92 950 q 229 986 172 986 q 356 946 304 986 q 407 844 407 906 q 383 774 407 801 q 317 735 358 746 l 317 732 q 384 691 357 719 q 411 617 411 663 q 361 522 411 561 q 224 482 311 482 z "},"⁴":{"ha":446,"x_min":29,"x_max":424,"o":"m 268 489 l 268 581 l 29 581 l 29 650 l 257 972 l 360 972 l 360 656 l 424 656 l 424 581 l 360 581 l 360 489 l 268 489 m 126 656 l 275 656 l 275 872 l 275 872 l 126 656 z "}," ":{"ha":369,"x_min":0,"x_max":0,"o":""}," ":{"ha":369,"x_min":0,"x_max":0,"o":""},"\r":{"ha":833,"x_min":0,"x_max":0,"o":""},".":{"ha":275,"x_min":58,"x_max":218,"o":"m 139 -7 q 81 16 104 -7 q 58 72 58 39 q 81 128 58 106 q 139 151 104 151 q 196 128 174 151 q 218 72 218 106 q 196 16 218 39 q 139 -7 174 -7 z "},",":{"ha":253,"x_min":6,"x_max":207,"o":"m 6 -171 l 86 136 l 207 136 l 86 -171 l 6 -171 z "},":":{"ha":281,"x_min":58,"x_max":218,"o":"m 139 -7 q 81 16 104 -7 q 58 72 58 39 q 81 128 58 106 q 139 151 104 151 q 196 128 174 151 q 218 72 218 106 q 196 16 218 39 q 139 -7 174 -7 m 139 558 q 81 581 104 558 q 58 638 58 604 q 81 694 58 671 q 139 717 104 717 q 196 694 174 717 q 218 638 218 671 q 196 581 218 604 q 139 558 174 558 z "},";":{"ha":315,"x_min":35,"x_max":253,"o":"m 174 558 q 116 581 139 558 q 93 638 93 604 q 116 694 93 671 q 174 717 139 717 q 231 694 208 717 q 253 638 253 671 q 231 581 253 604 q 174 558 208 558 m 35 -171 l 115 136 l 236 136 l 115 -171 l 35 -171 z "},"…":{"ha":786,"x_min":58,"x_max":729,"o":"m 394 -7 q 337 16 360 -7 q 314 72 314 39 q 337 128 314 106 q 394 151 360 151 q 451 128 429 151 q 474 72 474 106 q 451 16 474 39 q 394 -7 429 -7 m 650 -7 q 592 16 615 -7 q 569 72 569 39 q 592 128 569 106 q 650 151 615 151 q 707 128 685 151 q 729 72 729 106 q 707 16 729 39 q 650 -7 685 -7 m 139 -7 q 81 16 104 -7 q 58 72 58 39 q 81 128 58 106 q 139 151 104 151 q 196 128 174 151 q 218 72 218 106 q 196 16 218 39 q 139 -7 174 -7 z "},"!":{"ha":347,"x_min":94,"x_max":253,"o":"m 125 276 l 111 972 l 238 972 l 224 276 l 125 276 m 174 -7 q 117 16 140 -7 q 94 72 94 39 q 117 128 94 106 q 174 151 140 151 q 231 128 210 151 q 253 72 253 106 q 231 16 253 39 q 174 -7 210 -7 z "},"¡":{"ha":347,"x_min":94,"x_max":253,"o":"m 125 432 l 224 432 l 238 -262 l 111 -262 l 125 432 m 174 717 q 231 694 210 717 q 253 638 253 671 q 231 581 253 604 q 174 558 210 558 q 117 581 140 558 q 94 638 94 604 q 117 694 94 671 q 174 717 140 717 z "},"?":{"ha":728,"x_min":49,"x_max":665,"o":"m 219 279 l 214 496 l 257 496 q 369 503 315 496 q 463 533 422 511 q 528 597 504 556 q 553 704 553 638 q 528 804 553 763 q 458 868 503 846 q 356 890 414 890 q 253 868 297 890 q 184 806 208 846 q 160 711 160 767 l 49 711 q 88 857 49 794 q 196 954 126 919 q 356 989 265 989 q 516 954 446 989 q 626 856 586 919 q 665 704 665 792 q 622 538 665 601 q 501 444 578 474 q 325 415 425 415 l 321 279 l 219 279 m 269 -7 q 212 16 235 -7 q 189 72 189 39 q 212 128 189 106 q 269 151 235 151 q 326 128 304 151 q 349 72 349 106 q 326 16 349 39 q 269 -7 304 -7 z "},"¿":{"ha":728,"x_min":63,"x_max":679,"o":"m 508 429 l 514 214 l 471 214 q 359 206 413 214 q 265 176 306 199 q 199 113 224 154 q 175 6 175 72 q 200 -94 175 -51 q 269 -158 225 -136 q 372 -181 314 -181 q 476 -158 432 -181 q 544 -96 519 -136 q 568 -1 568 -56 l 679 -1 q 640 -147 679 -85 q 531 -244 600 -210 q 372 -279 463 -279 q 212 -244 282 -279 q 102 -146 142 -210 q 63 6 63 -82 q 106 172 63 108 q 227 265 150 236 q 403 294 304 294 l 406 429 l 508 429 m 458 717 q 515 694 492 717 q 539 638 539 671 q 515 581 539 604 q 458 558 492 558 q 401 581 424 558 q 379 638 379 604 q 401 694 379 671 q 458 717 424 717 z "},"·":{"ha":275,"x_min":58,"x_max":218,"o":"m 139 396 q 81 419 104 396 q 58 475 58 442 q 81 532 58 510 q 139 554 104 554 q 196 532 174 554 q 218 475 218 510 q 196 419 218 442 q 139 396 174 396 z "},"•":{"ha":500,"x_min":83,"x_max":417,"o":"m 249 296 q 166 318 204 296 q 106 378 128 340 q 83 463 83 417 q 106 548 83 510 q 166 608 128 586 q 249 631 204 631 q 334 608 296 631 q 394 548 372 586 q 417 463 417 510 q 394 378 417 417 q 334 318 372 340 q 249 296 296 296 z "},"*":{"ha":667,"x_min":86,"x_max":582,"o":"m 290 500 l 307 713 l 135 592 l 86 676 l 279 761 l 88 844 l 133 926 l 308 806 l 289 1018 l 383 1018 l 363 806 l 536 926 l 581 846 l 389 760 l 582 675 l 536 593 l 363 713 l 382 500 l 290 500 z "},"#":{"ha":1118,"x_min":64,"x_max":1053,"o":"m 603 0 l 810 981 l 919 981 l 714 0 l 603 0 m 200 0 l 406 981 l 517 981 l 311 0 l 200 0 m 64 274 l 64 378 l 993 378 l 993 274 l 64 274 m 121 604 l 121 707 l 1053 707 l 1053 604 l 121 604 z "},"/":{"ha":544,"x_min":39,"x_max":503,"o":"m 39 -132 l 388 1061 l 503 1061 l 154 -132 l 39 -132 z "},"\\":{"ha":544,"x_min":39,"x_max":503,"o":"m 503 -132 l 388 -132 l 39 1061 l 154 1061 l 503 -132 z "},"-":{"ha":751,"x_min":101,"x_max":651,"o":"m 101 361 l 101 460 l 651 460 l 651 361 l 101 361 z "},"–":{"ha":929,"x_min":101,"x_max":829,"o":"m 101 361 l 101 460 l 829 460 l 829 361 l 101 361 z "},"—":{"ha":1213,"x_min":101,"x_max":1113,"o":"m 101 361 l 101 460 l 1113 460 l 1113 361 l 101 361 z "},"_":{"ha":917,"x_min":101,"x_max":817,"o":"m 101 -160 l 101 -50 l 817 -50 l 817 -160 l 101 -160 z "},"(":{"ha":518,"x_min":67,"x_max":465,"o":"m 346 -201 q 207 -30 271 -129 q 105 193 143 69 q 67 463 67 317 q 105 732 67 608 q 207 956 143 856 q 346 1126 271 1056 l 465 1126 l 465 1115 q 317 929 381 1032 q 219 709 254 826 q 183 463 183 592 q 219 216 183 333 q 318 -4 254 99 q 465 -190 382 -107 l 465 -201 l 346 -201 z "},")":{"ha":518,"x_min":53,"x_max":451,"o":"m 172 -201 l 53 -201 l 53 -190 q 201 -4 138 -107 q 299 216 264 99 q 335 463 335 333 q 299 709 335 592 q 201 929 264 826 q 53 1115 138 1032 l 53 1126 l 172 1126 q 312 956 249 1056 q 413 732 375 856 q 451 463 451 608 q 413 193 451 317 q 312 -30 375 69 q 172 -201 249 -129 z "},"{":{"ha":593,"x_min":118,"x_max":521,"o":"m 446 -211 q 293 -159 351 -211 q 235 -3 235 -107 q 242 83 235 44 q 258 162 250 121 q 265 256 265 203 q 253 322 265 290 q 208 376 240 353 q 118 411 176 400 l 118 506 q 208 540 176 517 q 253 595 240 564 q 265 661 265 626 q 258 755 265 715 q 242 833 250 794 q 235 918 235 871 q 293 1075 235 1024 q 446 1126 351 1126 l 521 1126 l 521 1026 l 467 1026 q 379 999 410 1026 q 349 908 349 972 q 356 831 349 868 q 371 753 364 794 q 378 657 378 713 q 342 531 378 585 q 224 460 306 478 l 224 457 q 342 385 306 439 q 378 258 378 332 q 371 163 378 204 q 356 85 364 122 q 349 7 349 49 q 379 -84 349 -57 q 467 -111 410 -111 l 521 -111 l 521 -211 l 446 -211 z "},"}":{"ha":593,"x_min":72,"x_max":476,"o":"m 147 -211 l 72 -211 l 72 -111 l 126 -111 q 214 -84 183 -111 q 244 7 244 -57 q 238 85 244 49 q 223 163 231 122 q 215 258 215 204 q 252 385 215 332 q 369 457 289 439 l 369 460 q 252 531 289 478 q 215 657 215 585 q 223 753 215 713 q 238 831 231 794 q 244 908 244 868 q 214 999 244 972 q 126 1026 183 1026 l 72 1026 l 72 1126 l 147 1126 q 300 1075 242 1126 q 358 918 358 1024 q 351 833 358 871 q 335 755 343 794 q 328 661 328 715 q 341 595 328 626 q 386 540 354 564 q 476 506 418 517 l 476 411 q 386 376 418 400 q 341 322 354 353 q 328 256 328 290 q 335 162 328 203 q 351 83 343 121 q 358 -3 358 44 q 300 -159 358 -107 q 147 -211 242 -211 z "},"[":{"ha":436,"x_min":104,"x_max":353,"o":"m 104 -210 l 104 1126 l 353 1126 l 353 1031 l 214 1031 l 214 -112 l 353 -112 l 353 -210 l 104 -210 z "},"]":{"ha":436,"x_min":83,"x_max":332,"o":"m 332 -210 l 83 -210 l 83 -112 l 222 -112 l 222 1031 l 83 1031 l 83 1126 l 332 1126 l 332 -210 z "},"‚":{"ha":261,"x_min":6,"x_max":215,"o":"m 6 -168 l 85 147 l 215 147 l 89 -168 l 6 -168 z "},"„":{"ha":483,"x_min":6,"x_max":438,"o":"m 6 -168 l 85 147 l 215 147 l 89 -168 l 6 -168 m 229 -168 l 307 147 l 438 147 l 313 -168 l 229 -168 z "},"“":{"ha":510,"x_min":42,"x_max":468,"o":"m 258 653 l 385 972 l 468 972 l 389 653 l 258 653 m 42 653 l 167 972 l 250 972 l 172 653 l 42 653 z "},"”":{"ha":510,"x_min":42,"x_max":468,"o":"m 251 972 l 125 653 l 42 653 l 121 972 l 251 972 m 468 972 l 343 653 l 260 653 l 338 972 l 468 972 z "},"‘":{"ha":292,"x_min":42,"x_max":250,"o":"m 42 653 l 167 972 l 250 972 l 172 653 l 42 653 z "},"’":{"ha":292,"x_min":42,"x_max":250,"o":"m 250 972 l 125 653 l 42 653 l 119 972 l 250 972 z "},"«":{"ha":628,"x_min":61,"x_max":558,"o":"m 443 167 l 308 410 l 443 653 l 558 653 l 419 410 l 558 167 l 443 167 m 196 167 l 61 410 l 196 653 l 311 653 l 172 410 l 311 167 l 196 167 z "},"»":{"ha":628,"x_min":69,"x_max":567,"o":"m 185 167 l 69 167 l 208 410 l 69 653 l 185 653 l 319 410 l 185 167 m 432 167 l 317 167 l 456 410 l 317 653 l 432 653 l 567 410 l 432 167 z "},"‹":{"ha":383,"x_min":63,"x_max":313,"o":"m 197 167 l 63 410 l 197 653 l 313 653 l 174 410 l 313 167 l 197 167 z "},"›":{"ha":383,"x_min":71,"x_max":321,"o":"m 186 167 l 71 167 l 210 410 l 71 653 l 186 653 l 321 410 l 186 167 z "},"\"":{"ha":404,"x_min":53,"x_max":351,"o":"m 257 765 l 240 1049 l 351 1049 l 338 765 l 257 765 m 68 765 l 53 1049 l 164 1049 l 149 765 l 68 765 z "},"'":{"ha":221,"x_min":53,"x_max":168,"o":"m 71 765 l 53 1049 l 168 1049 l 151 765 l 71 765 z "},"ƒ":{"ha":463,"x_min":-61,"x_max":461,"o":"m -61 -265 l -53 -168 l -22 -168 q 41 -148 19 -168 q 68 -75 63 -128 l 164 828 q 250 1008 176 951 q 461 1064 324 1064 l 453 965 q 328 933 369 965 q 281 828 288 901 l 185 -75 q 153 -184 178 -142 q 83 -246 128 -226 q -26 -265 39 -265 l -61 -265 m 46 664 l 54 761 l 440 761 l 432 664 l 46 664 z "},"@":{"ha":1397,"x_min":106,"x_max":1292,"o":"m 597 -276 q 340 -219 451 -276 q 167 -55 229 -161 q 106 196 106 51 q 155 469 106 343 q 295 689 204 594 q 510 836 386 783 q 786 889 635 889 q 1052 830 939 889 q 1228 666 1165 771 q 1292 422 1292 561 q 1272 265 1292 342 q 1215 127 1253 189 q 1124 28 1178 65 q 999 -8 1069 -8 q 878 43 915 -8 q 851 175 842 94 l 856 222 l 879 181 q 770 42 846 93 q 606 -8 694 -8 q 443 56 501 -8 q 385 229 385 119 q 409 375 385 306 q 477 499 433 444 q 581 586 521 554 q 715 618 640 618 q 850 573 800 618 q 908 440 900 528 l 881 422 l 913 603 l 1011 603 l 942 206 q 948 109 932 146 q 1015 72 964 72 q 1094 104 1061 72 q 1151 188 1128 136 q 1185 299 1174 239 q 1197 417 1197 360 q 1146 626 1197 539 q 999 760 1094 713 q 772 807 904 807 q 542 761 646 807 q 360 633 438 715 q 242 441 283 550 q 200 206 200 332 q 251 -11 200 78 q 396 -147 301 -100 q 619 -193 490 -193 q 738 -181 679 -193 q 849 -146 797 -169 l 869 -225 q 738 -264 807 -251 q 597 -276 669 -276 m 640 81 q 747 113 699 81 q 828 201 796 144 q 867 332 860 257 q 859 431 874 386 q 809 502 844 475 q 718 529 774 529 q 623 505 665 529 q 552 440 581 481 q 508 350 524 400 q 492 247 492 300 q 529 126 492 172 q 640 81 567 81 z "},"&":{"ha":1019,"x_min":58,"x_max":985,"o":"m 838 0 l 310 539 q 217 656 246 604 q 189 772 189 708 q 219 884 189 835 q 306 961 250 933 q 442 989 363 989 q 574 960 518 989 q 661 883 631 932 q 690 767 692 833 l 575 767 q 535 863 575 831 q 442 894 496 894 q 341 860 378 894 q 304 774 304 826 q 329 687 304 729 q 403 592 354 644 l 985 0 l 838 0 m 388 -17 q 215 20 289 -17 q 99 124 140 57 q 58 281 58 190 q 87 409 58 350 q 172 513 115 468 q 311 586 229 558 l 356 601 l 417 525 l 364 507 q 222 417 268 472 q 175 285 175 361 q 202 182 175 228 q 278 110 229 136 q 392 83 326 83 q 535 119 472 83 q 664 235 599 154 q 724 319 693 271 q 789 428 754 368 l 832 503 l 956 503 l 894 392 q 819 265 856 322 q 744 164 782 208 q 580 26 665 68 q 388 -17 494 -17 z "},"¶":{"ha":815,"x_min":51,"x_max":713,"o":"m 393 -139 l 393 410 l 379 410 q 194 447 267 410 q 86 547 121 483 q 51 690 51 611 q 87 834 51 771 q 195 935 122 897 q 379 972 268 972 l 713 972 l 713 -139 l 610 -139 l 610 881 l 496 881 l 496 -139 l 393 -139 z "},"§":{"ha":814,"x_min":63,"x_max":750,"o":"m 403 -322 q 242 -287 311 -322 q 134 -192 172 -253 q 94 -53 96 -131 l 217 -53 q 238 -132 217 -93 q 301 -197 258 -171 q 407 -222 343 -222 q 537 -182 486 -224 q 588 -67 588 -140 q 567 10 588 -19 q 509 58 547 39 q 419 94 471 78 q 306 132 368 111 q 181 190 236 156 q 94 276 125 224 q 63 410 63 329 q 82 508 63 461 q 140 594 101 556 q 113 652 122 621 q 103 722 103 683 q 140 861 103 801 q 247 955 178 921 q 410 989 315 989 q 572 954 503 989 q 679 859 640 919 q 718 719 718 799 l 596 719 q 575 799 596 760 q 512 863 554 838 q 406 889 469 889 q 276 849 326 890 q 225 733 225 807 q 245 657 225 686 q 303 608 265 628 q 393 572 342 589 q 507 535 444 556 q 633 477 578 511 q 719 390 688 443 q 750 257 750 338 q 731 158 750 206 q 671 72 711 110 q 699 15 690 46 q 708 -56 708 -17 q 672 -194 710 -133 q 566 -288 635 -254 q 403 -322 497 -322 m 588 144 q 619 192 608 165 q 629 250 629 219 q 606 342 629 307 q 540 398 582 376 q 445 437 499 419 q 332 475 392 454 q 274 498 300 486 q 225 522 247 510 q 194 475 204 501 q 183 417 183 449 q 199 342 183 372 q 242 290 214 311 q 307 252 269 268 q 389 222 344 236 q 481 192 433 208 q 539 169 513 182 q 588 144 565 157 z "},"©":{"ha":1103,"x_min":71,"x_max":1032,"o":"m 551 -6 q 300 58 408 -6 q 131 232 192 121 q 71 486 71 343 q 131 742 71 631 q 300 915 192 853 q 551 978 408 978 q 802 915 694 978 q 971 742 910 853 q 1032 486 1032 631 q 971 232 1032 343 q 802 58 910 121 q 551 -6 694 -6 m 551 165 q 401 203 469 165 q 291 314 332 242 q 250 488 250 386 q 291 661 250 589 q 401 772 332 733 q 551 810 469 810 q 732 755 654 810 q 836 597 810 700 l 729 597 q 661 692 710 660 q 550 725 613 725 q 451 698 496 725 q 380 618 407 671 q 353 486 353 565 q 380 355 353 408 q 451 275 407 301 q 550 249 496 249 q 662 281 615 249 q 729 375 708 314 l 836 375 q 732 222 810 278 q 551 165 654 165 m 551 46 q 778 102 683 46 q 926 258 874 158 q 978 486 978 357 q 926 717 978 618 q 778 872 874 817 q 551 928 683 928 q 325 872 421 928 q 177 717 229 817 q 125 486 125 618 q 177 258 125 357 q 325 102 229 158 q 551 46 421 46 z "},"®":{"ha":700,"x_min":72,"x_max":628,"o":"m 351 426 q 206 463 269 426 q 108 563 143 499 q 72 707 72 626 q 108 852 72 789 q 206 952 143 915 q 351 989 269 989 q 494 952 432 989 q 592 852 557 915 q 628 707 628 789 q 592 563 628 626 q 494 463 557 499 q 351 426 432 426 m 407 560 l 321 697 l 392 697 l 485 560 l 407 560 m 351 476 q 469 506 419 476 q 546 588 518 536 q 574 707 574 640 q 546 826 574 775 q 469 908 518 878 q 351 938 419 938 q 233 908 283 938 q 154 826 182 878 q 126 707 126 775 q 154 588 126 640 q 233 506 182 536 q 351 476 283 476 m 240 560 l 240 858 l 372 858 q 447 834 419 858 q 474 767 474 810 q 447 701 474 725 q 372 676 419 676 l 306 676 l 306 560 l 240 560 m 306 729 l 367 729 q 397 738 385 729 q 408 765 408 746 q 397 792 408 785 q 367 800 385 800 l 306 800 l 306 729 z "},"™":{"ha":1072,"x_min":38,"x_max":1003,"o":"m 38 899 l 38 972 l 378 972 l 378 899 l 254 899 l 254 483 l 161 483 l 161 899 l 38 899 m 453 483 l 453 972 l 571 972 l 728 593 l 892 972 l 1003 972 l 1003 483 l 917 483 l 917 849 l 758 483 l 692 483 l 536 850 l 536 483 l 453 483 z "},"°":{"ha":476,"x_min":54,"x_max":421,"o":"m 238 617 q 146 640 188 617 q 79 704 104 663 q 54 801 54 746 q 80 901 54 860 q 147 966 106 943 q 239 989 189 989 q 330 966 289 989 q 396 901 371 943 q 421 801 421 860 q 396 704 421 746 q 329 640 371 663 q 238 617 288 617 m 238 703 q 301 728 271 703 q 331 803 331 753 q 301 878 331 853 q 239 903 272 903 q 175 878 204 903 q 146 803 146 853 q 174 728 146 753 q 238 703 203 703 z "},"|":{"ha":325,"x_min":104,"x_max":221,"o":"m 104 -139 l 104 1000 l 221 1000 l 221 -139 l 104 -139 z "},"¦":{"ha":325,"x_min":104,"x_max":221,"o":"m 104 538 l 104 1000 l 221 1000 l 221 538 l 104 538 m 104 -139 l 104 324 l 221 324 l 221 -139 l 104 -139 z "},"ℓ":{"ha":325,"x_min":104,"x_max":221,"o":"m 104 -139 l 104 1000 l 221 1000 l 221 -139 l 104 -139 z "},"†":{"ha":738,"x_min":57,"x_max":679,"o":"m 311 -360 l 322 678 l 57 668 l 57 761 l 322 750 l 311 1083 l 426 1083 l 415 750 l 679 761 l 679 668 l 415 678 l 426 -360 l 311 -360 z "},"‡":{"ha":739,"x_min":58,"x_max":681,"o":"m 311 -360 l 324 -26 l 58 -36 l 58 57 l 324 46 l 324 678 l 58 668 l 58 761 l 324 750 l 311 1083 l 426 1083 l 415 750 l 681 761 l 681 668 l 415 678 l 415 46 l 681 57 l 681 -36 l 415 -26 l 426 -360 l 311 -360 z "},"℮":{"ha":1058,"x_min":67,"x_max":992,"o":"m 542 -10 q 298 45 406 -10 q 128 204 190 100 q 67 458 67 308 q 120 717 67 601 q 277 902 174 833 q 529 971 381 971 q 726 933 640 971 q 872 833 813 896 q 961 689 931 769 q 992 521 992 608 l 992 436 l 247 436 l 247 206 q 371 103 301 138 q 542 69 440 69 q 672 91 613 69 q 787 153 732 113 q 899 249 842 193 l 953 190 q 764 44 867 97 q 542 -10 661 -10 m 247 522 l 797 522 l 797 768 q 685 860 754 828 q 529 892 615 892 q 369 858 442 892 q 247 753 296 825 l 247 522 z "},"¢":{"ha":794,"x_min":68,"x_max":726,"o":"m 358 -144 l 358 56 l 471 56 l 471 -144 l 358 -144 m 358 644 l 358 844 l 471 844 l 471 644 l 358 644 m 413 -17 q 235 29 314 -17 q 113 158 157 75 q 68 349 68 240 q 113 542 68 460 q 235 670 157 624 q 413 717 314 717 q 621 652 538 717 q 726 479 704 588 l 607 479 q 539 581 593 544 q 411 617 485 617 q 301 587 351 617 q 219 497 250 557 q 188 350 188 438 q 206 234 188 285 q 254 150 224 183 q 326 99 285 117 q 411 82 367 82 q 501 98 461 82 q 569 146 542 114 q 607 221 597 178 l 726 221 q 620 49 704 115 q 413 -17 536 -17 z "},"¤":{"ha":740,"x_min":90,"x_max":650,"o":"m 369 168 q 244 198 299 168 q 159 283 190 228 q 128 413 128 338 q 160 542 128 488 q 247 627 192 597 q 371 657 301 657 q 494 627 439 657 q 581 542 549 597 q 613 413 613 488 q 580 283 613 338 q 492 198 547 228 q 369 168 438 168 m 144 126 l 90 182 l 206 297 l 263 244 l 144 126 m 596 126 l 486 238 l 539 293 l 650 182 l 596 126 m 369 258 q 432 274 401 258 q 483 324 463 290 q 503 413 503 358 q 483 502 503 468 q 432 552 463 536 q 369 568 401 568 q 306 552 336 568 q 256 502 275 536 q 238 413 238 468 q 256 324 238 358 q 306 274 275 290 q 369 258 336 258 m 204 535 l 90 647 l 144 701 l 258 588 l 204 535 m 532 529 l 483 586 l 596 701 l 650 647 l 532 529 z "},"$":{"ha":806,"x_min":63,"x_max":742,"o":"m 354 -121 l 354 1099 l 450 1099 l 450 -121 l 354 -121 m 414 -17 q 228 22 307 -17 q 106 131 149 61 q 63 292 63 200 l 185 292 q 211 187 185 235 q 288 110 238 139 q 414 82 339 82 q 526 103 479 82 q 597 163 572 125 q 621 247 621 200 q 597 340 621 304 q 531 397 572 375 q 434 437 489 419 q 319 475 379 454 q 150 572 204 514 q 96 722 96 629 q 133 861 96 801 q 238 955 169 921 q 401 989 307 989 q 563 954 494 989 q 671 859 632 919 q 710 719 710 799 l 588 719 q 567 799 588 760 q 503 863 546 838 q 397 889 461 889 q 303 872 344 890 q 240 818 263 853 q 217 733 217 783 q 237 657 217 686 q 295 608 257 628 q 385 571 333 588 q 499 533 436 554 q 624 476 569 510 q 710 389 679 442 q 742 254 742 336 q 705 123 742 185 q 596 22 668 61 q 414 -17 524 -17 z "},"€":{"ha":1071,"x_min":32,"x_max":1006,"o":"m 32 336 l 32 424 l 632 424 l 632 336 l 32 336 m 32 550 l 32 636 l 632 636 l 632 550 l 32 550 m 601 -17 q 356 47 460 -17 q 197 223 253 110 q 142 486 142 336 q 197 749 142 636 q 356 926 253 863 q 601 989 460 989 q 872 910 768 989 q 1006 686 976 831 l 876 686 q 786 831 854 776 q 601 886 718 886 q 422 838 499 886 q 303 701 344 790 q 261 486 261 611 q 303 272 261 361 q 422 134 344 182 q 601 86 499 86 q 786 140 718 86 q 876 282 854 193 l 1006 282 q 872 63 976 142 q 601 -17 768 -17 z "},"₺":{"ha":1132,"x_min":44,"x_max":1006,"o":"m 503 -17 q 394 -10 451 -17 q 275 11 336 -3 l 275 972 l 394 972 l 394 103 q 450 94 424 97 q 503 92 476 92 q 678 124 606 92 q 797 219 751 157 q 865 374 843 282 q 886 582 886 465 l 1006 582 q 953 251 1006 385 q 791 51 901 118 q 503 -17 681 -17 m 47 286 l 47 369 l 646 517 l 646 433 l 47 286 m 44 515 l 44 596 l 649 749 l 649 667 l 44 515 z "},"₽":{"ha":865,"x_min":56,"x_max":814,"o":"m 56 175 l 56 268 l 176 268 l 176 408 l 56 408 l 56 504 l 176 504 l 176 972 l 482 972 q 669 935 596 972 q 778 835 743 899 q 814 689 814 771 q 779 547 814 611 q 672 446 744 483 q 482 408 599 408 l 293 408 l 293 268 l 603 268 l 603 175 l 293 175 l 293 0 l 176 0 l 176 175 l 56 175 m 293 504 l 481 504 q 646 554 596 504 q 696 689 696 604 q 646 830 696 779 q 481 881 596 881 l 293 881 l 293 504 z "},"₨":{"ha":1458,"x_min":104,"x_max":1388,"o":"m 104 0 l 104 972 l 418 972 q 604 934 532 972 q 711 832 676 896 q 746 688 746 768 q 710 544 746 610 q 601 440 675 479 q 413 401 528 401 l 221 401 l 221 0 l 104 0 m 618 0 l 404 435 l 535 435 l 756 0 l 618 0 m 221 493 l 410 493 q 573 547 521 493 q 625 686 625 601 q 574 823 625 772 q 408 874 524 874 l 221 874 l 221 493 m 1121 -17 q 969 13 1035 -17 q 866 94 904 42 q 819 217 828 146 l 939 217 q 968 150 946 181 q 1028 101 990 119 q 1122 82 1067 82 q 1203 97 1171 82 q 1251 136 1235 111 q 1267 190 1267 161 q 1247 256 1267 233 q 1188 291 1226 278 q 1093 314 1149 304 q 1003 336 1047 322 q 924 373 958 350 q 869 429 889 396 q 849 511 849 463 q 880 617 849 571 q 968 690 911 664 q 1101 717 1025 717 q 1283 663 1214 717 q 1365 506 1353 608 l 1250 506 q 1205 588 1243 558 q 1100 618 1167 618 q 1001 592 1035 618 q 967 522 967 565 q 985 473 967 494 q 1042 436 1004 451 q 1132 411 1079 421 q 1258 378 1201 399 q 1351 316 1315 357 q 1386 200 1386 275 q 1353 86 1386 135 q 1261 10 1321 38 q 1121 -17 1201 -17 z "},"₹":{"ha":888,"x_min":74,"x_max":826,"o":"m 414 -17 q 205 60 275 -17 q 135 275 135 138 l 135 475 q 348 484 268 475 q 467 520 428 493 q 519 601 507 547 q 532 746 532 656 l 532 922 l 642 922 l 642 746 q 623 578 642 646 q 559 469 604 510 q 437 410 514 428 q 244 393 360 393 l 244 271 q 283 128 244 182 q 415 75 322 75 q 541 125 501 75 q 581 263 581 175 l 689 263 q 616 54 688 125 q 414 -17 544 -17 m 74 644 l 74 728 l 826 728 l 826 644 l 74 644 m 74 888 l 74 972 l 826 972 l 826 888 l 74 888 z "},"£":{"ha":835,"x_min":64,"x_max":753,"o":"m 122 0 l 122 76 q 183 151 157 115 q 223 230 208 186 q 238 333 238 274 q 225 423 238 381 q 195 508 213 465 q 165 598 178 550 q 153 704 153 646 q 190 854 153 790 q 294 953 228 918 q 449 989 361 989 q 612 950 547 989 q 711 847 676 911 q 750 704 746 782 l 643 704 q 590 838 639 785 q 449 892 540 892 q 358 872 400 892 q 290 809 315 851 q 264 699 264 767 q 276 605 264 650 q 306 515 289 560 q 335 426 322 471 q 347 336 347 382 q 323 209 347 268 q 246 97 299 150 l 753 97 l 753 0 l 122 0 m 64 431 l 64 513 l 574 513 l 574 431 l 64 431 z "},"¥":{"ha":836,"x_min":43,"x_max":792,"o":"m 82 236 l 82 321 l 754 321 l 754 236 l 82 236 m 378 450 l 82 450 l 82 533 l 364 533 l 378 450 m 478 450 l 492 533 l 754 533 l 754 450 l 478 450 m 360 0 l 360 369 l 43 972 l 175 972 l 436 446 l 401 446 l 661 972 l 792 972 l 476 369 l 476 0 l 360 0 z "},"∕":{"ha":543,"x_min":39,"x_max":503,"o":"m 39 -132 l 388 1061 l 503 1061 l 154 -132 l 39 -132 z "},"+":{"ha":764,"x_min":64,"x_max":699,"o":"m 329 100 l 329 706 l 433 706 l 433 100 l 329 100 m 64 354 l 64 453 l 699 453 l 699 354 l 64 354 z "},"−":{"ha":764,"x_min":107,"x_max":657,"o":"m 107 361 l 107 460 l 657 460 l 657 361 l 107 361 z "},"×":{"ha":764,"x_min":125,"x_max":638,"o":"m 194 147 l 125 217 l 311 404 l 133 583 l 204 653 l 382 474 l 568 661 l 638 592 l 451 404 l 631 226 l 560 157 l 381 335 l 194 147 z "},"÷":{"ha":764,"x_min":106,"x_max":658,"o":"m 106 354 l 106 453 l 658 453 l 658 354 l 106 354 m 383 124 q 326 147 349 124 q 303 203 303 169 q 326 259 303 236 q 383 282 349 282 q 440 259 418 282 q 463 203 463 236 q 440 147 463 169 q 383 124 418 124 m 383 526 q 326 549 349 526 q 303 606 303 572 q 326 662 303 639 q 383 685 349 685 q 440 662 418 685 q 463 606 463 639 q 440 549 463 572 q 383 526 418 526 z "},"=":{"ha":764,"x_min":104,"x_max":658,"o":"m 104 499 l 104 599 l 658 599 l 658 499 l 104 499 m 104 210 l 104 310 l 658 310 l 658 210 l 104 210 z "},"≠":{"ha":764,"x_min":106,"x_max":660,"o":"m 161 117 l 465 690 l 571 690 l 265 117 l 161 117 m 106 499 l 106 599 l 660 599 l 660 499 l 106 499 m 106 210 l 106 310 l 660 310 l 660 210 l 106 210 z "},">":{"ha":764,"x_min":138,"x_max":625,"o":"m 138 60 l 478 379 l 138 700 l 286 700 l 625 379 l 625 379 l 286 60 l 138 60 z "},"<":{"ha":764,"x_min":139,"x_max":626,"o":"m 626 60 l 478 60 l 139 379 l 139 379 l 478 700 l 626 700 l 286 379 l 626 60 z "},"≥":{"ha":764,"x_min":135,"x_max":629,"o":"m 136 172 l 474 440 l 136 707 l 288 707 l 629 439 l 629 439 l 288 172 l 136 172 m 135 0 l 135 89 l 619 89 l 619 0 l 135 0 z "},"≤":{"ha":764,"x_min":135,"x_max":629,"o":"m 628 172 l 476 172 l 135 439 l 135 439 l 476 707 l 628 707 l 290 440 l 628 172 m 629 0 l 144 0 l 144 89 l 629 89 l 629 0 z "},"±":{"ha":764,"x_min":51,"x_max":711,"o":"m 51 0 l 51 89 l 711 89 l 711 0 l 51 0 m 329 174 l 329 664 l 433 664 l 433 174 l 329 174 m 51 369 l 51 468 l 711 468 l 711 369 l 51 369 z "},"≈":{"ha":764,"x_min":81,"x_max":683,"o":"m 497 156 q 428 169 458 156 q 370 202 397 183 q 317 235 343 221 q 260 250 290 250 q 199 224 222 250 q 169 157 176 197 l 81 157 q 117 267 92 224 q 180 333 142 311 q 267 354 218 354 q 338 340 307 354 q 396 307 369 325 q 449 275 422 289 q 504 261 475 261 q 567 286 543 261 q 594 353 590 311 l 683 353 q 650 242 675 286 q 586 177 625 199 q 497 156 547 156 m 497 443 q 428 457 458 443 q 370 490 397 471 q 317 523 343 508 q 260 538 290 538 q 199 511 222 538 q 169 444 176 485 l 81 444 q 117 555 92 511 q 180 620 142 599 q 267 642 218 642 q 338 627 307 642 q 396 594 369 613 q 449 563 422 576 q 504 549 475 549 q 567 574 543 549 q 594 640 590 599 l 683 640 q 650 530 675 574 q 586 465 625 486 q 497 443 547 443 z "},"~":{"ha":764,"x_min":81,"x_max":683,"o":"m 497 346 q 428 360 458 346 q 370 392 397 374 q 317 426 343 411 q 260 440 290 440 q 199 414 222 440 q 169 347 176 388 l 81 347 q 117 458 92 414 q 180 523 142 501 q 267 544 218 544 q 338 530 307 544 q 396 497 369 515 q 449 465 422 479 q 504 451 475 451 q 567 476 543 451 q 594 543 590 501 l 683 543 q 650 433 675 476 q 586 367 625 389 q 497 346 547 346 z "},"¬":{"ha":764,"x_min":-14,"x_max":778,"o":"m 661 310 l 661 507 l -14 507 l -14 600 l 778 600 l 778 310 l 661 310 z "},"^":{"ha":864,"x_min":53,"x_max":813,"o":"m 53 292 l 379 972 l 486 972 l 813 292 l 693 292 l 433 835 l 433 835 l 172 292 l 53 292 z "},"∞":{"ha":967,"x_min":51,"x_max":915,"o":"m 254 196 q 110 249 168 196 q 51 397 51 301 q 79 508 51 463 q 153 578 107 554 q 256 603 199 603 q 359 579 315 603 q 437 519 403 556 q 500 441 471 482 q 558 363 529 400 q 622 303 588 326 q 699 279 656 279 q 787 312 754 279 q 819 400 819 344 q 788 487 819 456 q 706 518 757 518 q 592 473 642 518 q 515 358 543 428 l 460 399 q 509 497 475 450 q 594 574 543 543 q 711 603 644 604 q 857 550 799 603 q 915 401 915 497 q 887 290 915 336 q 811 220 858 244 q 704 196 764 196 q 603 219 647 196 q 524 280 560 243 q 458 358 489 317 q 399 435 428 399 q 336 496 369 472 q 260 519 303 519 q 180 487 213 519 q 147 397 147 454 q 179 312 147 343 q 263 281 211 281 q 375 326 325 281 q 451 440 425 372 l 507 400 q 457 303 492 350 q 372 226 422 256 q 254 196 322 196 z "},"∫":{"ha":358,"x_min":-53,"x_max":424,"o":"m -53 -265 l -43 -168 l -14 -168 q 41 -148 25 -168 q 63 -75 57 -128 l 192 1086 q 224 1194 199 1153 q 292 1253 249 1235 q 393 1271 335 1271 l 424 1271 l 414 1172 l 388 1172 q 333 1154 353 1172 q 308 1086 314 1136 l 179 -75 q 149 -184 172 -142 q 83 -246 125 -226 q -19 -265 42 -265 l -53 -265 z "},"Ω":{"ha":1096,"x_min":60,"x_max":1038,"o":"m 78 0 l 78 92 l 349 92 l 328 68 q 181 166 240 101 q 90 316 121 231 q 60 496 60 401 q 97 696 60 606 q 201 852 135 786 q 357 953 268 918 q 547 989 446 989 q 739 953 650 989 q 895 852 828 918 q 1000 696 963 786 q 1038 496 1038 606 q 1007 316 1038 401 q 916 166 976 231 q 767 68 856 101 l 746 92 l 1017 92 l 1017 0 l 636 0 l 636 96 q 782 170 718 117 q 883 305 846 224 q 919 489 919 386 q 891 652 919 579 q 813 776 863 725 q 694 856 763 828 q 547 883 626 883 q 399 855 467 883 q 282 774 332 826 q 204 650 232 722 q 176 489 176 578 q 213 305 176 386 q 314 170 250 224 q 460 96 378 117 l 460 0 l 78 0 z "},"∆":{"ha":965,"x_min":42,"x_max":924,"o":"m 42 0 l 42 90 l 433 972 l 531 972 l 924 90 l 924 0 l 42 0 m 160 90 l 806 90 l 482 839 l 160 90 z "},"∏":{"ha":1007,"x_min":51,"x_max":956,"o":"m 163 0 l 163 881 l 51 881 l 51 972 l 956 972 l 956 881 l 846 881 l 846 0 l 729 0 l 729 881 l 279 881 l 279 0 l 163 0 z "},"∑":{"ha":625,"x_min":57,"x_max":599,"o":"m 57 -68 l 57 65 l 421 453 l 57 839 l 57 972 l 599 972 l 599 882 l 151 882 l 526 500 l 526 410 l 153 22 l 599 22 l 599 -68 l 57 -68 z "},"√":{"ha":989,"x_min":25,"x_max":1053,"o":"m 25 249 l 214 358 l 371 82 l 969 1201 l 1053 1201 l 376 -61 l 319 -61 l 150 238 l 61 188 l 25 249 z "},"µ":{"ha":811,"x_min":97,"x_max":715,"o":"m 97 -306 l 97 689 l 214 689 l 214 299 q 259 138 214 192 q 392 83 304 83 q 498 113 451 83 q 572 197 544 142 q 599 332 599 253 l 599 689 l 715 689 l 715 0 l 610 0 l 603 122 l 603 122 q 506 21 569 58 q 364 -17 443 -17 q 283 -6 321 -17 q 214 28 244 6 l 214 -306 l 97 -306 z "},"∂":{"ha":788,"x_min":54,"x_max":733,"o":"m 325 -14 q 190 21 251 -14 q 91 126 128 56 q 54 307 54 197 q 81 483 54 399 q 156 632 107 567 q 274 735 206 697 q 424 774 342 774 q 506 760 468 774 q 573 712 544 746 q 617 617 601 678 q 593 791 615 714 q 522 913 571 868 q 390 957 474 957 q 337 952 364 957 q 279 939 310 947 l 279 1008 q 347 1024 315 1019 q 411 1028 379 1028 q 585 976 514 1028 q 695 822 657 924 q 733 574 733 721 q 680 261 733 393 q 534 58 626 129 q 325 -14 442 -14 m 336 86 q 443 116 394 86 q 526 197 492 146 q 580 314 561 247 q 599 453 599 381 q 553 621 599 567 q 431 675 508 675 q 326 647 374 675 q 244 569 279 619 q 191 451 210 518 q 172 307 172 385 q 220 140 172 193 q 336 86 268 86 z "},"%":{"ha":1092,"x_min":57,"x_max":1035,"o":"m 201 0 l 767 972 l 883 972 l 318 0 l 201 0 m 814 -17 q 701 12 751 -17 q 622 93 651 40 q 592 217 592 146 q 622 341 592 289 q 701 422 651 393 q 814 450 751 450 q 927 422 878 450 q 1006 341 976 393 q 1035 217 1035 289 q 1006 93 1035 146 q 926 12 976 40 q 814 -17 876 -17 m 813 74 q 874 90 846 74 q 919 138 901 106 q 936 217 936 169 q 919 297 936 265 q 875 345 903 329 q 814 361 847 361 q 753 345 782 361 q 708 297 725 329 q 690 217 690 265 q 708 138 690 169 q 753 90 725 106 q 813 74 781 74 m 279 521 q 167 549 217 521 q 87 631 117 578 q 57 754 57 683 q 87 878 57 826 q 167 959 117 931 q 281 988 218 988 q 393 959 343 988 q 472 878 443 931 q 501 754 501 826 q 472 631 501 683 q 392 549 443 578 q 279 521 342 521 m 279 611 q 340 627 313 611 q 385 675 368 643 q 401 754 401 707 q 385 835 401 803 q 340 884 368 868 q 281 900 313 900 q 219 884 249 900 q 173 835 190 868 q 156 754 156 803 q 173 675 156 707 q 219 627 190 643 q 279 611 247 611 z "},"‰":{"ha":1578,"x_min":57,"x_max":1521,"o":"m 1299 -17 q 1186 12 1236 -17 q 1106 93 1136 40 q 1076 217 1076 146 q 1106 341 1076 289 q 1187 422 1136 393 q 1300 450 1238 450 q 1413 422 1363 450 q 1492 341 1463 393 q 1521 217 1521 289 q 1492 93 1521 146 q 1412 12 1463 40 q 1299 -17 1361 -17 m 1299 71 q 1360 88 1332 71 q 1406 137 1389 104 q 1424 217 1424 169 q 1407 299 1424 267 q 1362 348 1390 332 q 1300 364 1333 364 q 1238 348 1267 364 q 1191 299 1208 332 q 1174 217 1174 267 q 1191 137 1174 169 q 1238 88 1208 104 q 1299 71 1267 71 m 201 0 l 767 972 l 883 972 l 318 0 l 201 0 m 814 -17 q 701 12 751 -17 q 622 93 651 40 q 592 217 592 146 q 622 341 592 289 q 701 422 651 393 q 814 450 751 450 q 927 422 878 450 q 1006 341 976 393 q 1035 217 1035 289 q 1006 93 1035 146 q 926 12 976 40 q 814 -17 876 -17 m 813 74 q 874 90 846 74 q 919 138 901 106 q 936 217 936 169 q 919 297 936 265 q 875 345 903 329 q 814 361 847 361 q 753 345 782 361 q 708 297 725 329 q 690 217 690 265 q 708 138 690 169 q 753 90 725 106 q 813 74 781 74 m 279 521 q 167 549 217 521 q 87 631 117 578 q 57 754 57 683 q 87 878 57 826 q 167 959 117 931 q 281 988 218 988 q 393 959 343 988 q 472 878 443 931 q 501 754 501 826 q 472 631 501 683 q 392 549 443 578 q 279 521 342 521 m 279 611 q 340 627 313 611 q 385 675 368 643 q 401 754 401 707 q 385 835 401 803 q 340 884 368 868 q 281 900 313 900 q 219 884 249 900 q 173 835 190 868 q 156 754 156 803 q 173 675 156 707 q 219 627 190 643 q 279 611 247 611 z "},"↑":{"ha":1190,"x_min":56,"x_max":1135,"o":"m 56 472 l 564 972 l 626 972 l 1135 472 l 1060 397 l 653 801 l 653 0 l 539 0 l 539 804 l 131 399 l 56 472 z "},"↗":{"ha":874,"x_min":56,"x_max":818,"o":"m 143 101 l 65 179 l 642 754 l 56 754 l 56 858 l 774 858 l 818 815 l 818 94 l 714 94 l 714 672 l 143 101 z "},"→":{"ha":1083,"x_min":60,"x_max":1032,"o":"m 60 419 l 60 529 l 864 529 l 458 913 l 532 988 l 1032 507 l 1032 446 l 532 -36 l 457 40 l 860 419 l 60 419 z "},"↘":{"ha":874,"x_min":56,"x_max":818,"o":"m 143 849 l 714 278 l 714 856 l 818 856 l 818 135 l 774 92 l 56 92 l 56 196 l 642 196 l 65 771 l 143 849 z "},"↓":{"ha":1190,"x_min":56,"x_max":1135,"o":"m 56 500 l 131 574 l 539 168 l 539 972 l 653 972 l 653 171 l 1060 575 l 1135 500 l 626 0 l 564 0 l 56 500 z "},"↙":{"ha":874,"x_min":56,"x_max":818,"o":"m 731 849 l 808 771 l 232 196 l 818 196 l 818 92 l 100 92 l 56 135 l 56 856 l 160 856 l 160 278 l 731 849 z "},"←":{"ha":1083,"x_min":51,"x_max":1024,"o":"m 1024 419 l 224 419 l 626 40 l 551 -36 l 51 446 l 51 507 l 551 988 l 625 913 l 219 529 l 1024 529 l 1024 419 z "},"↖":{"ha":874,"x_min":56,"x_max":818,"o":"m 731 85 l 160 656 l 160 78 l 56 78 l 56 799 l 100 842 l 818 842 l 818 738 l 232 738 l 808 163 l 731 85 z "},"↔":{"ha":1388,"x_min":56,"x_max":1332,"o":"m 56 446 l 56 507 l 524 988 l 603 918 l 218 528 l 1169 528 l 785 918 l 864 988 l 1332 507 l 1332 446 l 864 -36 l 785 33 l 1167 422 l 221 422 l 603 33 l 524 -36 l 56 446 z "},"↕":{"ha":1171,"x_min":60,"x_max":1113,"o":"m 60 335 l 125 413 l 529 144 l 529 828 l 125 560 l 60 638 l 554 972 l 617 972 l 1113 638 l 1047 560 l 643 828 l 643 144 l 1047 413 l 1113 335 l 617 0 l 554 0 l 60 335 z "},"◊":{"ha":768,"x_min":51,"x_max":717,"o":"m 383 153 l 51 486 l 385 818 l 717 486 l 383 153 m 383 275 l 593 486 l 385 696 l 176 486 l 383 275 z "},"̈":{"ha":0,"x_min":0,"x_max":360,"o":"m 69 792 q 20 812 40 792 q 0 861 0 832 q 20 910 0 889 q 69 931 40 931 q 118 910 97 931 q 139 861 139 889 q 118 812 139 832 q 69 792 97 792 m 292 792 q 242 812 263 792 q 222 861 222 832 q 242 910 222 889 q 292 931 263 931 q 340 910 319 931 q 360 861 360 889 q 340 812 360 832 q 292 792 319 792 z "},"̇":{"ha":0,"x_min":0,"x_max":139,"o":"m 69 793 q 21 814 42 793 q 0 863 0 835 q 21 911 0 890 q 69 932 42 932 q 118 911 97 932 q 139 863 139 890 q 118 814 139 835 q 69 793 97 793 z "},"̀":{"ha":0,"x_min":0,"x_max":296,"o":"m 283 760 l 0 921 l 17 1021 l 17 1021 l 296 843 l 283 760 z "},"́":{"ha":0,"x_min":0,"x_max":296,"o":"m 13 760 l 0 843 l 279 1021 l 279 1021 l 296 921 l 13 760 z "},"̋":{"ha":0,"x_min":0,"x_max":404,"o":"m 203 763 l 303 969 l 404 969 l 281 763 l 203 763 m 0 763 l 92 969 l 193 969 l 79 763 l 0 763 z "},"̂":{"ha":0,"x_min":0,"x_max":381,"o":"m 0 764 l 0 856 l 190 968 l 381 856 l 381 764 l 190 881 l 0 764 z "},"̌":{"ha":0,"x_min":0,"x_max":381,"o":"m 190 782 l 0 896 l 0 986 l 190 869 l 381 986 l 381 896 l 190 782 z "},"̆":{"ha":0,"x_min":0,"x_max":390,"o":"m 194 782 q 88 806 131 782 q 22 872 44 831 q 0 963 0 913 l 0 982 l 69 982 q 99 902 69 931 q 194 874 128 874 q 290 902 261 874 q 319 982 319 931 l 390 982 l 390 963 q 367 872 390 913 q 301 806 344 831 q 194 782 258 782 z "},"̊":{"ha":0,"x_min":0,"x_max":292,"o":"m 146 792 q 43 830 86 792 q 0 935 0 868 q 43 1040 0 1001 q 146 1078 86 1078 q 249 1040 207 1078 q 292 935 292 1001 q 249 830 292 868 q 146 792 207 792 m 146 851 q 202 874 179 851 q 225 935 225 897 q 202 995 225 974 q 146 1017 179 1017 q 90 995 114 1017 q 67 935 67 974 q 90 874 67 897 q 146 851 114 851 z "},"̃":{"ha":0,"x_min":0,"x_max":419,"o":"m 286 792 q 224 808 249 792 q 177 841 199 825 q 126 857 156 857 q 88 842 104 857 q 68 794 72 826 l 0 794 q 45 899 10 864 q 132 935 81 935 q 194 919 169 935 q 240 886 218 903 q 292 869 263 869 q 331 885 315 869 q 351 932 347 901 l 419 932 q 375 828 411 864 q 286 792 339 792 z "},"̄":{"ha":0,"x_min":0,"x_max":482,"o":"m 0 825 l 0 913 l 482 913 l 482 825 l 0 825 z "},"̒":{"ha":0,"x_min":0,"x_max":138,"o":"m 138 1039 l 138 983 q 87 970 103 983 q 71 931 71 957 l 71 901 l 138 901 l 138 786 l 15 786 q 4 849 8 822 q 0 903 0 876 q 36 1007 0 975 q 138 1039 72 1039 z "},"̦":{"ha":0,"x_min":0,"x_max":133,"o":"m 0 -331 l 0 -275 q 49 -255 35 -275 q 64 -196 64 -235 l 64 -176 l 1 -176 l 1 -69 l 121 -69 q 131 -124 128 -97 q 133 -172 133 -150 q 99 -293 133 -256 q 0 -331 64 -331 z "},"̧":{"ha":0,"x_min":0,"x_max":317,"o":"m 0 -360 l 0 -286 l 128 -286 q 199 -269 176 -286 q 222 -219 222 -253 q 199 -173 222 -189 q 128 -157 176 -157 l 60 -157 l 60 10 l 138 10 l 138 -87 q 231 -101 190 -86 q 294 -146 271 -115 q 317 -221 317 -176 q 295 -295 317 -264 q 235 -343 274 -326 q 149 -360 197 -360 l 0 -360 z "},"̨":{"ha":0,"x_min":0,"x_max":268,"o":"m 164 -282 q 85 -269 122 -282 q 24 -226 47 -256 q 0 -150 0 -197 q 15 -87 0 -117 q 66 -28 31 -57 q 161 28 101 1 l 235 60 l 264 0 l 183 -39 q 115 -87 135 -62 q 94 -139 94 -112 q 117 -189 94 -171 q 178 -207 140 -207 q 222 -201 197 -207 q 268 -186 246 -196 l 268 -264 q 219 -277 246 -272 q 164 -282 192 -282 z "},"¨":{"ha":425,"x_min":33,"x_max":393,"o":"m 325 793 q 276 813 296 793 q 256 863 256 833 q 276 911 256 890 q 325 932 296 932 q 373 911 353 932 q 393 863 393 890 q 373 813 393 833 q 325 793 353 793 m 101 793 q 53 813 74 793 q 33 863 33 833 q 53 911 33 890 q 101 932 74 932 q 151 911 131 932 q 171 863 171 890 q 151 813 171 833 q 101 793 131 793 z "},"˙":{"ha":192,"x_min":28,"x_max":165,"o":"m 96 781 q 48 801 68 781 q 28 850 28 822 q 48 899 28 878 q 96 919 68 919 q 145 899 125 919 q 165 850 165 878 q 145 801 165 822 q 96 781 125 781 z "},"`":{"ha":296,"x_min":0,"x_max":296,"o":"m 283 760 l 0 921 l 17 1021 l 17 1021 l 296 843 l 283 760 z "},"´":{"ha":296,"x_min":0,"x_max":296,"o":"m 13 760 l 0 843 l 279 1021 l 279 1021 l 296 921 l 13 760 z "},"˝":{"ha":457,"x_min":24,"x_max":428,"o":"m 226 763 l 326 969 l 428 969 l 304 763 l 226 763 m 24 763 l 115 969 l 217 969 l 103 763 l 24 763 z "},"ˆ":{"ha":426,"x_min":24,"x_max":404,"o":"m 24 765 l 24 857 l 214 969 l 404 857 l 404 765 l 214 882 l 24 765 z "},"ˇ":{"ha":426,"x_min":24,"x_max":404,"o":"m 214 764 l 24 878 l 24 968 l 214 851 l 404 968 l 404 878 l 214 764 z "},"˘":{"ha":436,"x_min":24,"x_max":414,"o":"m 218 768 q 111 792 154 768 q 46 858 68 817 q 24 949 24 899 l 24 968 l 93 968 q 122 888 93 917 q 218 860 151 860 q 314 888 285 860 q 343 968 343 917 l 414 968 l 414 949 q 391 858 414 899 q 325 792 368 817 q 218 768 282 768 z "},"˚":{"ha":333,"x_min":21,"x_max":313,"o":"m 167 774 q 64 812 107 774 q 21 917 21 850 q 64 1022 21 983 q 167 1060 107 1060 q 270 1022 228 1060 q 313 917 313 983 q 270 812 313 850 q 167 774 228 774 m 167 833 q 223 856 200 833 q 246 917 246 879 q 223 977 246 956 q 167 999 200 999 q 111 977 135 999 q 88 917 88 956 q 111 856 88 879 q 167 833 135 833 z "},"˜":{"ha":464,"x_min":22,"x_max":442,"o":"m 308 767 q 246 783 271 767 q 199 816 221 800 q 149 832 178 832 q 111 817 126 832 q 90 769 96 801 l 22 769 q 68 874 33 839 q 154 910 103 910 q 216 894 192 910 q 263 861 240 878 q 314 844 285 844 q 353 860 338 844 q 375 907 369 876 l 442 907 q 398 803 435 839 q 308 767 361 767 z "},"¯":{"ha":529,"x_min":24,"x_max":506,"o":"m 24 822 l 24 910 l 506 910 l 506 822 l 24 822 z "},"¸":{"ha":317,"x_min":0,"x_max":317,"o":"m 0 -360 l 0 -286 l 128 -286 q 199 -269 176 -286 q 222 -219 222 -253 q 199 -173 222 -189 q 128 -157 176 -157 l 60 -157 l 60 10 l 138 10 l 138 -87 q 231 -101 190 -86 q 294 -146 271 -115 q 317 -221 317 -176 q 295 -295 317 -264 q 236 -343 274 -326 q 150 -360 199 -360 l 0 -360 z "},"˛":{"ha":268,"x_min":0,"x_max":268,"o":"m 164 -282 q 85 -269 122 -282 q 24 -226 47 -256 q 0 -150 0 -197 q 15 -87 0 -117 q 66 -28 31 -57 q 161 28 101 1 l 233 60 l 264 0 l 183 -39 q 114 -87 133 -62 q 94 -139 94 -112 q 117 -189 94 -171 q 178 -207 140 -207 q 222 -201 197 -207 q 268 -186 246 -196 l 268 -264 q 218 -277 246 -272 q 164 -282 190 -282 z "}}}
